<svg width="50" height="50" viewBox="0 0 50 50" fill="none" xmlns="http://www.w3.org/2000/svg">
<path d="M24.9996 3.125C30.8016 3.125 36.366 5.42985 40.4687 9.5325C44.5713 13.6351 46.8762 19.1995 46.8762 25.0016C46.8762 30.8036 44.5713 36.368 40.4687 40.4706C36.366 44.5733 30.8016 46.8781 24.9996 46.8781C19.1976 46.8781 13.6332 44.5733 9.53054 40.4706C5.42789 36.368 3.12305 30.8036 3.12305 25.0016C3.12305 19.1995 5.42789 13.6351 9.53054 9.5325C13.6332 5.42985 19.1976 3.125 24.9996 3.125ZM28.2809 16.5562C29.9059 16.5562 31.2246 15.4281 31.2246 13.7562C31.2246 12.0844 29.9027 10.9562 28.2809 10.9562C26.6559 10.9562 25.3434 12.0844 25.3434 13.7562C25.3434 15.4281 26.6559 16.5562 28.2809 16.5562ZM28.8527 34.1406C28.8527 33.8062 28.9684 32.9375 28.9027 32.4437L26.334 35.4C25.8027 35.9594 25.1371 36.3469 24.8246 36.2437C24.6828 36.1916 24.5643 36.0905 24.4904 35.9588C24.4165 35.827 24.3921 35.6732 24.4215 35.525L28.7027 22C29.0527 20.2844 28.0902 18.7187 26.0496 18.5187C23.8965 18.5187 20.7277 20.7031 18.7996 23.475C18.7996 23.8062 18.7371 24.6312 18.8027 25.125L21.3684 22.1656C21.8996 21.6125 22.5184 21.2219 22.8309 21.3281C22.9848 21.3834 23.111 21.4968 23.1823 21.644C23.2535 21.7913 23.2643 21.9606 23.2121 22.1156L18.9684 35.575C18.4777 37.15 19.4059 38.6937 21.6559 39.0437C24.9684 39.0437 26.9246 36.9125 28.8559 34.1406H28.8527Z" fill="white"/>
</svg>
