<svg width="483" height="75" viewBox="0 0 483 75" fill="none" xmlns="http://www.w3.org/2000/svg">
<mask id="path-1-outside-1_236_2827" maskUnits="userSpaceOnUse" x="0" y="0" width="483" height="75" fill="black">
<rect fill="white" width="483" height="75"/>
<path d="M3.84766 37.5684C3.84766 27.2852 6.56348 19.085 11.9951 12.9678C17.4795 6.85059 24.5195 3.79199 33.1152 3.79199C38.8633 3.79199 43.8203 5.37402 47.9863 8.53809C52.1523 11.6494 55.2109 15.5781 57.1621 20.3242L45.8506 23.9629C44.374 21.3262 42.6602 19.1904 40.709 17.5557C38.7578 15.9209 36.2002 15.1035 33.0361 15.1035C28.2373 15.1035 24.4141 17.1602 21.5664 21.2734C18.7715 25.334 17.374 30.7656 17.374 37.5684C17.374 44.4766 18.7979 49.9873 21.6455 54.1006C24.4932 58.1611 28.29 60.1914 33.0361 60.1914C36.2002 60.1914 39.0215 59.1631 41.5 57.1064C44.0312 55.0498 45.8242 52.5713 46.8789 49.6709L58.7441 53.3887C58.1113 54.9707 57.3467 56.5264 56.4502 58.0557C55.5537 59.585 54.3408 61.1934 52.8115 62.8809C51.335 64.5156 49.6738 65.9658 47.8281 67.2314C46.0352 68.4443 43.8467 69.4463 41.2627 70.2373C38.7314 71.0283 36.0156 71.4238 33.1152 71.4238C24.6777 71.4238 17.6904 68.418 12.1533 62.4062C6.61621 56.3945 3.84766 48.1152 3.84766 37.5684ZM71.5428 46.1904C71.5428 51.4111 72.5184 55.1289 74.4695 57.3438C76.4207 59.5586 78.5828 60.666 80.9559 60.666C81.9578 60.666 82.9334 60.4551 83.8826 60.0332C84.8846 59.5586 85.8865 58.8467 86.8885 57.8975C87.8904 56.8955 88.7078 55.3926 89.3406 53.3887C89.9734 51.332 90.2898 48.9326 90.2898 46.1904C90.2898 43.3955 89.9734 40.9961 89.3406 38.9922C88.7605 36.9883 87.9432 35.4854 86.8885 34.4834C85.8865 33.4814 84.8846 32.7695 83.8826 32.3477C82.9334 31.9258 81.9578 31.7148 80.9559 31.7148C78.5828 31.7148 76.4207 32.8223 74.4695 35.0371C72.5184 37.1992 71.5428 40.917 71.5428 46.1904ZM58.5701 46.1904C58.5701 42.9209 58.992 39.8359 59.8357 36.9355C60.6795 33.9824 61.9451 31.293 63.6326 28.8672C65.3729 26.4414 67.7195 24.5166 70.6727 23.0928C73.6785 21.6689 77.1063 20.957 80.9559 20.957C84.8055 20.957 88.2068 21.6689 91.16 23.0928C94.1131 24.5166 96.4334 26.4414 98.1209 28.8672C99.8611 31.293 101.153 33.9824 101.997 36.9355C102.841 39.8359 103.263 42.9209 103.263 46.1904C103.263 48.2998 103.078 50.4092 102.709 52.5186C102.34 54.5752 101.628 56.79 100.573 59.1631C99.5711 61.4834 98.2791 63.54 96.6971 65.333C95.115 67.0732 92.9529 68.5234 90.2107 69.6836C87.5213 70.8438 84.4363 71.4238 80.9559 71.4238C77.5281 71.4238 74.4695 70.8701 71.7801 69.7627C69.0906 68.6553 66.9285 67.2578 65.2938 65.5703C63.659 63.8301 62.3143 61.8262 61.2596 59.5586C60.2576 57.2383 59.5457 54.9971 59.1238 52.835C58.7547 50.6729 58.5701 48.458 58.5701 46.1904ZM104.038 46.1113C104.038 38.2539 105.936 32.1104 109.733 27.6807C113.583 23.1982 118.513 20.957 124.525 20.957C128.955 20.957 132.514 22.5918 135.204 25.8613V3.23828H147.781V70H135.52V65.2539C134.571 66.8887 133.068 68.3389 131.011 69.6045C128.955 70.8174 126.766 71.4238 124.446 71.4238C121.915 71.4238 119.463 70.9492 117.089 70C114.769 69.0508 112.607 67.627 110.603 65.7285C108.599 63.8301 106.991 61.1934 105.778 57.8184C104.618 54.4434 104.038 50.541 104.038 46.1113ZM117.01 46.1113C117.01 50.8047 117.828 54.417 119.463 56.9482C121.15 59.4268 123.418 60.666 126.265 60.666C129.06 60.666 131.249 59.374 132.831 56.79C134.465 54.2061 135.283 50.6465 135.283 46.1113C135.283 41.7871 134.518 38.3066 132.989 35.6699C131.46 33.0332 129.218 31.7148 126.265 31.7148C123.207 31.7148 120.886 33.0332 119.304 35.6699C117.775 38.2539 117.01 41.7344 117.01 46.1113ZM151.483 46.0322C151.483 38.2803 153.645 32.1631 157.969 27.6807C162.293 23.1982 167.646 20.957 174.027 20.957C180.197 20.957 185.417 23.2773 189.689 27.918C194.013 32.5059 196.175 38.5439 196.175 46.0322C196.175 47.5615 196.096 49.0908 195.938 50.6201H164.297C164.297 53.626 165.246 56.1836 167.145 58.293C169.043 60.3496 171.601 61.3779 174.818 61.3779C177.191 61.3779 179.247 60.7979 180.988 59.6377C182.781 58.4248 184.125 56.8955 185.022 55.0498L195.542 58.7676C193.96 62.3008 191.376 65.3066 187.79 67.7852C184.204 70.2109 179.748 71.4238 174.422 71.4238C167.725 71.4238 162.214 69.1299 157.89 64.542C153.619 59.9541 151.483 53.7842 151.483 46.0322ZM164.376 41.998H183.282C183.282 38.9395 182.464 36.3291 180.829 34.167C179.247 31.9521 176.98 30.8447 174.027 30.8447C171.021 30.8447 168.648 31.9521 166.908 34.167C165.22 36.3818 164.376 38.9922 164.376 41.998ZM229.445 34.2461H240.757C247.507 34.2461 250.882 31.1875 250.882 25.0703C250.882 22.4336 249.985 20.3506 248.192 18.8213C246.399 17.292 243.895 16.5273 240.678 16.5273H229.445V34.2461ZM216.314 70V5.21582H243.13C249.985 5.21582 255.259 6.98242 258.95 10.5156C262.642 14.0488 264.487 18.5313 264.487 23.9629C264.487 28.3926 263.591 31.9785 261.798 34.7207C260.005 37.4102 257.896 39.3086 255.47 40.416C257.315 41.8926 258.607 43.3428 259.346 44.7666C260.137 46.1904 260.796 48.5107 261.323 51.7275C262.483 57.6338 264.962 63.7246 268.759 70H254.046C251.04 65.0957 248.878 59.3213 247.56 52.6768C247.032 50.1455 246.294 48.2998 245.345 47.1396C244.396 45.9795 242.919 45.3994 240.915 45.3994H229.445V70H216.314ZM267.477 46.0322C267.477 38.2803 269.639 32.1631 273.964 27.6807C278.288 23.1982 283.64 20.957 290.021 20.957C296.191 20.957 301.412 23.2773 305.683 27.918C310.008 32.5059 312.17 38.5439 312.17 46.0322C312.17 47.5615 312.091 49.0908 311.932 50.6201H280.292C280.292 53.626 281.241 56.1836 283.139 58.293C285.038 60.3496 287.596 61.3779 290.812 61.3779C293.185 61.3779 295.242 60.7979 296.982 59.6377C298.775 58.4248 300.12 56.8955 301.016 55.0498L311.537 58.7676C309.955 62.3008 307.371 65.3066 303.785 67.7852C300.199 70.2109 295.743 71.4238 290.417 71.4238C283.72 71.4238 278.209 69.1299 273.885 64.542C269.613 59.9541 267.477 53.7842 267.477 46.0322ZM280.371 41.998H299.276C299.276 38.9395 298.459 36.3291 296.824 34.167C295.242 31.9521 292.974 30.8447 290.021 30.8447C287.015 30.8447 284.642 31.9521 282.902 34.167C281.215 36.3818 280.371 38.9922 280.371 41.998ZM315.713 70V3.23828H328.212V25.7822C331.323 22.5654 334.962 20.957 339.128 20.957C344.928 20.957 349.754 23.1982 353.603 27.6807C357.505 32.1104 359.457 38.2539 359.457 46.1113C359.457 50.541 358.824 54.4697 357.558 57.8975C356.345 61.2725 354.737 63.9092 352.733 65.8076C350.729 67.7061 348.593 69.1035 346.326 70C344.058 70.9492 341.738 71.4238 339.365 71.4238C336.886 71.4238 334.592 70.8174 332.483 69.6045C330.374 68.3916 328.844 66.9678 327.895 65.333V70H315.713ZM328.132 46.1113C328.132 50.6465 328.923 54.2061 330.505 56.79C332.14 59.374 334.408 60.666 337.308 60.666C339.998 60.666 342.186 59.4531 343.874 57.0273C345.561 54.6016 346.405 50.9629 346.405 46.1113C346.405 41.6289 345.614 38.1221 344.032 35.5908C342.45 33.0068 340.209 31.7148 337.308 31.7148C334.25 31.7148 331.956 33.0332 330.426 35.6699C328.897 38.3066 328.132 41.7871 328.132 46.1113ZM373.204 46.1904C373.204 51.4111 374.18 55.1289 376.131 57.3438C378.082 59.5586 380.245 60.666 382.618 60.666C383.62 60.666 384.595 60.4551 385.544 60.0332C386.546 59.5586 387.548 58.8467 388.55 57.8975C389.552 56.8955 390.37 55.3926 391.002 53.3887C391.635 51.332 391.952 48.9326 391.952 46.1904C391.952 43.3955 391.635 40.9961 391.002 38.9922C390.422 36.9883 389.605 35.4854 388.55 34.4834C387.548 33.4814 386.546 32.7695 385.544 32.3477C384.595 31.9258 383.62 31.7148 382.618 31.7148C380.245 31.7148 378.082 32.8223 376.131 35.0371C374.18 37.1992 373.204 40.917 373.204 46.1904ZM360.232 46.1904C360.232 42.9209 360.654 39.8359 361.497 36.9355C362.341 33.9824 363.607 31.293 365.294 28.8672C367.035 26.4414 369.381 24.5166 372.334 23.0928C375.34 21.6689 378.768 20.957 382.618 20.957C386.467 20.957 389.869 21.6689 392.822 23.0928C395.775 24.5166 398.095 26.4414 399.783 28.8672C401.523 31.293 402.815 33.9824 403.659 36.9355C404.502 39.8359 404.924 42.9209 404.924 46.1904C404.924 48.2998 404.74 50.4092 404.371 52.5186C404.001 54.5752 403.289 56.79 402.235 59.1631C401.233 61.4834 399.941 63.54 398.359 65.333C396.777 67.0732 394.615 68.5234 391.872 69.6836C389.183 70.8438 386.098 71.4238 382.618 71.4238C379.19 71.4238 376.131 70.8701 373.442 69.7627C370.752 68.6553 368.59 67.2578 366.955 65.5703C365.321 63.8301 363.976 61.8262 362.921 59.5586C361.919 57.2383 361.207 54.9971 360.786 52.835C360.416 50.6729 360.232 48.458 360.232 46.1904ZM418.672 46.1904C418.672 51.4111 419.648 55.1289 421.599 57.3438C423.55 59.5586 425.712 60.666 428.085 60.666C429.087 60.666 430.063 60.4551 431.012 60.0332C432.014 59.5586 433.016 58.8467 434.018 57.8975C435.02 56.8955 435.837 55.3926 436.47 53.3887C437.103 51.332 437.419 48.9326 437.419 46.1904C437.419 43.3955 437.103 40.9961 436.47 38.9922C435.89 36.9883 435.072 35.4854 434.018 34.4834C433.016 33.4814 432.014 32.7695 431.012 32.3477C430.063 31.9258 429.087 31.7148 428.085 31.7148C425.712 31.7148 423.55 32.8223 421.599 35.0371C419.648 37.1992 418.672 40.917 418.672 46.1904ZM405.699 46.1904C405.699 42.9209 406.121 39.8359 406.965 36.9355C407.809 33.9824 409.074 31.293 410.762 28.8672C412.502 26.4414 414.849 24.5166 417.802 23.0928C420.808 21.6689 424.236 20.957 428.085 20.957C431.935 20.957 435.336 21.6689 438.289 23.0928C441.242 24.5166 443.563 26.4414 445.25 28.8672C446.99 31.293 448.282 33.9824 449.126 36.9355C449.97 39.8359 450.392 42.9209 450.392 46.1904C450.392 48.2998 450.207 50.4092 449.838 52.5186C449.469 54.5752 448.757 56.79 447.702 59.1631C446.7 61.4834 445.408 63.54 443.826 65.333C442.244 67.0732 440.082 68.5234 437.34 69.6836C434.651 70.8438 431.566 71.4238 428.085 71.4238C424.657 71.4238 421.599 70.8701 418.909 69.7627C416.22 68.6553 414.058 67.2578 412.423 65.5703C410.788 63.8301 409.444 61.8262 408.389 59.5586C407.387 57.2383 406.675 54.9971 406.253 52.835C405.884 50.6729 405.699 48.458 405.699 46.1904ZM450.06 33.0596V22.3809H456.862V8.85449H469.36V22.3809H479.248V33.0596H469.36V54.0215C469.36 57.502 470.89 59.2422 473.948 59.2422H479.327V70H472.366C462.03 70 456.862 64.9111 456.862 54.7334V33.0596H450.06Z"/>
</mask>
<path d="M11.9951 12.9678L9.76141 10.9651L9.7566 10.9705L9.75182 10.9759L11.9951 12.9678ZM47.9863 8.53809L46.1718 10.9272L46.1815 10.9345L46.1912 10.9417L47.9863 8.53809ZM57.1621 20.3242L58.0808 23.1801L61.1711 22.186L59.9368 19.1835L57.1621 20.3242ZM45.8506 23.9629L43.2331 25.4287L44.4325 27.5705L46.7693 26.8188L45.8506 23.9629ZM21.5664 21.2734L19.0998 19.5658L19.0952 19.5725L21.5664 21.2734ZM21.6455 54.1006L19.1789 55.8082L19.1841 55.8157L19.1893 55.8231L21.6455 54.1006ZM41.5 57.1064L39.6082 54.7781L39.5962 54.7879L39.5843 54.7978L41.5 57.1064ZM46.8789 49.6709L47.7759 46.8081L45.0395 45.9507L44.0595 48.6457L46.8789 49.6709ZM58.7441 53.3887L61.5296 54.5028L62.7328 51.4946L59.6411 50.5259L58.7441 53.3887ZM52.8115 62.8809L50.5886 60.8663L50.5852 60.87L52.8115 62.8809ZM47.8281 67.2314L49.5091 69.7163L49.5169 69.711L49.5247 69.7056L47.8281 67.2314ZM41.2627 70.2373L40.3846 67.3687L40.3762 67.3713L40.3679 67.3739L41.2627 70.2373ZM6.84766 37.5684C6.84766 27.8239 9.41005 20.3974 14.2384 14.9597L9.75182 10.9759C3.71691 17.7725 0.847656 26.7464 0.847656 37.5684H6.84766ZM14.2288 14.9704C19.115 9.52047 25.3273 6.79199 33.1152 6.79199V0.791992C23.7118 0.791992 15.844 4.1807 9.76141 10.9651L14.2288 14.9704ZM33.1152 6.79199C38.2764 6.79199 42.5797 8.19894 46.1718 10.9272L49.8008 6.14902C45.0609 2.54911 39.4502 0.791992 33.1152 0.791992V6.79199ZM46.1912 10.9417C49.9286 13.7329 52.6454 17.2276 54.3874 21.4649L59.9368 19.1835C57.7764 13.9286 54.3761 9.56589 49.7815 6.13444L46.1912 10.9417ZM56.2434 17.4683L44.9319 21.107L46.7693 26.8188L58.0808 23.1801L56.2434 17.4683ZM48.4681 22.4971C46.8463 19.6009 44.9126 17.1638 42.6356 15.2561L38.7823 19.8552C40.4077 21.217 41.9018 23.0514 43.2331 25.4287L48.4681 22.4971ZM42.6356 15.2561C40.023 13.0671 36.7282 12.1035 33.0361 12.1035V18.1035C35.6722 18.1035 37.4926 18.7747 38.7823 19.8552L42.6356 15.2561ZM33.0361 12.1035C27.2041 12.1035 22.4795 14.684 19.0998 19.5658L24.033 22.9811C26.3486 19.6363 29.2705 18.1035 33.0361 18.1035V12.1035ZM19.0952 19.5725C15.8475 24.2908 14.374 30.3824 14.374 37.5684H20.374C20.374 31.1488 21.6954 26.3771 24.0376 22.9744L19.0952 19.5725ZM14.374 37.5684C14.374 44.8609 15.8744 51.035 19.1789 55.8082L24.1121 52.393C21.7213 48.9396 20.374 44.0922 20.374 37.5684H14.374ZM19.1893 55.8231C22.5686 60.6417 27.261 63.1914 33.0361 63.1914V57.1914C29.3191 57.1914 26.4177 55.6806 24.1017 52.3781L19.1893 55.8231ZM33.0361 63.1914C36.9134 63.1914 40.4093 61.9098 43.4157 59.4151L39.5843 54.7978C37.6337 56.4164 35.487 57.1914 33.0361 57.1914V63.1914ZM43.3918 59.4348C46.3195 57.056 48.4473 54.1362 49.6983 50.6961L44.0595 48.6457C43.2011 51.0064 41.743 53.0436 39.6082 54.7781L43.3918 59.4348ZM45.9819 52.5337L57.8471 56.2514L59.6411 50.5259L47.7759 46.8081L45.9819 52.5337ZM55.9587 52.2745C55.3837 53.712 54.6859 55.1332 53.8621 56.5385L59.0383 59.5728C60.0075 57.9195 60.8389 56.2294 61.5296 54.5028L55.9587 52.2745ZM53.8621 56.5385C53.0945 57.848 52.0163 59.2908 50.5886 60.8663L55.0345 64.8954C56.6653 63.0959 58.0129 61.3219 59.0383 59.5728L53.8621 56.5385ZM50.5852 60.87C49.2689 62.3273 47.7862 63.6226 46.1315 64.7573L49.5247 69.7056C51.5614 68.309 53.401 66.7039 55.0378 64.8917L50.5852 60.87ZM46.1472 64.7466C44.6537 65.7569 42.751 66.6443 40.3846 67.3687L42.1408 73.1059C44.9424 72.2483 47.4166 71.1318 49.5091 69.7163L46.1472 64.7466ZM40.3679 67.3739C38.1521 68.0663 35.7404 68.4238 33.1152 68.4238V74.4238C36.2908 74.4238 39.3108 73.9903 42.1575 73.1007L40.3679 67.3739ZM33.1152 68.4238C25.4855 68.4238 19.3086 65.7466 14.36 60.3738L9.94668 64.4387C16.0723 71.0893 23.87 74.4238 33.1152 74.4238V68.4238ZM14.36 60.3738C9.46771 55.0622 6.84766 47.5879 6.84766 37.5684H0.847656C0.847656 48.6425 3.76471 57.7268 9.94668 64.4387L14.36 60.3738ZM83.8826 60.0332L85.101 62.7746L85.1341 62.7599L85.1669 62.7444L83.8826 60.0332ZM86.8885 57.8975L88.9517 60.0753L88.9811 60.0474L89.0098 60.0188L86.8885 57.8975ZM89.3406 53.3887L92.2014 54.2921L92.2047 54.2815L92.208 54.2709L89.3406 53.3887ZM89.3406 38.9922L86.4589 39.8264L86.469 39.8611L86.4799 39.8956L89.3406 38.9922ZM86.8885 34.4834L84.7672 36.6047L84.7943 36.6319L84.8222 36.6584L86.8885 34.4834ZM83.8826 32.3477L82.6642 35.0891L82.6912 35.1011L82.7184 35.1126L83.8826 32.3477ZM74.4695 35.0371L76.6967 37.047L76.7087 37.0337L76.7206 37.0202L74.4695 35.0371ZM59.8357 36.9355L62.7163 37.7735L62.7183 37.7666L62.7203 37.7597L59.8357 36.9355ZM63.6326 28.8672L61.195 27.1185L61.1823 27.1361L61.1699 27.154L63.6326 28.8672ZM70.6727 23.0928L69.3884 20.3816L69.3791 20.386L69.3698 20.3905L70.6727 23.0928ZM98.1209 28.8672L95.6582 30.5804L95.6706 30.5982L95.6833 30.6159L98.1209 28.8672ZM101.997 36.9355L99.1123 37.7597L99.1143 37.7666L99.1163 37.7735L101.997 36.9355ZM102.709 52.5186L105.662 53.0486L105.664 53.0357L102.709 52.5186ZM100.573 59.1631L97.8316 57.9447L97.8252 57.9592L97.8189 57.9738L100.573 59.1631ZM96.6971 65.333L98.9169 67.351L98.9319 67.3346L98.9466 67.3179L96.6971 65.333ZM90.2107 69.6836L89.0418 66.9207L89.0321 66.9248L89.0225 66.929L90.2107 69.6836ZM65.2937 65.5703L63.1072 67.6243L63.123 67.6411L63.139 67.6577L65.2937 65.5703ZM61.2596 59.5586L58.5054 60.7479L58.5219 60.7861L58.5394 60.8238L61.2596 59.5586ZM59.1238 52.835L56.1666 53.3399L56.1726 53.3747L56.1794 53.4095L59.1238 52.835ZM68.5428 46.1904C68.5428 51.6337 69.5307 56.2759 72.2185 59.3268L76.7206 55.3607C75.506 53.9819 74.5428 51.1886 74.5428 46.1904H68.5428ZM72.2185 59.3268C74.5892 62.0179 77.5177 63.666 80.9559 63.666V57.666C79.6479 57.666 78.2523 57.0993 76.7206 55.3607L72.2185 59.3268ZM80.9559 63.666C82.3931 63.666 83.7827 63.3606 85.101 62.7746L82.6642 57.2918C82.0841 57.5496 81.5226 57.666 80.9559 57.666V63.666ZM85.1669 62.7444C86.5152 62.1058 87.7738 61.1913 88.9517 60.0753L84.8252 55.7196C83.9993 56.5021 83.254 57.0114 82.5984 57.322L85.1669 62.7444ZM89.0098 60.0188C90.4773 58.5513 91.4881 56.5508 92.2014 54.2921L86.4799 52.4853C85.9275 54.2344 85.3035 55.2398 84.7672 55.7761L89.0098 60.0188ZM92.208 54.2709C92.949 51.8626 93.2898 49.1539 93.2898 46.1904H87.2898C87.2898 48.7113 86.9979 50.8015 86.4733 52.5064L92.208 54.2709ZM93.2898 46.1904C93.2898 43.1836 92.9512 40.4632 92.2014 38.0888L86.4799 39.8956C86.9957 41.529 87.2898 43.6074 87.2898 46.1904H93.2898ZM92.2223 38.158C91.5548 35.852 90.5275 33.8025 88.9547 32.3084L84.8222 36.6584C85.3588 37.1682 85.9663 38.1246 86.4589 39.8264L92.2223 38.158ZM89.0098 32.3621C87.8127 31.1649 86.4969 30.1933 85.0468 29.5827L82.7184 35.1126C83.2722 35.3457 83.9604 35.798 84.7672 36.6047L89.0098 32.3621ZM85.101 29.6062C83.7827 29.0203 82.3931 28.7148 80.9559 28.7148V34.7148C81.5226 34.7148 82.0841 34.8313 82.6642 35.0891L85.101 29.6062ZM80.9559 28.7148C77.5177 28.7148 74.5892 30.3629 72.2185 33.054L76.7206 37.0202C78.2523 35.2816 79.6479 34.7148 80.9559 34.7148V28.7148ZM72.2424 33.0272C69.5227 36.0408 68.5428 40.7148 68.5428 46.1904H74.5428C74.5428 41.1192 75.514 38.3576 76.6967 37.047L72.2424 33.0272ZM61.5701 46.1904C61.5701 43.1812 61.958 40.3802 62.7163 37.7735L56.9552 36.0976C56.026 39.2917 55.5701 42.6606 55.5701 46.1904H61.5701ZM62.7203 37.7597C63.4769 35.1115 64.6038 32.7245 66.0953 30.5804L61.1699 27.154C59.2864 29.8615 57.882 32.8533 56.9512 36.1114L62.7203 37.7597ZM66.0702 30.6159C67.4899 28.637 69.4291 27.0228 71.9756 25.7951L69.3698 20.3905C66.01 22.0104 63.2558 24.2459 61.195 27.1185L66.0702 30.6159ZM71.9569 25.804C74.5028 24.5981 77.4807 23.957 80.9559 23.957V17.957C76.7318 17.957 72.8543 18.7398 69.3884 20.3816L71.9569 25.804ZM80.9559 23.957C84.4324 23.957 87.3753 24.5985 89.8571 25.7951L92.4629 20.3905C89.0384 18.7394 85.1785 17.957 80.9559 17.957V23.957ZM89.8571 25.7951C92.397 27.0197 94.297 28.6237 95.6582 30.5804L100.584 27.154C98.5698 24.2591 95.8292 22.0135 92.4629 20.3905L89.8571 25.7951ZM95.6833 30.6159C97.2167 32.7534 98.3605 35.1285 99.1123 37.7597L104.881 36.1114C103.946 32.8364 102.506 29.8325 100.559 27.1185L95.6833 30.6159ZM99.1163 37.7735C99.8746 40.3802 100.262 43.1812 100.262 46.1904H106.262C106.262 42.6606 105.807 39.2917 104.877 36.0976L99.1163 37.7735ZM100.262 46.1904C100.262 48.1238 100.093 50.0602 99.7537 52.0014L105.664 53.0357C106.062 50.7582 106.262 48.4758 106.262 46.1904H100.262ZM99.756 51.9886C99.4382 53.759 98.811 55.741 97.8316 57.9447L103.314 60.3815C104.444 57.8391 105.241 55.3914 105.662 53.0485L99.756 51.9886ZM97.8189 57.9738C96.935 60.0206 95.8089 61.8053 94.4476 63.3481L98.9466 67.3179C100.749 65.2748 102.207 62.9462 103.327 60.3524L97.8189 57.9738ZM94.4772 63.315C93.2543 64.6602 91.4869 65.8862 89.0418 66.9207L91.3797 72.4465C94.4189 71.1606 96.9757 69.4863 98.9169 67.351L94.4772 63.315ZM89.0225 66.929C86.772 67.8997 84.1033 68.4238 80.9559 68.4238V74.4238C84.7693 74.4238 88.2706 73.7878 91.399 72.4382L89.0225 66.929ZM80.9559 68.4238C77.8512 68.4238 75.1908 67.9228 72.9223 66.9887L70.6378 72.5367C73.7482 73.8175 77.2051 74.4238 80.9559 74.4238V68.4238ZM72.9223 66.9887C70.5259 66.0019 68.7369 64.8129 67.4485 63.4829L63.139 67.6577C65.1201 69.7027 67.6554 71.3087 70.6378 72.5367L72.9223 66.9887ZM67.4803 63.5163C66.0745 62.0198 64.9061 60.2851 63.9797 58.2934L58.5394 60.8238C59.7224 63.3672 61.2435 65.6404 63.1072 67.6243L67.4803 63.5163ZM64.0138 58.3693C63.0849 56.2182 62.4435 54.1832 62.0683 52.2604L56.1794 53.4095C56.6479 55.811 57.4304 58.2584 58.5054 60.7479L64.0138 58.3693ZM62.081 52.3301C61.7413 50.3403 61.5701 48.2945 61.5701 46.1904H55.5701C55.5701 48.6215 55.7681 51.0054 56.1666 53.3399L62.081 52.3301ZM109.733 27.6807L107.457 25.7261L107.455 25.7283L109.733 27.6807ZM135.204 25.8613L132.887 27.7671L138.204 34.2308V25.8613H135.204ZM135.204 3.23828V0.238281H132.204V3.23828H135.204ZM147.781 3.23828H150.781V0.238281H147.781V3.23828ZM147.781 70V73H150.781V70H147.781ZM135.52 70H132.52V73H135.52V70ZM135.52 65.2539H138.52V54.1128L132.926 63.7475L135.52 65.2539ZM131.011 69.6045L132.535 72.1886L132.56 72.1743L132.584 72.1595L131.011 69.6045ZM117.089 70L115.954 72.7766L115.964 72.7811L115.975 72.7854L117.089 70ZM105.778 57.8184L102.941 58.7936L102.948 58.8133L102.955 58.833L105.778 57.8184ZM119.463 56.9482L116.942 58.5758L116.962 58.6065L116.983 58.6366L119.463 56.9482ZM132.831 56.79L130.295 55.1861L130.284 55.2048L130.272 55.2236L132.831 56.79ZM119.304 35.6699L116.732 34.1264L116.727 34.1342L116.723 34.142L119.304 35.6699ZM107.038 46.1113C107.038 38.7201 108.82 33.3553 112.011 29.633L107.455 25.7283C103.052 30.8654 101.038 37.7877 101.038 46.1113H107.038ZM112.009 29.6352C115.277 25.8296 119.37 23.957 124.525 23.957V17.957C117.656 17.957 111.888 20.5668 107.457 25.7261L112.009 29.6352ZM124.525 23.957C128.105 23.957 130.797 25.2265 132.887 27.7671L137.521 23.9555C134.232 19.9571 129.804 17.957 124.525 17.957V23.957ZM138.204 25.8613V3.23828H132.204V25.8613H138.204ZM135.204 6.23828H147.781V0.238281H135.204V6.23828ZM144.781 3.23828V70H150.781V3.23828H144.781ZM147.781 67H135.52V73H147.781V67ZM138.52 70V65.2539H132.52V70H138.52ZM132.926 63.7475C132.285 64.851 131.188 65.9734 129.439 67.0495L132.584 72.1595C134.948 70.7044 136.857 68.9263 138.114 66.7603L132.926 63.7475ZM129.487 67.0204C127.878 67.9693 126.214 68.4238 124.446 68.4238V74.4238C127.318 74.4238 130.031 73.6655 132.535 72.1886L129.487 67.0204ZM124.446 68.4238C122.3 68.4238 120.226 68.0235 118.204 67.2146L115.975 72.7854C118.699 73.875 121.529 74.4238 124.446 74.4238V68.4238ZM118.225 67.2234C116.282 66.4282 114.428 65.2197 112.666 63.5507L108.54 67.9064C110.786 70.0342 113.257 71.6734 115.954 72.7766L118.225 67.2234ZM112.666 63.5507C111.09 62.057 109.701 59.8645 108.601 56.8038L102.955 58.833C104.281 62.5222 106.109 65.6031 108.54 67.9064L112.666 63.5507ZM108.615 56.8431C107.585 53.8472 107.038 50.286 107.038 46.1113H101.038C101.038 50.796 101.65 55.0395 102.941 58.7936L108.615 56.8431ZM114.01 46.1113C114.01 51.0855 114.865 55.3593 116.942 58.5758L121.983 55.3207C120.79 53.4747 120.01 50.5239 120.01 46.1113H114.01ZM116.983 58.6366C119.194 61.884 122.364 63.666 126.265 63.666V57.666C124.471 57.666 123.106 56.9695 121.942 55.2599L116.983 58.6366ZM126.265 63.666C130.206 63.666 133.317 61.7409 135.389 58.3565L130.272 55.2236C129.18 57.0071 127.914 57.666 126.265 57.666V63.666ZM135.366 58.394C137.417 55.1512 138.283 50.9571 138.283 46.1113H132.283C132.283 50.3359 131.513 53.2609 130.295 55.1861L135.366 58.394ZM138.283 46.1113C138.283 41.4678 137.467 37.411 135.584 34.1648L130.394 37.1751C131.57 39.2023 132.283 42.1064 132.283 46.1113H138.283ZM135.584 34.1648C133.539 30.6394 130.33 28.7148 126.265 28.7148V34.7148C128.107 34.7148 129.38 35.427 130.394 37.1751L135.584 34.1648ZM126.265 28.7148C122.146 28.7148 118.852 30.592 116.732 34.1264L121.877 37.2134C122.92 35.4744 124.267 34.7148 126.265 34.7148V28.7148ZM116.723 34.142C114.822 37.3534 114.01 41.4276 114.01 46.1113H120.01C120.01 42.0412 120.728 39.1544 121.886 37.1979L116.723 34.142ZM189.689 27.918L187.482 29.9497L187.494 29.9627L187.506 29.9756L189.689 27.918ZM195.938 50.6201V53.6201H198.644L198.922 50.9288L195.938 50.6201ZM164.297 50.6201V47.6201H161.297V50.6201H164.297ZM167.145 58.293L164.915 60.2999L164.928 60.3139L164.941 60.3278L167.145 58.293ZM180.988 59.6377L182.652 62.1338L182.66 62.1282L182.669 62.1225L180.988 59.6377ZM185.022 55.0498L186.021 52.2212L183.494 51.3282L182.323 53.7391L185.022 55.0498ZM195.542 58.7676L198.28 59.9936L199.61 57.0233L196.542 55.939L195.542 58.7676ZM187.79 67.7852L189.471 70.27L189.484 70.2616L189.496 70.253L187.79 67.7852ZM157.89 64.542L155.694 66.5863L155.701 66.593L155.707 66.5996L157.89 64.542ZM164.376 41.998H161.376V44.998H164.376V41.998ZM183.282 41.998V44.998H186.282V41.998H183.282ZM180.829 34.167L178.388 35.9107L178.412 35.9438L178.437 35.9763L180.829 34.167ZM166.908 34.167L164.549 32.3135L164.535 32.3311L164.521 32.3489L166.908 34.167ZM154.483 46.0322C154.483 38.8573 156.468 33.5577 160.128 29.7635L155.81 25.5978C150.822 30.7684 148.483 37.7032 148.483 46.0322H154.483ZM160.128 29.7635C163.872 25.8832 168.438 23.957 174.027 23.957V17.957C166.854 17.957 160.715 20.5133 155.81 25.5978L160.128 29.7635ZM174.027 23.957C179.337 23.957 183.764 25.9106 187.482 29.9497L191.896 25.8863C187.071 20.6441 181.056 17.957 174.027 17.957V23.957ZM187.506 29.9756C191.209 33.9048 193.175 39.1561 193.175 46.0322H199.175C199.175 37.9318 196.817 31.1069 191.872 25.8603L187.506 29.9756ZM193.175 46.0322C193.175 47.4579 193.101 48.8841 192.954 50.3114L198.922 50.9288C199.091 49.2975 199.175 47.6652 199.175 46.0322H193.175ZM195.938 47.6201H164.297V53.6201H195.938V47.6201ZM161.297 50.6201C161.297 54.3192 162.49 57.605 164.915 60.2999L169.375 56.2861C168.003 54.7622 167.297 52.9328 167.297 50.6201H161.297ZM164.941 60.3278C167.494 63.0939 170.901 64.3779 174.818 64.3779V58.3779C172.301 58.3779 170.593 57.6054 169.349 56.2581L164.941 60.3278ZM174.818 64.3779C177.701 64.3779 180.354 63.6654 182.652 62.1338L179.324 57.1415C178.14 57.9303 176.681 58.3779 174.818 58.3779V64.3779ZM182.669 62.1225C184.873 60.6313 186.581 58.7065 187.72 56.3605L182.323 53.7391C181.67 55.0845 180.688 56.2183 179.307 57.1528L182.669 62.1225ZM184.022 57.8784L194.543 61.5962L196.542 55.939L186.021 52.2212L184.022 57.8784ZM192.804 57.5416C191.474 60.5133 189.278 63.1103 186.085 65.3173L189.496 70.253C193.475 67.503 196.447 64.0882 198.28 59.9936L192.804 57.5416ZM186.11 65.3003C183.124 67.3201 179.288 68.4238 174.422 68.4238V74.4238C180.208 74.4238 185.285 73.1018 189.471 70.27L186.11 65.3003ZM174.422 68.4238C168.494 68.4238 163.792 66.4301 160.073 62.4843L155.707 66.5996C160.636 71.8297 166.956 74.4238 174.422 74.4238V68.4238ZM160.086 62.4977C156.447 58.589 154.483 53.2138 154.483 46.0322H148.483C148.483 54.3545 150.791 61.3192 155.694 66.5863L160.086 62.4977ZM164.376 44.998H183.282V38.998H164.376V44.998ZM186.282 41.998C186.282 38.3743 185.301 35.1068 183.222 32.3577L178.437 35.9763C179.627 37.5514 180.282 39.5046 180.282 41.998H186.282ZM183.271 32.4233C181.072 29.3448 177.852 27.8447 174.027 27.8447V33.8447C176.107 33.8447 177.423 34.5595 178.388 35.9107L183.271 32.4233ZM174.027 27.8447C170.172 27.8447 166.9 29.3205 164.549 32.3135L169.267 36.0205C170.395 34.5838 171.87 33.8447 174.027 33.8447V27.8447ZM164.521 32.3489C162.403 35.1287 161.376 38.3908 161.376 41.998H167.376C167.376 39.5935 168.037 37.6349 169.294 35.9851L164.521 32.3489ZM229.445 34.2461H226.445V37.2461H229.445V34.2461ZM229.445 16.5273V13.5273H226.445V16.5273H229.445ZM216.314 70H213.314V73H216.314V70ZM216.314 5.21582V2.21582H213.314V5.21582H216.314ZM261.798 34.7207L264.294 36.3848L264.301 36.3737L264.309 36.3624L261.798 34.7207ZM255.47 40.416L254.224 37.687L249.788 39.7122L253.596 42.7586L255.47 40.416ZM259.346 44.7666L256.682 46.1476L256.702 46.1858L256.723 46.2235L259.346 44.7666ZM261.323 51.7275L258.363 52.2129L258.37 52.2595L258.379 52.3058L261.323 51.7275ZM268.759 70V73H274.08L271.326 68.447L268.759 70ZM254.046 70L251.488 71.5677L252.366 73H254.046V70ZM247.56 52.6768L250.502 52.0929L250.499 52.0789L250.497 52.0649L247.56 52.6768ZM229.445 45.3994V42.3994H226.445V45.3994H229.445ZM229.445 70V73H232.445V70H229.445ZM229.445 37.2461H240.757V31.2461H229.445V37.2461ZM240.757 37.2461C244.525 37.2461 247.912 36.3987 250.365 34.1751C252.875 31.9007 253.882 28.6717 253.882 25.0703H247.882C247.882 27.5861 247.201 28.945 246.336 29.7292C245.415 30.5642 243.738 31.2461 240.757 31.2461V37.2461ZM253.882 25.0703C253.882 21.6725 252.685 18.71 250.139 16.5388L246.246 21.1038C247.286 21.9912 247.882 23.1947 247.882 25.0703H253.882ZM250.139 16.5388C247.633 14.4014 244.347 13.5273 240.678 13.5273V19.5273C243.442 19.5273 245.166 20.1826 246.246 21.1038L250.139 16.5388ZM240.678 13.5273H229.445V19.5273H240.678V13.5273ZM226.445 16.5273V34.2461H232.445V16.5273H226.445ZM219.314 70V5.21582H213.314V70H219.314ZM216.314 8.21582H243.13V2.21582H216.314V8.21582ZM243.13 8.21582C249.483 8.21582 253.912 9.84567 256.876 12.6829L261.025 8.34837C256.606 4.11917 250.488 2.21582 243.13 2.21582V8.21582ZM256.876 12.6829C259.936 15.6116 261.487 19.2921 261.487 23.9629H267.487C267.487 17.7704 265.348 12.4861 261.025 8.34837L256.876 12.6829ZM261.487 23.9629C261.487 28.0092 260.667 30.9688 259.287 33.079L264.309 36.3624C266.515 32.9882 267.487 28.7759 267.487 23.9629H261.487ZM259.302 33.0566C257.752 35.3806 256.044 36.8562 254.224 37.687L256.716 43.1451C259.747 41.761 262.257 39.4397 264.294 36.3848L259.302 33.0566ZM253.596 42.7586C255.256 44.0868 256.206 45.229 256.682 46.1476L262.009 43.3857C261.009 41.4565 259.375 39.6984 257.344 38.0734L253.596 42.7586ZM256.723 46.2235C257.251 47.1739 257.847 49.066 258.363 52.2129L264.284 51.2422C263.745 47.9554 263.022 45.2069 261.968 43.3097L256.723 46.2235ZM258.379 52.3058C259.62 58.6225 262.252 65.0408 266.192 71.553L271.326 68.447C267.672 62.4084 265.346 56.6451 264.267 51.1493L258.379 52.3058ZM268.759 67H254.046V73H268.759V67ZM256.604 68.4323C253.813 63.8791 251.764 58.4498 250.502 52.0929L244.617 53.2606C245.992 60.1927 248.267 66.3123 251.488 71.5677L256.604 68.4323ZM250.497 52.0649C249.933 49.3581 249.068 46.9533 247.667 45.2399L243.023 49.0394C243.519 49.6463 244.132 50.933 244.623 53.2886L250.497 52.0649ZM247.667 45.2399C245.97 43.1667 243.495 42.3994 240.915 42.3994V48.3994C242.342 48.3994 242.821 48.7923 243.023 49.0394L247.667 45.2399ZM240.915 42.3994H229.445V48.3994H240.915V42.3994ZM226.445 45.3994V70H232.445V45.3994H226.445ZM229.445 67H216.314V73H229.445V67ZM305.683 27.918L303.476 29.9497L303.488 29.9627L303.5 29.9756L305.683 27.918ZM311.932 50.6201V53.6201H314.638L314.917 50.9288L311.932 50.6201ZM280.292 50.6201V47.6201H277.292V50.6201H280.292ZM283.139 58.293L280.91 60.2999L280.922 60.3139L280.935 60.3278L283.139 58.293ZM296.982 59.6377L298.646 62.1338L298.655 62.1282L298.663 62.1225L296.982 59.6377ZM301.016 55.0498L302.016 52.2212L299.489 51.3282L298.318 53.7391L301.016 55.0498ZM311.537 58.7676L314.275 59.9936L315.605 57.0233L312.536 55.939L311.537 58.7676ZM303.785 67.7852L305.466 70.27L305.478 70.2616L305.491 70.253L303.785 67.7852ZM273.885 64.542L271.689 66.5863L271.695 66.593L271.701 66.5996L273.885 64.542ZM280.371 41.998H277.371V44.998H280.371V41.998ZM299.276 41.998V44.998H302.276V41.998H299.276ZM296.824 34.167L294.383 35.9107L294.406 35.9438L294.431 35.9763L296.824 34.167ZM282.902 34.167L280.543 32.3135L280.529 32.3311L280.516 32.3489L282.902 34.167ZM270.477 46.0322C270.477 38.8573 272.462 33.5577 276.123 29.7635L271.805 25.5978C266.816 30.7684 264.477 37.7032 264.477 46.0322H270.477ZM276.123 29.7635C279.866 25.8832 284.432 23.957 290.021 23.957V17.957C282.849 17.957 276.71 20.5133 271.805 25.5978L276.123 29.7635ZM290.021 23.957C295.331 23.957 299.758 25.9106 303.476 29.9497L307.891 25.8863C303.066 20.6441 297.051 17.957 290.021 17.957V23.957ZM303.5 29.9756C307.204 33.9048 309.17 39.1561 309.17 46.0322H315.17C315.17 37.9318 312.812 31.1069 307.867 25.8603L303.5 29.9756ZM309.17 46.0322C309.17 47.4579 309.096 48.8841 308.948 50.3114L314.917 50.9288C315.085 49.2975 315.17 47.6652 315.17 46.0322H309.17ZM311.932 47.6201H280.292V53.6201H311.932V47.6201ZM277.292 50.6201C277.292 54.3192 278.484 57.605 280.91 60.2999L285.369 56.2861C283.998 54.7622 283.292 52.9328 283.292 50.6201H277.292ZM280.935 60.3278C283.488 63.0939 286.896 64.3779 290.812 64.3779V58.3779C288.295 58.3779 286.587 57.6054 285.344 56.2581L280.935 60.3278ZM290.812 64.3779C293.695 64.3779 296.349 63.6654 298.646 62.1338L295.318 57.1415C294.135 57.9303 292.675 58.3779 290.812 58.3779V64.3779ZM298.663 62.1225C300.868 60.6313 302.575 58.7065 303.715 56.3605L298.318 53.7391C297.664 55.0845 296.683 56.2183 295.301 57.1528L298.663 62.1225ZM300.017 57.8784L310.537 61.5962L312.536 55.939L302.016 52.2212L300.017 57.8784ZM308.799 57.5416C307.468 60.5133 305.272 63.1103 302.079 65.3173L305.491 70.253C309.47 67.503 312.442 64.0882 314.275 59.9936L308.799 57.5416ZM302.104 65.3003C299.118 67.3201 295.283 68.4238 290.417 68.4238V74.4238C296.203 74.4238 301.28 73.1018 305.466 70.27L302.104 65.3003ZM290.417 68.4238C284.488 68.4238 279.787 66.4301 276.068 62.4843L271.701 66.5996C276.631 71.8297 282.951 74.4238 290.417 74.4238V68.4238ZM276.08 62.4977C272.441 58.589 270.477 53.2138 270.477 46.0322H264.477C264.477 54.3545 266.785 61.3192 271.689 66.5863L276.08 62.4977ZM280.371 44.998H299.276V38.998H280.371V44.998ZM302.276 41.998C302.276 38.3743 301.296 35.1068 299.217 32.3577L294.431 35.9763C295.622 37.5514 296.276 39.5046 296.276 41.998H302.276ZM299.265 32.4233C297.066 29.3448 293.847 27.8447 290.021 27.8447V33.8447C292.102 33.8447 293.418 34.5595 294.383 35.9107L299.265 32.4233ZM290.021 27.8447C286.166 27.8447 282.895 29.3205 280.543 32.3135L285.261 36.0205C286.39 34.5838 287.865 33.8447 290.021 33.8447V27.8447ZM280.516 32.3489C278.398 35.1287 277.371 38.3908 277.371 41.998H283.371C283.371 39.5935 284.031 37.6349 285.288 35.9851L280.516 32.3489ZM315.713 70H312.713V73H315.713V70ZM315.713 3.23828V0.238281H312.713V3.23828H315.713ZM328.212 3.23828H331.212V0.238281H328.212V3.23828ZM328.212 25.7822H325.212V33.1991L330.368 27.8679L328.212 25.7822ZM353.603 27.6807L351.327 29.6352L351.34 29.6496L351.352 29.6638L353.603 27.6807ZM357.558 57.8975L354.744 56.8583L354.739 56.8706L354.735 56.8829L357.558 57.8975ZM346.326 70L345.223 67.2101L345.195 67.2211L345.167 67.2327L346.326 70ZM327.895 65.333L330.489 63.8266L324.895 54.1919V65.333H327.895ZM327.895 70V73H330.895V70H327.895ZM330.505 56.79L327.947 58.3565L327.958 58.3753L327.97 58.394L330.505 56.79ZM344.032 35.5908L341.473 37.1573L341.48 37.1691L341.488 37.1808L344.032 35.5908ZM318.713 70V3.23828H312.713V70H318.713ZM315.713 6.23828H328.212V0.238281H315.713V6.23828ZM325.212 3.23828V25.7822H331.212V3.23828H325.212ZM330.368 27.8679C332.961 25.1872 335.839 23.957 339.128 23.957V17.957C334.084 17.957 329.685 19.9436 326.055 23.6966L330.368 27.8679ZM339.128 23.957C344.035 23.957 348.035 25.8022 351.327 29.6352L355.879 25.7261C351.472 20.5942 345.822 17.957 339.128 17.957V23.957ZM351.352 29.6638C354.631 33.386 356.457 38.7388 356.457 46.1113H362.457C362.457 37.769 360.38 30.8347 355.854 25.6976L351.352 29.6638ZM356.457 46.1113C356.457 50.2594 355.864 53.8255 354.744 56.8583L360.372 58.9366C361.784 55.1139 362.457 50.8226 362.457 46.1113H356.457ZM354.735 56.8829C353.635 59.9436 352.246 62.1361 350.67 63.6298L354.796 67.9855C357.227 65.6822 359.056 62.6013 360.381 58.9121L354.735 56.8829ZM350.67 63.6298C348.907 65.2993 347.09 66.4718 345.223 67.2101L347.429 72.7899C350.096 71.7352 352.551 70.1128 354.796 67.9855L350.67 63.6298ZM345.167 67.2327C343.253 68.0339 341.326 68.4238 339.365 68.4238V74.4238C342.15 74.4238 344.863 73.8645 347.484 72.7673L345.167 67.2327ZM339.365 68.4238C337.401 68.4238 335.624 67.95 333.978 67.0038L330.988 72.2052C333.561 73.6848 336.372 74.4238 339.365 74.4238V68.4238ZM333.978 67.0038C332.197 65.9794 331.109 64.8939 330.489 63.8266L325.301 66.8394C326.579 69.0417 328.55 70.8038 330.988 72.2052L333.978 67.0038ZM324.895 65.333V70H330.895V65.333H324.895ZM327.895 67H315.713V73H327.895V67ZM325.132 46.1113C325.132 50.9435 325.967 55.1223 327.947 58.3565L333.064 55.2236C331.88 53.2898 331.132 50.3494 331.132 46.1113H325.132ZM327.97 58.394C330.119 61.7903 333.314 63.666 337.308 63.666V57.666C335.502 57.666 334.162 56.9578 333.041 55.1861L327.97 58.394ZM337.308 63.666C341.088 63.666 344.153 61.8793 346.336 58.7405L341.411 55.3142C340.219 57.027 338.907 57.666 337.308 57.666V63.666ZM346.336 58.7405C348.533 55.5822 349.405 51.2183 349.405 46.1113H343.405C343.405 50.7075 342.589 53.6209 341.411 55.3142L346.336 58.7405ZM349.405 46.1113C349.405 41.3295 348.57 37.1912 346.576 34.0008L341.488 37.1808C342.658 39.053 343.405 41.9283 343.405 46.1113H349.405ZM346.59 34.0244C344.493 30.5981 341.308 28.7148 337.308 28.7148V34.7148C339.109 34.7148 340.407 35.4155 341.473 37.1573L346.59 34.0244ZM337.308 28.7148C333.185 28.7148 329.9 30.5988 327.831 34.1648L333.021 37.1751C334.012 35.4676 335.315 34.7148 337.308 34.7148V28.7148ZM327.831 34.1648C325.948 37.411 325.132 41.4678 325.132 46.1113H331.132C331.132 42.1064 331.846 39.2023 333.021 37.1751L327.831 34.1648ZM385.544 60.0332L386.763 62.7746L386.796 62.7599L386.829 62.7444L385.544 60.0332ZM388.55 57.8975L390.613 60.0753L390.643 60.0474L390.672 60.0188L388.55 57.8975ZM391.002 53.3887L393.863 54.2921L393.866 54.2815L393.87 54.2709L391.002 53.3887ZM391.002 38.9922L388.121 39.8264L388.131 39.8611L388.142 39.8956L391.002 38.9922ZM388.55 34.4834L386.429 36.6047L386.456 36.6319L386.484 36.6584L388.55 34.4834ZM385.544 32.3477L384.326 35.0891L384.353 35.1011L384.38 35.1126L385.544 32.3477ZM376.131 35.0371L378.358 37.047L378.37 37.0337L378.382 37.0202L376.131 35.0371ZM361.497 36.9355L364.378 37.7735L364.38 37.7666L364.382 37.7597L361.497 36.9355ZM365.294 28.8672L362.857 27.1185L362.844 27.1361L362.832 27.154L365.294 28.8672ZM372.334 23.0928L371.05 20.3816L371.041 20.386L371.031 20.3905L372.334 23.0928ZM399.783 28.8672L397.32 30.5804L397.332 30.5982L397.345 30.6159L399.783 28.8672ZM403.659 36.9355L400.774 37.7597L400.776 37.7666L400.778 37.7735L403.659 36.9355ZM404.371 52.5186L407.323 53.0486L407.326 53.0357L404.371 52.5186ZM402.235 59.1631L399.493 57.9447L399.487 57.9592L399.481 57.9738L402.235 59.1631ZM398.359 65.333L400.579 67.351L400.594 67.3346L400.608 67.3179L398.359 65.333ZM391.872 69.6836L390.704 66.9207L390.694 66.9248L390.684 66.929L391.872 69.6836ZM366.955 65.5703L364.769 67.6243L364.785 67.6411L364.801 67.6577L366.955 65.5703ZM362.921 59.5586L360.167 60.7479L360.184 60.7861L360.201 60.8238L362.921 59.5586ZM360.786 52.835L357.828 53.3399L357.834 53.3747L357.841 53.4095L360.786 52.835ZM370.204 46.1904C370.204 51.6337 371.192 56.2759 373.88 59.3268L378.382 55.3607C377.168 53.9819 376.204 51.1886 376.204 46.1904H370.204ZM373.88 59.3268C376.251 62.0179 379.179 63.666 382.618 63.666V57.666C381.31 57.666 379.914 57.0993 378.382 55.3607L373.88 59.3268ZM382.618 63.666C384.055 63.666 385.444 63.3606 386.763 62.7746L384.326 57.2918C383.746 57.5496 383.184 57.666 382.618 57.666V63.666ZM386.829 62.7444C388.177 62.1058 389.435 61.1913 390.613 60.0753L386.487 55.7196C385.661 56.5021 384.916 57.0114 384.26 57.322L386.829 62.7444ZM390.672 60.0188C392.139 58.5513 393.15 56.5508 393.863 54.2921L388.142 52.4853C387.589 54.2344 386.965 55.2398 386.429 55.7761L390.672 60.0188ZM393.87 54.2709C394.611 51.8626 394.952 49.1539 394.952 46.1904H388.952C388.952 48.7113 388.66 50.8015 388.135 52.5064L393.87 54.2709ZM394.952 46.1904C394.952 43.1836 394.613 40.4632 393.863 38.0888L388.142 39.8956C388.657 41.529 388.952 43.6074 388.952 46.1904H394.952ZM393.884 38.158C393.217 35.852 392.189 33.8025 390.616 32.3084L386.484 36.6584C387.021 37.1682 387.628 38.1246 388.121 39.8264L393.884 38.158ZM390.672 32.3621C389.474 31.1649 388.159 30.1933 386.709 29.5827L384.38 35.1126C384.934 35.3457 385.622 35.798 386.429 36.6047L390.672 32.3621ZM386.763 29.6062C385.444 29.0203 384.055 28.7148 382.618 28.7148V34.7148C383.184 34.7148 383.746 34.8313 384.326 35.0891L386.763 29.6062ZM382.618 28.7148C379.179 28.7148 376.251 30.3629 373.88 33.054L378.382 37.0202C379.914 35.2816 381.31 34.7148 382.618 34.7148V28.7148ZM373.904 33.0272C371.184 36.0408 370.204 40.7148 370.204 46.1904H376.204C376.204 41.1192 377.176 38.3576 378.358 37.047L373.904 33.0272ZM363.232 46.1904C363.232 43.1812 363.62 40.3802 364.378 37.7735L358.617 36.0976C357.688 39.2917 357.232 42.6606 357.232 46.1904H363.232ZM364.382 37.7597C365.139 35.1115 366.266 32.7245 367.757 30.5804L362.832 27.154C360.948 29.8615 359.544 32.8533 358.613 36.1114L364.382 37.7597ZM367.732 30.6159C369.152 28.637 371.091 27.0228 373.637 25.7951L371.031 20.3905C367.672 22.0104 364.918 24.2459 362.857 27.1185L367.732 30.6159ZM373.619 25.804C376.164 24.5981 379.142 23.957 382.618 23.957V17.957C378.393 17.957 374.516 18.7398 371.05 20.3816L373.619 25.804ZM382.618 23.957C386.094 23.957 389.037 24.5985 391.519 25.7951L394.125 20.3905C390.7 18.7394 386.84 17.957 382.618 17.957V23.957ZM391.519 25.7951C394.059 27.0197 395.959 28.6237 397.32 30.5804L402.245 27.154C400.231 24.2591 397.491 22.0135 394.125 20.3905L391.519 25.7951ZM397.345 30.6159C398.878 32.7534 400.022 35.1285 400.774 37.7597L406.543 36.1114C405.607 32.8364 404.167 29.8325 402.22 27.1185L397.345 30.6159ZM400.778 37.7735C401.536 40.3802 401.924 43.1812 401.924 46.1904H407.924C407.924 42.6606 407.468 39.2917 406.539 36.0976L400.778 37.7735ZM401.924 46.1904C401.924 48.1238 401.755 50.0602 401.415 52.0014L407.326 53.0357C407.724 50.7582 407.924 48.4758 407.924 46.1904H401.924ZM401.418 51.9886C401.1 53.759 400.473 55.741 399.493 57.9447L404.976 60.3815C406.106 57.8391 406.903 55.3914 407.323 53.0485L401.418 51.9886ZM399.481 57.9738C398.597 60.0206 397.471 61.8053 396.109 63.3481L400.608 67.3179C402.411 65.2748 403.869 62.9462 404.989 60.3524L399.481 57.9738ZM396.139 63.315C394.916 64.6602 393.149 65.8862 390.704 66.9207L393.041 72.4465C396.081 71.1606 398.637 69.4863 400.579 67.351L396.139 63.315ZM390.684 66.929C388.434 67.8997 385.765 68.4238 382.618 68.4238V74.4238C386.431 74.4238 389.932 73.7878 393.061 72.4382L390.684 66.929ZM382.618 68.4238C379.513 68.4238 376.853 67.9228 374.584 66.9887L372.3 72.5367C375.41 73.8175 378.867 74.4238 382.618 74.4238V68.4238ZM374.584 66.9887C372.188 66.0019 370.399 64.8129 369.11 63.4829L364.801 67.6577C366.782 69.7027 369.317 71.3087 372.3 72.5367L374.584 66.9887ZM369.142 63.5163C367.736 62.0198 366.568 60.2851 365.641 58.2934L360.201 60.8238C361.384 63.3672 362.905 65.6404 364.769 67.6243L369.142 63.5163ZM365.675 58.3693C364.747 56.2182 364.105 54.1832 363.73 52.2604L357.841 53.4095C358.31 55.811 359.092 58.2584 360.167 60.7479L365.675 58.3693ZM363.743 52.3301C363.403 50.3403 363.232 48.2945 363.232 46.1904H357.232C357.232 48.6215 357.43 51.0054 357.828 53.3399L363.743 52.3301ZM431.012 60.0332L432.23 62.7746L432.263 62.7599L432.296 62.7444L431.012 60.0332ZM434.018 57.8975L436.081 60.0753L436.11 60.0474L436.139 60.0188L434.018 57.8975ZM436.47 53.3887L439.331 54.2921L439.334 54.2815L439.337 54.2709L436.47 53.3887ZM436.47 38.9922L433.588 39.8264L433.598 39.8611L433.609 39.8956L436.47 38.9922ZM434.018 34.4834L431.896 36.6047L431.924 36.6319L431.952 36.6584L434.018 34.4834ZM431.012 32.3477L429.793 35.0891L429.82 35.1011L429.848 35.1126L431.012 32.3477ZM421.599 35.0371L423.826 37.047L423.838 37.0337L423.85 37.0202L421.599 35.0371ZM406.965 36.9355L409.846 37.7735L409.848 37.7666L409.85 37.7597L406.965 36.9355ZM410.762 28.8672L408.324 27.1185L408.312 27.1361L408.299 27.154L410.762 28.8672ZM417.802 23.0928L416.518 20.3816L416.508 20.386L416.499 20.3905L417.802 23.0928ZM445.25 28.8672L442.787 30.5804L442.8 30.5982L442.813 30.6159L445.25 28.8672ZM449.126 36.9355L446.242 37.7597L446.244 37.7666L446.246 37.7735L449.126 36.9355ZM449.838 52.5186L452.791 53.0486L452.793 53.0357L449.838 52.5186ZM447.702 59.1631L444.961 57.9447L444.954 57.9592L444.948 57.9738L447.702 59.1631ZM443.826 65.333L446.046 67.351L446.061 67.3346L446.076 67.3179L443.826 65.333ZM437.34 69.6836L436.171 66.9207L436.161 66.9248L436.152 66.929L437.34 69.6836ZM412.423 65.5703L410.236 67.6243L410.252 67.6411L410.268 67.6577L412.423 65.5703ZM408.389 59.5586L405.635 60.7479L405.651 60.7861L405.669 60.8238L408.389 59.5586ZM406.253 52.835L403.296 53.3399L403.302 53.3747L403.309 53.4095L406.253 52.835ZM415.672 46.1904C415.672 51.6337 416.66 56.2759 419.348 59.3268L423.85 55.3607C422.635 53.9819 421.672 51.1886 421.672 46.1904H415.672ZM419.348 59.3268C421.718 62.0179 424.647 63.666 428.085 63.666V57.666C426.777 57.666 425.382 57.0993 423.85 55.3607L419.348 59.3268ZM428.085 63.666C429.522 63.666 430.912 63.3606 432.23 62.7746L429.793 57.2918C429.213 57.5496 428.652 57.666 428.085 57.666V63.666ZM432.296 62.7444C433.644 62.1058 434.903 61.1913 436.081 60.0753L431.955 55.7196C431.129 56.5021 430.383 57.0114 429.728 57.322L432.296 62.7444ZM436.139 60.0188C437.607 58.5513 438.617 56.5508 439.331 54.2921L433.609 52.4853C433.057 54.2344 432.433 55.2398 431.896 55.7761L436.139 60.0188ZM439.337 54.2709C440.078 51.8626 440.419 49.1539 440.419 46.1904H434.419C434.419 48.7113 434.127 50.8015 433.603 52.5064L439.337 54.2709ZM440.419 46.1904C440.419 43.1836 440.08 40.4632 439.331 38.0888L433.609 39.8956C434.125 41.529 434.419 43.6074 434.419 46.1904H440.419ZM439.352 38.158C438.684 35.852 437.657 33.8025 436.084 32.3084L431.952 36.6584C432.488 37.1682 433.096 38.1246 433.588 39.8264L439.352 38.158ZM436.139 32.3621C434.942 31.1649 433.626 30.1933 432.176 29.5827L429.848 35.1126C430.401 35.3457 431.09 35.798 431.896 36.6047L436.139 32.3621ZM432.23 29.6062C430.912 29.0203 429.522 28.7148 428.085 28.7148V34.7148C428.652 34.7148 429.213 34.8313 429.793 35.0891L432.23 29.6062ZM428.085 28.7148C424.647 28.7148 421.718 30.3629 419.348 33.054L423.85 37.0202C425.382 35.2816 426.777 34.7148 428.085 34.7148V28.7148ZM419.372 33.0272C416.652 36.0408 415.672 40.7148 415.672 46.1904H421.672C421.672 41.1192 422.643 38.3576 423.826 37.047L419.372 33.0272ZM408.699 46.1904C408.699 43.1812 409.087 40.3802 409.846 37.7735L404.084 36.0976C403.155 39.2917 402.699 42.6606 402.699 46.1904H408.699ZM409.85 37.7597C410.606 35.1115 411.733 32.7245 413.225 30.5804L408.299 27.154C406.416 29.8615 405.011 32.8533 404.08 36.1114L409.85 37.7597ZM413.2 30.6159C414.619 28.637 416.558 27.0228 419.105 25.7951L416.499 20.3905C413.139 22.0104 410.385 24.2459 408.324 27.1185L413.2 30.6159ZM419.086 25.804C421.632 24.5981 424.61 23.957 428.085 23.957V17.957C423.861 17.957 419.984 18.7398 416.518 20.3816L419.086 25.804ZM428.085 23.957C431.562 23.957 434.505 24.5985 436.986 25.7951L439.592 20.3905C436.168 18.7394 432.308 17.957 428.085 17.957V23.957ZM436.986 25.7951C439.526 27.0197 441.426 28.6237 442.787 30.5804L447.713 27.154C445.699 24.2591 442.958 22.0135 439.592 20.3905L436.986 25.7951ZM442.813 30.6159C444.346 32.7534 445.49 35.1285 446.242 37.7597L452.011 36.1114C451.075 32.8364 449.635 29.8325 447.688 27.1185L442.813 30.6159ZM446.246 37.7735C447.004 40.3802 447.392 43.1812 447.392 46.1904H453.392C453.392 42.6606 452.936 39.2917 452.007 36.0976L446.246 37.7735ZM447.392 46.1904C447.392 48.1238 447.223 50.0602 446.883 52.0014L452.793 53.0357C453.192 50.7582 453.392 48.4758 453.392 46.1904H447.392ZM446.885 51.9886C446.568 53.759 445.94 55.741 444.961 57.9447L450.444 60.3815C451.574 57.8391 452.37 55.3914 452.791 53.0485L446.885 51.9886ZM444.948 57.9738C444.064 60.0206 442.938 61.8053 441.577 63.3481L446.076 67.3179C447.879 65.2748 449.336 62.9462 450.457 60.3524L444.948 57.9738ZM441.607 63.315C440.384 64.6602 438.616 65.8862 436.171 66.9207L438.509 72.4465C441.548 71.1606 444.105 69.4863 446.046 67.351L441.607 63.315ZM436.152 66.929C433.901 67.8997 431.233 68.4238 428.085 68.4238V74.4238C431.899 74.4238 435.4 73.7878 438.528 72.4382L436.152 66.929ZM428.085 68.4238C424.98 68.4238 422.32 67.9228 420.052 66.9887L417.767 72.5367C420.878 73.8175 424.334 74.4238 428.085 74.4238V68.4238ZM420.052 66.9887C417.655 66.0019 415.866 64.8129 414.578 63.4829L410.268 67.6577C412.249 69.7027 414.785 71.3087 417.767 72.5367L420.052 66.9887ZM414.61 63.5163C413.204 62.0198 412.035 60.2851 411.109 58.2934L405.669 60.8238C406.852 63.3672 408.373 65.6404 410.236 67.6243L414.61 63.5163ZM411.143 58.3693C410.214 56.2182 409.573 54.1832 409.198 52.2604L403.309 53.4095C403.777 55.811 404.56 58.2584 405.635 60.7479L411.143 58.3693ZM409.21 52.3301C408.871 50.3403 408.699 48.2945 408.699 46.1904H402.699C402.699 48.6215 402.897 51.0054 403.296 53.3399L409.21 52.3301ZM450.06 33.0596H447.06V36.0596H450.06V33.0596ZM450.06 22.3809V19.3809H447.06V22.3809H450.06ZM456.862 22.3809V25.3809H459.862V22.3809H456.862ZM456.862 8.85449V5.85449H453.862V8.85449H456.862ZM469.36 8.85449H472.36V5.85449H469.36V8.85449ZM469.36 22.3809H466.36V25.3809H469.36V22.3809ZM479.248 22.3809H482.248V19.3809H479.248V22.3809ZM479.248 33.0596V36.0596H482.248V33.0596H479.248ZM469.36 33.0596V30.0596H466.36V33.0596H469.36ZM479.327 59.2422H482.327V56.2422H479.327V59.2422ZM479.327 70V73H482.327V70H479.327ZM456.862 33.0596H459.862V30.0596H456.862V33.0596ZM453.06 33.0596V22.3809H447.06V33.0596H453.06ZM450.06 25.3809H456.862V19.3809H450.06V25.3809ZM459.862 22.3809V8.85449H453.862V22.3809H459.862ZM456.862 11.8545H469.36V5.85449H456.862V11.8545ZM466.36 8.85449V22.3809H472.36V8.85449H466.36ZM469.36 25.3809H479.248V19.3809H469.36V25.3809ZM476.248 22.3809V33.0596H482.248V22.3809H476.248ZM479.248 30.0596H469.36V36.0596H479.248V30.0596ZM466.36 33.0596V54.0215H472.36V33.0596H466.36ZM466.36 54.0215C466.36 56.1357 466.816 58.2817 468.254 59.9174C469.756 61.627 471.849 62.2422 473.948 62.2422V56.2422C472.989 56.2422 472.788 55.9873 472.761 55.9567C472.669 55.8521 472.36 55.3877 472.36 54.0215H466.36ZM473.948 62.2422H479.327V56.2422H473.948V62.2422ZM476.327 59.2422V70H482.327V59.2422H476.327ZM479.327 67H472.366V73H479.327V67ZM472.366 67C467.649 67 464.665 65.8393 462.843 64.0457C461.03 62.2606 459.862 59.348 459.862 54.7334H453.862C453.862 60.2965 455.278 65.0173 458.633 68.321C461.98 71.6163 466.747 73 472.366 73V67ZM459.862 54.7334V33.0596H453.862V54.7334H459.862ZM456.862 30.0596H450.06V36.0596H456.862V30.0596Z" fill="white" mask="url(#path-1-outside-1_236_2827)"/>
</svg>
