<svg width="70" height="71" viewBox="0 0 70 71" fill="none" xmlns="http://www.w3.org/2000/svg">
<path fill-rule="evenodd" clip-rule="evenodd" d="M25.2789 4.02636C22.7501 4.02448 20.2864 4.82765 18.2445 6.31952C16.2026 7.81139 14.6887 9.91451 13.9219 12.3243C13.1552 14.734 13.1754 17.3253 13.9797 19.7228C14.784 22.1203 16.3307 24.1995 18.3956 25.6593C16.8412 26.7593 15.5736 28.2164 14.6991 29.908C13.8246 31.5995 13.3689 33.4763 13.3702 35.3805C13.3702 39.3939 15.3564 42.9464 18.4014 45.1018C16.7333 46.2826 15.3971 47.8728 14.5215 49.7195C13.6458 51.5661 13.2602 53.6071 13.4016 55.6459C13.5431 57.6848 14.2068 59.6529 15.3291 61.361C16.4513 63.069 17.9943 64.4595 19.8095 65.3987C21.6247 66.3379 23.651 66.794 25.6935 66.7234C27.7361 66.6527 29.726 66.0576 31.472 64.9953C33.2179 63.9329 34.6611 62.4391 35.6626 60.6576C36.6642 58.8761 37.1904 56.8668 37.1906 54.823V44.603C38.4295 45.6067 39.8574 46.3514 41.3895 46.793C42.9216 47.2345 44.5269 47.3638 46.1099 47.1733C47.693 46.9828 49.2217 46.4763 50.6053 45.6839C51.989 44.8915 53.1994 43.8293 54.1648 42.5603C55.1302 41.2913 55.831 39.8414 56.2255 38.2965C56.62 36.7516 56.7003 35.1431 56.4615 33.5666C56.2228 31.9901 55.6699 30.4776 54.8356 29.1188C54.0013 27.76 52.9026 26.5826 51.6047 25.6564C53.6697 24.1966 55.2163 22.1174 56.0206 19.7199C56.8249 17.3224 56.8451 14.7311 56.0784 12.3213C55.3116 9.91159 53.7977 7.80847 51.7558 6.3166C49.714 4.82473 47.2502 4.02157 44.7214 4.02344L25.2789 4.02636ZM32.8127 42.9143H25.2789C24.2896 42.9143 23.3099 42.7194 22.3959 42.3408C21.4818 41.9622 20.6513 41.4073 19.9517 40.7077C19.2522 40.0081 18.6972 39.1776 18.3186 38.2636C17.94 37.3495 17.7452 36.3699 17.7452 35.3805C17.7452 34.3912 17.94 33.4115 18.3186 32.4975C18.6972 31.5834 19.2522 30.7529 19.9517 30.0534C20.6513 29.3538 21.4818 28.7989 22.3959 28.4202C23.3099 28.0416 24.2896 27.8468 25.2789 27.8468H32.8127V42.9143ZM25.2789 23.4718H32.8127V8.40136H25.2789C23.2804 8.40136 21.3638 9.19524 19.9507 10.6084C18.5376 12.0215 17.7437 13.9381 17.7437 15.9366C17.7437 17.935 18.5376 19.8516 19.9507 21.2648C21.3638 22.6779 23.2804 23.4718 25.2789 23.4718ZM52.2581 15.9351C52.2588 17.9322 51.4667 19.8478 50.0556 21.2611C48.6446 22.6743 46.7301 23.4695 44.7331 23.4718H37.1877V8.40136H44.7243C45.7137 8.40136 46.6933 8.59622 47.6074 8.97483C48.5214 9.35344 49.3519 9.90837 50.0515 10.6079C50.7511 11.3075 51.306 12.138 51.6846 13.0521C52.0632 13.9661 52.2581 14.9458 52.2581 15.9351ZM37.1877 35.3718C37.19 33.3767 37.9835 31.4641 39.3942 30.0534C40.8049 28.6426 42.7176 27.8491 44.7127 27.8468H44.7302C46.2194 27.8485 47.6748 28.2916 48.9124 29.1201C50.15 29.9486 51.1142 31.1253 51.6834 32.5015C52.2525 33.8778 52.4009 35.3918 52.11 36.8524C51.819 38.313 51.1017 39.6546 50.0486 40.7077C48.9955 41.7608 47.6539 42.4781 46.1933 42.7691C44.7327 43.0601 43.2187 42.9116 41.8424 42.3425C40.4661 41.7733 39.2894 40.8091 38.461 39.5715C37.6325 38.3339 37.1894 36.8786 37.1877 35.3893V35.3718ZM25.2789 47.2893C23.789 47.2893 22.3325 47.731 21.0937 48.5587C19.8548 49.3864 18.8892 50.5629 18.3189 51.9393C17.7486 53.3157 17.5992 54.8304 17.8897 56.2917C18.1802 57.753 18.8974 59.0954 19.9507 60.1492C21.004 61.2029 22.3461 61.9206 23.8074 62.2117C25.2686 62.5027 26.7833 62.3539 28.1599 61.7841C29.5366 61.2144 30.7134 60.2492 31.5416 59.0107C32.3697 57.7721 32.8121 56.3158 32.8127 54.8259V47.2893H25.2789Z" fill="black"/>
</svg>
