<svg width="54" height="55" viewBox="0 0 54 55" fill="none" xmlns="http://www.w3.org/2000/svg">
<path fill-rule="evenodd" clip-rule="evenodd" d="M54 27.3828C54 42.3003 41.9175 54.3828 27 54.3828C12.0825 54.3828 0 42.3003 0 27.3828C0 12.4653 12.0825 0.382812 27 0.382812C41.9175 0.382812 54 12.4653 54 27.3828ZM21.465 50.3666V45.3378C15.0525 46.7756 13.6688 42.4623 13.6688 42.4623C12.636 39.6678 11.1105 38.9523 11.1105 38.9523C9.01125 37.4741 11.2624 37.4741 11.2624 37.4741C13.5911 37.6327 14.8061 39.9513 14.8061 39.9513C16.8683 43.6301 20.2061 42.5872 21.5224 41.9493C21.7147 40.3901 22.3256 39.3134 22.9736 38.7127C17.8436 38.1524 12.4774 36.0768 12.4774 26.7989C12.4774 24.1631 13.392 22.0064 14.8466 20.3189C14.6171 19.7216 13.8139 17.2443 15.0761 13.9402C15.0761 13.9402 17.0235 13.3023 21.4211 16.4174C23.2999 15.8914 25.2413 15.6223 27.1924 15.6176C29.1398 15.6176 31.1411 15.8977 32.9636 16.4174C37.3511 13.3023 39.3086 13.9402 39.3086 13.9402C40.5709 17.2544 39.7676 19.7452 39.5381 20.3189C41.0299 21.9963 41.9074 24.1664 41.9074 26.7989C41.9074 36.0802 36.5074 38.1052 31.3774 38.7127C32.2211 39.4721 33.0683 40.9098 33.0683 43.2014V50.2552C38.1101 48.9216 42.569 45.9571 45.7497 41.8241C48.9303 37.691 50.654 32.6217 50.652 27.4064C50.652 14.3452 40.0883 3.78144 27.027 3.78144C13.9658 3.78144 3.402 14.3452 3.402 27.4064C3.402 38.5439 11.1308 47.8927 21.492 50.3902L21.465 50.3666Z" fill="black"/>
</svg>
