<svg width="50" height="50" viewBox="0 0 50 50" fill="none" xmlns="http://www.w3.org/2000/svg">
<path d="M8.33366 41.6673C7.18783 41.6673 6.20727 41.2597 5.39199 40.4444C4.57671 39.6291 4.16838 38.6479 4.16699 37.5007V12.5007C4.16699 11.3548 4.57533 10.3743 5.39199 9.55898C6.20866 8.74371 7.18921 8.33537 8.33366 8.33398H41.667C42.8128 8.33398 43.7941 8.74232 44.6107 9.55898C45.4274 10.3757 45.8351 11.3562 45.8337 12.5007V37.5007C45.8337 38.6465 45.426 39.6277 44.6107 40.4444C43.7955 41.2611 42.8142 41.6687 41.667 41.6673H8.33366ZM25.0003 27.084L41.667 16.6673V12.5007L25.0003 22.9173L8.33366 12.5007V16.6673L25.0003 27.084Z" fill="white"/>
</svg>
