<svg width="70" height="71" viewBox="0 0 70 71" fill="none" xmlns="http://www.w3.org/2000/svg">
<path fill-rule="evenodd" clip-rule="evenodd" d="M48.2 14.7698L48.6222 15.0299L53.0222 17.9632C53.5788 18.3346 54.0443 18.8268 54.384 19.4032C54.7238 19.9796 54.929 20.6253 54.9844 21.2921L55 21.661V49.5254C54.9999 50.5855 54.621 51.6106 53.9315 52.4158C53.242 53.221 52.2874 53.7533 51.24 53.9165L50.8956 53.9565L25.2756 55.9276C24.5936 55.9801 23.9088 55.8744 23.2743 55.6188C22.6399 55.3633 22.073 54.9648 21.6178 54.4543L21.38 54.1632L16.3333 47.4343C15.5664 46.4114 15.1097 45.1895 15.0178 43.9143L15 43.4343V20.3076C15.0001 19.2476 15.379 18.2224 16.0685 17.4172C16.758 16.612 17.7126 16.0798 18.76 15.9165L19.1044 15.8765L44.4111 13.9298C45.7287 13.8284 47.0467 14.1207 48.1978 14.7698H48.2ZM50.5556 25.0943L26.1111 26.9743V51.4054L50.5556 49.5254V25.0943ZM43.8889 28.2499C44.4783 28.2499 45.0435 28.484 45.4602 28.9007C45.877 29.3175 46.1111 29.8827 46.1111 30.4721V46.0276C46.1111 46.617 45.877 47.1822 45.4602 47.599C45.0435 48.0157 44.4783 48.2499 43.8889 48.2499H42.7778C42.3981 48.25 42.0248 48.1528 41.6933 47.9676C41.3619 47.7824 41.0834 47.5154 40.8844 47.1921L35 37.6276V47.1387C35 47.7281 34.7659 48.2933 34.3491 48.7101C33.9324 49.1268 33.3671 49.361 32.7778 49.361C32.1884 49.361 31.6232 49.1268 31.2064 48.7101C30.7897 48.2933 30.5556 47.7281 30.5556 47.1387V31.5832C30.5556 30.9938 30.7897 30.4286 31.2064 30.0118C31.6232 29.5951 32.1884 29.361 32.7778 29.361H33.8889C34.2686 29.3609 34.6419 29.458 34.9734 29.6432C35.3048 29.8284 35.5833 30.0954 35.7822 30.4187L41.6667 39.981V30.4721C41.6667 29.8827 41.9008 29.3175 42.3175 28.9007C42.7343 28.484 43.2995 28.2499 43.8889 28.2499ZM44.7511 18.361L22.2111 20.0943L24.7378 22.621L49.1778 20.7432L46.1556 18.7276C45.7416 18.4516 45.2471 18.3225 44.7511 18.361Z" fill="black"/>
</svg>
