<svg width="658" height="92" viewBox="0 0 658 92" fill="none" xmlns="http://www.w3.org/2000/svg">
<mask id="path-1-outside-1_248_1217" maskUnits="userSpaceOnUse" x="0" y="0" width="658" height="92" fill="black">
<rect fill="white" width="658" height="92"/>
<path d="M3.97441 70V5.21582H29.8406C36.907 5.21582 42.3914 7.08789 46.2937 10.832C50.1961 14.5234 52.1473 19.4277 52.1473 25.5449C52.1473 31.8203 50.117 36.8037 46.0564 40.4951C42.0486 44.1338 36.7488 45.9531 30.157 45.9531H17.1053V70H3.97441ZM17.1053 34.6416H28.3377C31.5545 34.6416 34.0594 33.8506 35.8523 32.2686C37.6453 30.6865 38.5418 28.4453 38.5418 25.5449C38.5418 19.5332 35.1668 16.5273 28.4168 16.5273H17.1053V34.6416ZM62.8893 46.1904C62.8893 51.4111 63.8648 55.1289 65.816 57.3438C67.7672 59.5586 69.9293 60.666 72.3023 60.666C73.3043 60.666 74.2799 60.4551 75.2291 60.0332C76.2311 59.5586 77.233 58.8467 78.235 57.8975C79.2369 56.8955 80.0543 55.3926 80.6871 53.3887C81.3199 51.332 81.6363 48.9326 81.6363 46.1904C81.6363 43.3955 81.3199 40.9961 80.6871 38.9922C80.107 36.9883 79.2896 35.4854 78.235 34.4834C77.233 33.4814 76.2311 32.7695 75.2291 32.3477C74.2799 31.9258 73.3043 31.7148 72.3023 31.7148C69.9293 31.7148 67.7672 32.8223 65.816 35.0371C63.8648 37.1992 62.8893 40.917 62.8893 46.1904ZM49.9166 46.1904C49.9166 42.9209 50.3385 39.8359 51.1822 36.9355C52.026 33.9824 53.2916 31.293 54.9791 28.8672C56.7193 26.4414 59.066 24.5166 62.0191 23.0928C65.025 21.6689 68.4527 20.957 72.3023 20.957C76.152 20.957 79.5533 21.6689 82.5064 23.0928C85.4596 24.5166 87.7799 26.4414 89.4674 28.8672C91.2076 31.293 92.4996 33.9824 93.3434 36.9355C94.1871 39.8359 94.609 42.9209 94.609 46.1904C94.609 48.2998 94.4244 50.4092 94.0553 52.5186C93.6861 54.5752 92.9742 56.79 91.9195 59.1631C90.9176 61.4834 89.6256 63.54 88.0436 65.333C86.4615 67.0732 84.2994 68.5234 81.5572 69.6836C78.8678 70.8438 75.7828 71.4238 72.3023 71.4238C68.8746 71.4238 65.816 70.8701 63.1266 69.7627C60.4371 68.6553 58.275 67.2578 56.6402 65.5703C55.0055 63.8301 53.6607 61.8262 52.6061 59.5586C51.6041 57.2383 50.8922 54.9971 50.4703 52.835C50.1012 50.6729 49.9166 48.458 49.9166 46.1904ZM97.8363 70V22.3809H109.939V26.415C110.941 24.9385 112.365 23.6729 114.21 22.6182C116.109 21.5107 118.218 20.957 120.538 20.957C123.281 20.957 125.232 21.2471 126.392 21.8271V33.376C124.546 32.7959 122.595 32.5059 120.538 32.5059C117.163 32.5059 114.632 33.8242 112.945 36.4609C111.31 39.0977 110.493 42.6309 110.493 47.0605V70H97.8363ZM124.32 33.0596V22.3809H131.122V8.85449H143.62V22.3809H153.508V33.0596H143.62V54.0215C143.62 57.502 145.15 59.2422 148.208 59.2422H153.587V70H146.626C136.29 70 131.122 64.9111 131.122 54.7334V33.0596H124.32ZM153.729 33.0596V22.3809H160.532V18.4258C160.532 13.416 161.771 9.64551 164.25 7.11426C166.729 4.53027 170.288 3.23828 174.929 3.23828H183.313V14.0752H176.906C175.588 14.0752 174.639 14.4707 174.059 15.2617C173.479 16.0527 173.188 17.3711 173.188 19.2168V22.3809H182.285V33.0596H173.188V70H160.532V33.0596H153.729ZM194.372 46.1904C194.372 51.4111 195.347 55.1289 197.299 57.3438C199.25 59.5586 201.412 60.666 203.785 60.666C204.787 60.666 205.762 60.4551 206.712 60.0332C207.714 59.5586 208.716 58.8467 209.718 57.8975C210.72 56.8955 211.537 55.3926 212.17 53.3887C212.803 51.332 213.119 48.9326 213.119 46.1904C213.119 43.3955 212.803 40.9961 212.17 38.9922C211.59 36.9883 210.772 35.4854 209.718 34.4834C208.716 33.4814 207.714 32.7695 206.712 32.3477C205.762 31.9258 204.787 31.7148 203.785 31.7148C201.412 31.7148 199.25 32.8223 197.299 35.0371C195.347 37.1992 194.372 40.917 194.372 46.1904ZM181.399 46.1904C181.399 42.9209 181.821 39.8359 182.665 36.9355C183.509 33.9824 184.774 31.293 186.462 28.8672C188.202 26.4414 190.549 24.5166 193.502 23.0928C196.508 21.6689 199.935 20.957 203.785 20.957C207.635 20.957 211.036 21.6689 213.989 23.0928C216.942 24.5166 219.262 26.4414 220.95 28.8672C222.69 31.293 223.982 33.9824 224.826 36.9355C225.67 39.8359 226.092 42.9209 226.092 46.1904C226.092 48.2998 225.907 50.4092 225.538 52.5186C225.169 54.5752 224.457 56.79 223.402 59.1631C222.4 61.4834 221.108 63.54 219.526 65.333C217.944 67.0732 215.782 68.5234 213.04 69.6836C210.35 70.8438 207.265 71.4238 203.785 71.4238C200.357 71.4238 197.299 70.8701 194.609 69.7627C191.92 68.6553 189.758 67.2578 188.123 65.5703C186.488 63.8301 185.143 61.8262 184.089 59.5586C183.087 57.2383 182.375 54.9971 181.953 52.835C181.584 50.6729 181.399 48.458 181.399 46.1904ZM230.11 70V3.23828H242.766V70H230.11ZM249.711 17.3184V4.3457H262.447V17.3184H249.711ZM249.87 70V22.3809H262.368V70H249.87ZM279.2 46.1904C279.2 51.4111 280.176 55.1289 282.127 57.3438C284.078 59.5586 286.24 60.666 288.613 60.666C289.615 60.666 290.591 60.4551 291.54 60.0332C292.542 59.5586 293.544 58.8467 294.546 57.8975C295.548 56.8955 296.365 55.3926 296.998 53.3887C297.631 51.332 297.947 48.9326 297.947 46.1904C297.947 43.3955 297.631 40.9961 296.998 38.9922C296.418 36.9883 295.601 35.4854 294.546 34.4834C293.544 33.4814 292.542 32.7695 291.54 32.3477C290.591 31.9258 289.615 31.7148 288.613 31.7148C286.24 31.7148 284.078 32.8223 282.127 35.0371C280.176 37.1992 279.2 40.917 279.2 46.1904ZM266.228 46.1904C266.228 42.9209 266.65 39.8359 267.493 36.9355C268.337 33.9824 269.603 31.293 271.29 28.8672C273.03 26.4414 275.377 24.5166 278.33 23.0928C281.336 21.6689 284.764 20.957 288.613 20.957C292.463 20.957 295.864 21.6689 298.818 23.0928C301.771 24.5166 304.091 26.4414 305.779 28.8672C307.519 31.293 308.811 33.9824 309.654 36.9355C310.498 39.8359 310.92 42.9209 310.92 46.1904C310.92 48.2998 310.736 50.4092 310.366 52.5186C309.997 54.5752 309.285 56.79 308.231 59.1631C307.229 61.4834 305.937 63.54 304.355 65.333C302.773 67.0732 300.611 68.5234 297.868 69.6836C295.179 70.8438 292.094 71.4238 288.613 71.4238C285.186 71.4238 282.127 70.8701 279.438 69.7627C276.748 68.6553 274.586 67.2578 272.951 65.5703C271.317 63.8301 269.972 61.8262 268.917 59.5586C267.915 57.2383 267.203 54.9971 266.781 52.835C266.412 50.6729 266.228 48.458 266.228 46.1904ZM326.313 33.0596V22.3809H333.116V8.85449H345.614V22.3809H355.502V33.0596H345.614V54.0215C345.614 57.502 347.143 59.2422 350.202 59.2422H355.581V70H348.62C338.284 70 333.116 64.9111 333.116 54.7334V33.0596H326.313ZM369.012 55.9199C369.012 57.3438 369.566 58.5566 370.673 59.5586C371.781 60.5078 373.205 60.9824 374.945 60.9824C377.74 60.9824 380.113 60.0332 382.064 58.1348C384.015 56.2363 384.991 53.7051 384.991 50.541V47.377C381.932 48.1152 379.506 48.6162 377.713 48.8799C371.913 49.7236 369.012 52.0703 369.012 55.9199ZM356.198 57.0273C356.198 52.7031 357.859 49.1172 361.181 46.2695C364.504 43.4219 369.381 41.5234 375.815 40.5742C381.088 39.7305 384.147 39.1768 384.991 38.9131V36.4609C384.991 34.5098 384.305 33.0859 382.934 32.1895C381.616 31.2402 379.876 30.7656 377.713 30.7656C372.756 30.7656 368.485 32.7168 364.899 36.6191L357.463 30.2119C362.631 24.042 369.329 20.957 377.555 20.957C384.833 20.957 390.001 22.6973 393.059 26.1777C396.118 29.6582 397.647 34.5889 397.647 40.9697V70H385.386V65.0957C384.437 66.8887 382.855 68.3916 380.64 69.6045C378.425 70.8174 375.894 71.4238 373.046 71.4238C367.879 71.4238 363.765 70.1055 360.707 67.4688C357.701 64.7793 356.198 61.2988 356.198 57.0273ZM402.694 70V22.3809H414.796V26.8896H414.875C415.403 26.1514 416.062 25.4131 416.853 24.6748C417.697 23.8838 419.015 23.0664 420.808 22.2227C422.601 21.3789 424.447 20.957 426.345 20.957C431.302 20.957 435.02 23.3301 437.498 28.0762C440.504 23.3301 445.092 20.957 451.262 20.957C454.11 20.957 456.536 21.458 458.539 22.46C460.596 23.4619 462.178 24.8857 463.286 26.7314C464.393 28.5244 465.184 30.4756 465.659 32.585C466.133 34.6416 466.371 36.9355 466.371 39.4668V70H453.714V39.7041C453.714 37.0146 453.319 35.0107 452.528 33.6924C451.737 32.374 450.418 31.7148 448.573 31.7148C446.147 31.7148 444.222 32.7432 442.798 34.7998C441.427 36.8037 440.742 39.2031 440.742 41.998V70H428.244V39.3877C428.244 37.0146 427.795 35.1426 426.899 33.7715C426.055 32.4004 424.789 31.7148 423.102 31.7148C420.518 31.7148 418.567 32.6641 417.248 34.5625C415.983 36.4082 415.35 38.8867 415.35 41.998V70H402.694ZM484.311 46.1113C484.311 50.5938 485.102 54.1533 486.684 56.79C488.319 59.374 490.586 60.666 493.487 60.666C496.281 60.666 498.496 59.4268 500.131 56.9482C501.819 54.417 502.662 50.8047 502.662 46.1113C502.662 41.5762 501.845 38.043 500.21 35.5117C498.628 32.9805 496.387 31.7148 493.487 31.7148C490.481 31.7148 488.187 33.0332 486.605 35.6699C485.075 38.3066 484.311 41.7871 484.311 46.1113ZM471.892 88.668V22.3809H483.994V27.0479C486.895 22.9873 490.665 20.957 495.306 20.957C501.159 20.957 506.011 23.1982 509.861 27.6807C513.71 32.1631 515.635 38.3066 515.635 46.1113C515.635 50.541 515.002 54.4697 513.737 57.8975C512.471 61.2725 510.81 63.9092 508.753 65.8076C506.696 67.7061 504.534 69.1035 502.267 70C499.999 70.9492 497.679 71.4238 495.306 71.4238C492.511 71.4238 490.217 70.8701 488.424 69.7627C486.631 68.6553 485.313 67.416 484.469 66.0449V88.668H471.892ZM519.653 70V3.23828H532.31V70H519.653ZM549.063 55.9199C549.063 57.3438 549.617 58.5566 550.724 59.5586C551.832 60.5078 553.256 60.9824 554.996 60.9824C557.791 60.9824 560.164 60.0332 562.115 58.1348C564.066 56.2363 565.042 53.7051 565.042 50.541V47.377C561.983 48.1152 559.557 48.6162 557.764 48.8799C551.964 49.7236 549.063 52.0703 549.063 55.9199ZM536.249 57.0273C536.249 52.7031 537.91 49.1172 541.232 46.2695C544.555 43.4219 549.432 41.5234 555.866 40.5742C561.139 39.7305 564.198 39.1768 565.042 38.9131V36.4609C565.042 34.5098 564.356 33.0859 562.985 32.1895C561.667 31.2402 559.927 30.7656 557.764 30.7656C552.807 30.7656 548.536 32.7168 544.95 36.6191L537.514 30.2119C542.682 24.042 549.38 20.957 557.606 20.957C564.884 20.957 570.052 22.6973 573.11 26.1777C576.169 29.6582 577.698 34.5889 577.698 40.9697V70H565.437V65.0957C564.488 66.8887 562.906 68.3916 560.691 69.6045C558.476 70.8174 555.945 71.4238 553.097 71.4238C547.93 71.4238 543.816 70.1055 540.758 67.4688C537.752 64.7793 536.249 61.2988 536.249 57.0273ZM579.185 33.0596V22.3809H585.988V8.85449H598.486V22.3809H608.374V33.0596H598.486V54.0215C598.486 57.502 600.015 59.2422 603.074 59.2422H608.453V70H601.492C591.156 70 585.988 64.9111 585.988 54.7334V33.0596H579.185ZM609.149 46.0322C609.149 38.2803 611.311 32.1631 615.635 27.6807C619.959 23.1982 625.312 20.957 631.693 20.957C637.863 20.957 643.083 23.2773 647.355 27.918C651.679 32.5059 653.841 38.5439 653.841 46.0322C653.841 47.5615 653.762 49.0908 653.604 50.6201H621.963C621.963 53.626 622.912 56.1836 624.811 58.293C626.709 60.3496 629.267 61.3779 632.484 61.3779C634.857 61.3779 636.913 60.7979 638.654 59.6377C640.447 58.4248 641.791 56.8955 642.688 55.0498L653.208 58.7676C651.626 62.3008 649.042 65.3066 645.456 67.7852C641.87 70.2109 637.414 71.4238 632.088 71.4238C625.391 71.4238 619.88 69.1299 615.556 64.542C611.285 59.9541 609.149 53.7842 609.149 46.0322ZM622.042 41.998H640.948C640.948 38.9395 640.13 36.3291 638.495 34.167C636.913 31.9521 634.646 30.8447 631.693 30.8447C628.687 30.8447 626.314 31.9521 624.574 34.167C622.886 36.3818 622.042 38.9922 622.042 41.998Z"/>
</mask>
<path d="M3.97441 70H0.974415V73H3.97441V70ZM3.97441 5.21582V2.21582H0.974415V5.21582H3.97441ZM46.2937 10.832L44.2168 12.9968L44.2244 13.0041L44.2322 13.0114L46.2937 10.832ZM46.0564 40.4951L48.073 42.7163L48.0745 42.7149L46.0564 40.4951ZM17.1053 45.9531V42.9531H14.1053V45.9531H17.1053ZM17.1053 70V73H20.1053V70H17.1053ZM17.1053 34.6416H14.1053V37.6416H17.1053V34.6416ZM17.1053 16.5273V13.5273H14.1053V16.5273H17.1053ZM6.97441 70V5.21582H0.974415V70H6.97441ZM3.97441 8.21582H29.8406V2.21582H3.97441V8.21582ZM29.8406 8.21582C36.3783 8.21582 41.0281 9.93738 44.2168 12.9968L48.3707 8.66728C43.7547 4.2384 37.4357 2.21582 29.8406 2.21582V8.21582ZM44.2322 13.0114C47.45 16.0553 49.1473 20.1267 49.1473 25.5449H55.1473C55.1473 18.7288 52.9422 12.9915 48.3553 8.65263L44.2322 13.0114ZM49.1473 25.5449C49.1473 31.1089 47.3809 35.2367 44.0384 38.2753L48.0745 42.7149C52.8531 38.3708 55.1473 32.5317 55.1473 25.5449H49.1473ZM44.0399 38.274C40.6985 41.3076 36.1737 42.9531 30.157 42.9531V48.9531C37.324 48.9531 43.3988 46.96 48.073 42.7163L44.0399 38.274ZM30.157 42.9531H17.1053V48.9531H30.157V42.9531ZM14.1053 45.9531V70H20.1053V45.9531H14.1053ZM17.1053 67H3.97441V73H17.1053V67ZM17.1053 37.6416H28.3377V31.6416H17.1053V37.6416ZM28.3377 37.6416C32.0303 37.6416 35.331 36.7294 37.8372 34.5181L33.8675 30.019C32.7877 30.9718 31.0787 31.6416 28.3377 31.6416V37.6416ZM37.8372 34.5181C40.4115 32.2466 41.5418 29.1065 41.5418 25.5449H35.5418C35.5418 27.7841 34.8791 29.1264 33.8675 30.019L37.8372 34.5181ZM41.5418 25.5449C41.5418 21.9809 40.5254 18.7854 38.0058 16.5414C35.5524 14.3564 32.1741 13.5273 28.4168 13.5273V19.5273C31.4095 19.5273 33.0937 20.2012 34.0153 21.022C34.8707 21.7839 35.5418 23.0973 35.5418 25.5449H41.5418ZM28.4168 13.5273H17.1053V19.5273H28.4168V13.5273ZM14.1053 16.5273V34.6416H20.1053V16.5273H14.1053ZM75.2291 60.0332L76.4475 62.7746L76.4806 62.7599L76.5134 62.7444L75.2291 60.0332ZM78.235 57.8975L80.2982 60.0753L80.3276 60.0474L80.3563 60.0188L78.235 57.8975ZM80.6871 53.3887L83.5479 54.2921L83.5512 54.2815L83.5545 54.2709L80.6871 53.3887ZM80.6871 38.9922L77.8054 39.8264L77.8155 39.8611L77.8264 39.8956L80.6871 38.9922ZM78.235 34.4834L76.1136 36.6047L76.1408 36.6319L76.1687 36.6584L78.235 34.4834ZM75.2291 32.3477L74.0107 35.0891L74.0377 35.1011L74.0649 35.1126L75.2291 32.3477ZM65.816 35.0371L68.0432 37.047L68.0552 37.0337L68.0671 37.0202L65.816 35.0371ZM51.1822 36.9355L54.0628 37.7735L54.0648 37.7666L54.0668 37.7597L51.1822 36.9355ZM54.9791 28.8672L52.5415 27.1185L52.5288 27.1361L52.5164 27.154L54.9791 28.8672ZM62.0191 23.0928L60.7349 20.3816L60.7255 20.386L60.7162 20.3905L62.0191 23.0928ZM89.4674 28.8672L87.0047 30.5804L87.0171 30.5982L87.0298 30.6159L89.4674 28.8672ZM93.3434 36.9355L90.4588 37.7597L90.4608 37.7666L90.4628 37.7735L93.3434 36.9355ZM94.0553 52.5186L97.0081 53.0486L97.0104 53.0357L94.0553 52.5186ZM91.9195 59.1631L89.1781 57.9447L89.1716 57.9592L89.1653 57.9738L91.9195 59.1631ZM88.0436 65.333L90.2634 67.351L90.2783 67.3346L90.2931 67.3179L88.0436 65.333ZM81.5572 69.6836L80.3883 66.9207L80.3786 66.9248L80.369 66.929L81.5572 69.6836ZM56.6402 65.5703L54.4537 67.6243L54.4695 67.6411L54.4855 67.6577L56.6402 65.5703ZM52.6061 59.5586L49.8519 60.7479L49.8684 60.7861L49.8859 60.8238L52.6061 59.5586ZM50.4703 52.835L47.5131 53.3399L47.5191 53.3747L47.5258 53.4095L50.4703 52.835ZM59.8893 46.1904C59.8893 51.6337 60.8772 56.2759 63.5649 59.3268L68.0671 55.3607C66.8525 53.9819 65.8893 51.1886 65.8893 46.1904H59.8893ZM63.5649 59.3268C65.9356 62.0179 68.8642 63.666 72.3023 63.666V57.666C70.9944 57.666 69.5987 57.0993 68.0671 55.3607L63.5649 59.3268ZM72.3023 63.666C73.7396 63.666 75.1292 63.3606 76.4475 62.7746L74.0107 57.2918C73.4306 57.5496 72.869 57.666 72.3023 57.666V63.666ZM76.5134 62.7444C77.8616 62.1058 79.1202 61.1913 80.2982 60.0753L76.1717 55.7196C75.3458 56.5021 74.6005 57.0114 73.9448 57.322L76.5134 62.7444ZM80.3563 60.0188C81.8238 58.5513 82.8346 56.5508 83.5479 54.2921L77.8264 52.4853C77.274 54.2344 76.65 55.2398 76.1136 55.7761L80.3563 60.0188ZM83.5545 54.2709C84.2955 51.8626 84.6363 49.1539 84.6363 46.1904H78.6363C78.6363 48.7113 78.3444 50.8015 77.8198 52.5064L83.5545 54.2709ZM84.6363 46.1904C84.6363 43.1836 84.2977 40.4632 83.5479 38.0888L77.8264 39.8956C78.3422 41.529 78.6363 43.6074 78.6363 46.1904H84.6363ZM83.5688 38.158C82.9013 35.852 81.874 33.8025 80.3012 32.3084L76.1687 36.6584C76.7053 37.1682 77.3128 38.1246 77.8054 39.8264L83.5688 38.158ZM80.3563 32.3621C79.1591 31.1649 77.8434 30.1933 76.3933 29.5827L74.0649 35.1126C74.6187 35.3457 75.3069 35.798 76.1136 36.6047L80.3563 32.3621ZM76.4475 29.6062C75.1292 29.0203 73.7396 28.7148 72.3023 28.7148V34.7148C72.869 34.7148 73.4306 34.8313 74.0107 35.0891L76.4475 29.6062ZM72.3023 28.7148C68.8642 28.7148 65.9356 30.3629 63.5649 33.054L68.0671 37.0202C69.5987 35.2816 70.9944 34.7148 72.3023 34.7148V28.7148ZM63.5888 33.0272C60.8692 36.0408 59.8893 40.7148 59.8893 46.1904H65.8893C65.8893 41.1192 66.8605 38.3576 68.0432 37.047L63.5888 33.0272ZM52.9166 46.1904C52.9166 43.1812 53.3045 40.3802 54.0628 37.7735L48.3016 36.0976C47.3724 39.2917 46.9166 42.6606 46.9166 46.1904H52.9166ZM54.0668 37.7597C54.8234 35.1115 55.9503 32.7245 57.4418 30.5804L52.5164 27.154C50.6329 29.8615 49.2285 32.8533 48.2977 36.1114L54.0668 37.7597ZM57.4167 30.6159C58.8364 28.637 60.7756 27.0228 63.322 25.7951L60.7162 20.3905C57.3565 22.0104 54.6023 24.2459 52.5415 27.1185L57.4167 30.6159ZM63.3034 25.804C65.8493 24.5981 68.8272 23.957 72.3023 23.957V17.957C68.0783 17.957 64.2007 18.7398 60.7349 20.3816L63.3034 25.804ZM72.3023 23.957C75.7789 23.957 78.7218 24.5985 81.2036 25.7951L83.8093 20.3905C80.3849 18.7394 76.525 17.957 72.3023 17.957V23.957ZM81.2036 25.7951C83.7434 27.0197 85.6435 28.6237 87.0047 30.5804L91.9301 27.154C89.9163 24.2591 87.1757 22.0135 83.8093 20.3905L81.2036 25.7951ZM87.0298 30.6159C88.5632 32.7534 89.707 35.1285 90.4588 37.7597L96.2279 36.1114C95.2922 32.8364 93.852 29.8325 91.905 27.1185L87.0298 30.6159ZM90.4628 37.7735C91.2211 40.3802 91.609 43.1812 91.609 46.1904H97.609C97.609 42.6606 97.1531 39.2917 96.2239 36.0976L90.4628 37.7735ZM91.609 46.1904C91.609 48.1238 91.4399 50.0602 91.1002 52.0014L97.0104 53.0357C97.4089 50.7582 97.609 48.4758 97.609 46.1904H91.609ZM91.1025 51.9886C90.7847 53.759 90.1575 55.741 89.1781 57.9447L94.661 60.3815C95.7909 57.8391 96.5876 55.3914 97.0081 53.0485L91.1025 51.9886ZM89.1653 57.9738C88.2815 60.0206 87.1554 61.8053 85.794 63.3481L90.2931 67.3179C92.0958 65.2748 93.5537 62.9462 94.6737 60.3524L89.1653 57.9738ZM85.8237 63.315C84.6008 64.6602 82.8334 65.8862 80.3883 66.9207L82.7262 72.4465C85.7654 71.1606 88.3222 69.4863 90.2634 67.351L85.8237 63.315ZM80.369 66.929C78.1185 67.8997 75.4498 68.4238 72.3023 68.4238V74.4238C76.1158 74.4238 79.6171 73.7878 82.7455 72.4382L80.369 66.929ZM72.3023 68.4238C69.1977 68.4238 66.5373 67.9228 64.2688 66.9887L61.9843 72.5367C65.0947 73.8175 68.5516 74.4238 72.3023 74.4238V68.4238ZM64.2688 66.9887C61.8723 66.0019 60.0834 64.8129 58.795 63.4829L54.4855 67.6577C56.4666 69.7027 59.0019 71.3087 61.9843 72.5367L64.2688 66.9887ZM58.8268 63.5163C57.421 62.0198 56.2526 60.2851 55.3262 58.2934L49.8859 60.8238C51.0689 63.3672 52.59 65.6404 54.4537 67.6243L58.8268 63.5163ZM55.3602 58.3693C54.4314 56.2182 53.79 54.1832 53.4148 52.2604L47.5258 53.4095C47.9944 55.811 48.7768 58.2584 49.8519 60.7479L55.3602 58.3693ZM53.4275 52.3301C53.0878 50.3403 52.9166 48.2945 52.9166 46.1904H46.9166C46.9166 48.6215 47.1145 51.0054 47.5131 53.3399L53.4275 52.3301ZM97.8363 70H94.8363V73H97.8363V70ZM97.8363 22.3809V19.3809H94.8363V22.3809H97.8363ZM109.939 22.3809H112.939V19.3809H109.939V22.3809ZM109.939 26.415H106.939V36.1789L112.421 28.0995L109.939 26.415ZM114.21 22.6182L115.699 25.2229L115.71 25.2162L115.722 25.2095L114.21 22.6182ZM126.392 21.8271H129.392V19.973L127.734 19.1439L126.392 21.8271ZM126.392 33.376L125.493 36.238L129.392 37.4635V33.376H126.392ZM112.945 36.4609L110.418 34.8438L110.406 34.8619L110.395 34.8801L112.945 36.4609ZM110.493 70V73H113.493V70H110.493ZM100.836 70V22.3809H94.8363V70H100.836ZM97.8363 25.3809H109.939V19.3809H97.8363V25.3809ZM106.939 22.3809V26.415H112.939V22.3809H106.939ZM112.421 28.0995C113.122 27.0672 114.175 26.0936 115.699 25.2229L112.722 20.0134C110.554 21.2521 108.76 22.8097 107.456 24.7305L112.421 28.0995ZM115.722 25.2095C117.136 24.3848 118.719 23.957 120.538 23.957V17.957C117.718 17.957 115.082 18.6367 112.699 20.0268L115.722 25.2095ZM120.538 23.957C123.223 23.957 124.561 24.2657 125.05 24.5104L127.734 19.1439C125.903 18.2284 123.339 17.957 120.538 17.957V23.957ZM123.392 21.8271V33.376H129.392V21.8271H123.392ZM127.291 30.514C125.137 29.8368 122.881 29.5059 120.538 29.5059V35.5059C122.309 35.5059 123.956 35.755 125.493 36.238L127.291 30.514ZM120.538 29.5059C116.236 29.5059 112.706 31.268 110.418 34.8438L115.472 38.0781C116.558 36.3805 118.091 35.5059 120.538 35.5059V29.5059ZM110.395 34.8801C108.366 38.1532 107.493 42.2991 107.493 47.0605H113.493C113.493 42.9626 114.254 40.0421 115.494 38.0418L110.395 34.8801ZM107.493 47.0605V70H113.493V47.0605H107.493ZM110.493 67H97.8363V73H110.493V67ZM124.32 33.0596H121.32V36.0596H124.32V33.0596ZM124.32 22.3809V19.3809H121.32V22.3809H124.32ZM131.122 22.3809V25.3809H134.122V22.3809H131.122ZM131.122 8.85449V5.85449H128.122V8.85449H131.122ZM143.62 8.85449H146.62V5.85449H143.62V8.85449ZM143.62 22.3809H140.62V25.3809H143.62V22.3809ZM153.508 22.3809H156.508V19.3809H153.508V22.3809ZM153.508 33.0596V36.0596H156.508V33.0596H153.508ZM143.62 33.0596V30.0596H140.62V33.0596H143.62ZM153.587 59.2422H156.587V56.2422H153.587V59.2422ZM153.587 70V73H156.587V70H153.587ZM131.122 33.0596H134.122V30.0596H131.122V33.0596ZM127.32 33.0596V22.3809H121.32V33.0596H127.32ZM124.32 25.3809H131.122V19.3809H124.32V25.3809ZM134.122 22.3809V8.85449H128.122V22.3809H134.122ZM131.122 11.8545H143.62V5.85449H131.122V11.8545ZM140.62 8.85449V22.3809H146.62V8.85449H140.62ZM143.62 25.3809H153.508V19.3809H143.62V25.3809ZM150.508 22.3809V33.0596H156.508V22.3809H150.508ZM153.508 30.0596H143.62V36.0596H153.508V30.0596ZM140.62 33.0596V54.0215H146.62V33.0596H140.62ZM140.62 54.0215C140.62 56.1357 141.076 58.2817 142.514 59.9174C144.016 61.627 146.109 62.2422 148.208 62.2422V56.2422C147.249 56.2422 147.048 55.9873 147.021 55.9567C146.929 55.8521 146.62 55.3877 146.62 54.0215H140.62ZM148.208 62.2422H153.587V56.2422H148.208V62.2422ZM150.587 59.2422V70H156.587V59.2422H150.587ZM153.587 67H146.626V73H153.587V67ZM146.626 67C141.909 67 138.925 65.8393 137.103 64.0457C135.29 62.2606 134.122 59.348 134.122 54.7334H128.122C128.122 60.2965 129.538 65.0173 132.893 68.321C136.24 71.6163 141.007 73 146.626 73V67ZM134.122 54.7334V33.0596H128.122V54.7334H134.122ZM131.122 30.0596H124.32V36.0596H131.122V30.0596ZM153.729 33.0596H150.729V36.0596H153.729V33.0596ZM153.729 22.3809V19.3809H150.729V22.3809H153.729ZM160.532 22.3809V25.3809H163.532V22.3809H160.532ZM164.25 7.11426L166.394 9.21313L166.404 9.20209L166.415 9.19093L164.25 7.11426ZM183.313 3.23828H186.313V0.238281H183.313V3.23828ZM183.313 14.0752V17.0752H186.313V14.0752H183.313ZM173.188 22.3809H170.188V25.3809H173.188V22.3809ZM182.285 22.3809H185.285V19.3809H182.285V22.3809ZM182.285 33.0596V36.0596H185.285V33.0596H182.285ZM173.188 33.0596V30.0596H170.188V33.0596H173.188ZM173.188 70V73H176.188V70H173.188ZM160.532 70H157.532V73H160.532V70ZM160.532 33.0596H163.532V30.0596H160.532V33.0596ZM156.729 33.0596V22.3809H150.729V33.0596H156.729ZM153.729 25.3809H160.532V19.3809H153.729V25.3809ZM163.532 22.3809V18.4258H157.532V22.3809H163.532ZM163.532 18.4258C163.532 13.8732 164.657 10.9866 166.394 9.21313L162.106 5.01538C158.886 8.30441 157.532 12.9588 157.532 18.4258H163.532ZM166.415 9.19093C168.173 7.35802 170.851 6.23828 174.929 6.23828V0.238281C169.725 0.238281 165.284 1.70253 162.085 5.03758L166.415 9.19093ZM174.929 6.23828H183.313V0.238281H174.929V6.23828ZM180.313 3.23828V14.0752H186.313V3.23828H180.313ZM183.313 11.0752H176.906V17.0752H183.313V11.0752ZM176.906 11.0752C174.989 11.0752 172.967 11.6775 171.639 13.4876L176.478 17.0358C176.46 17.0597 176.434 17.0881 176.402 17.1129C176.371 17.1371 176.352 17.1442 176.359 17.1411C176.381 17.132 176.536 17.0752 176.906 17.0752V11.0752ZM171.639 13.4876C170.472 15.0798 170.188 17.2165 170.188 19.2168H176.188C176.188 18.4376 176.251 17.8747 176.336 17.4883C176.423 17.0932 176.509 16.9931 176.478 17.0358L171.639 13.4876ZM170.188 19.2168V22.3809H176.188V19.2168H170.188ZM173.188 25.3809H182.285V19.3809H173.188V25.3809ZM179.285 22.3809V33.0596H185.285V22.3809H179.285ZM182.285 30.0596H173.188V36.0596H182.285V30.0596ZM170.188 33.0596V70H176.188V33.0596H170.188ZM173.188 67H160.532V73H173.188V67ZM163.532 70V33.0596H157.532V70H163.532ZM160.532 30.0596H153.729V36.0596H160.532V30.0596ZM206.712 60.0332L207.93 62.7746L207.963 62.7599L207.996 62.7444L206.712 60.0332ZM209.718 57.8975L211.781 60.0753L211.81 60.0474L211.839 60.0188L209.718 57.8975ZM212.17 53.3887L215.03 54.2921L215.034 54.2815L215.037 54.2709L212.17 53.3887ZM212.17 38.9922L209.288 39.8264L209.298 39.8611L209.309 39.8956L212.17 38.9922ZM209.718 34.4834L207.596 36.6047L207.623 36.6319L207.651 36.6584L209.718 34.4834ZM206.712 32.3477L205.493 35.0891L205.52 35.1011L205.548 35.1126L206.712 32.3477ZM197.299 35.0371L199.526 37.047L199.538 37.0337L199.55 37.0202L197.299 35.0371ZM182.665 36.9355L185.545 37.7735L185.547 37.7666L185.549 37.7597L182.665 36.9355ZM186.462 28.8672L184.024 27.1185L184.011 27.1361L183.999 27.154L186.462 28.8672ZM193.502 23.0928L192.217 20.3816L192.208 20.386L192.199 20.3905L193.502 23.0928ZM220.95 28.8672L218.487 30.5804L218.5 30.5982L218.512 30.6159L220.95 28.8672ZM224.826 36.9355L221.941 37.7597L221.943 37.7666L221.945 37.7735L224.826 36.9355ZM225.538 52.5186L228.491 53.0486L228.493 53.0357L225.538 52.5186ZM223.402 59.1631L220.661 57.9447L220.654 57.9592L220.648 57.9738L223.402 59.1631ZM219.526 65.333L221.746 67.351L221.761 67.3346L221.776 67.3179L219.526 65.333ZM213.04 69.6836L211.871 66.9207L211.861 66.9248L211.852 66.929L213.04 69.6836ZM188.123 65.5703L185.936 67.6243L185.952 67.6411L185.968 67.6577L188.123 65.5703ZM184.089 59.5586L181.334 60.7479L181.351 60.7861L181.368 60.8238L184.089 59.5586ZM181.953 52.835L178.996 53.3399L179.002 53.3747L179.008 53.4095L181.953 52.835ZM191.372 46.1904C191.372 51.6337 192.36 56.2759 195.048 59.3268L199.55 55.3607C198.335 53.9819 197.372 51.1886 197.372 46.1904H191.372ZM195.048 59.3268C197.418 62.0179 200.347 63.666 203.785 63.666V57.666C202.477 57.666 201.081 57.0993 199.55 55.3607L195.048 59.3268ZM203.785 63.666C205.222 63.666 206.612 63.3606 207.93 62.7746L205.493 57.2918C204.913 57.5496 204.352 57.666 203.785 57.666V63.666ZM207.996 62.7444C209.344 62.1058 210.603 61.1913 211.781 60.0753L207.654 55.7196C206.828 56.5021 206.083 57.0114 205.427 57.322L207.996 62.7444ZM211.839 60.0188C213.306 58.5513 214.317 56.5508 215.03 54.2921L209.309 52.4853C208.757 54.2344 208.133 55.2398 207.596 55.7761L211.839 60.0188ZM215.037 54.2709C215.778 51.8626 216.119 49.1539 216.119 46.1904H210.119C210.119 48.7113 209.827 50.8015 209.302 52.5064L215.037 54.2709ZM216.119 46.1904C216.119 43.1836 215.78 40.4632 215.03 38.0888L209.309 39.8956C209.825 41.529 210.119 43.6074 210.119 46.1904H216.119ZM215.051 38.158C214.384 35.852 213.357 33.8025 211.784 32.3084L207.651 36.6584C208.188 37.1682 208.795 38.1246 209.288 39.8264L215.051 38.158ZM211.839 32.3621C210.642 31.1649 209.326 30.1933 207.876 29.5827L205.548 35.1126C206.101 35.3457 206.789 35.798 207.596 36.6047L211.839 32.3621ZM207.93 29.6062C206.612 29.0203 205.222 28.7148 203.785 28.7148V34.7148C204.352 34.7148 204.913 34.8313 205.493 35.0891L207.93 29.6062ZM203.785 28.7148C200.347 28.7148 197.418 30.3629 195.048 33.054L199.55 37.0202C201.081 35.2816 202.477 34.7148 203.785 34.7148V28.7148ZM195.071 33.0272C192.352 36.0408 191.372 40.7148 191.372 46.1904H197.372C197.372 41.1192 198.343 38.3576 199.526 37.047L195.071 33.0272ZM184.399 46.1904C184.399 43.1812 184.787 40.3802 185.545 37.7735L179.784 36.0976C178.855 39.2917 178.399 42.6606 178.399 46.1904H184.399ZM185.549 37.7597C186.306 35.1115 187.433 32.7245 188.924 30.5804L183.999 27.154C182.116 29.8615 180.711 32.8533 179.78 36.1114L185.549 37.7597ZM188.899 30.6159C190.319 28.637 192.258 27.0228 194.805 25.7951L192.199 20.3905C188.839 22.0104 186.085 24.2459 184.024 27.1185L188.899 30.6159ZM194.786 25.804C197.332 24.5981 200.31 23.957 203.785 23.957V17.957C199.561 17.957 195.683 18.7398 192.217 20.3816L194.786 25.804ZM203.785 23.957C207.262 23.957 210.204 24.5985 212.686 25.7951L215.292 20.3905C211.867 18.7394 208.008 17.957 203.785 17.957V23.957ZM212.686 25.7951C215.226 27.0197 217.126 28.6237 218.487 30.5804L223.413 27.154C221.399 24.2591 218.658 22.0135 215.292 20.3905L212.686 25.7951ZM218.512 30.6159C220.046 32.7534 221.19 35.1285 221.941 37.7597L227.711 36.1114C226.775 32.8364 225.335 29.8325 223.388 27.1185L218.512 30.6159ZM221.945 37.7735C222.704 40.3802 223.092 43.1812 223.092 46.1904H229.092C229.092 42.6606 228.636 39.2917 227.707 36.0976L221.945 37.7735ZM223.092 46.1904C223.092 48.1238 222.923 50.0602 222.583 52.0014L228.493 53.0357C228.892 50.7582 229.092 48.4758 229.092 46.1904H223.092ZM222.585 51.9886C222.267 53.759 221.64 55.741 220.661 57.9447L226.144 60.3815C227.274 57.8391 228.07 55.3914 228.491 53.0485L222.585 51.9886ZM220.648 57.9738C219.764 60.0206 218.638 61.8053 217.277 63.3481L221.776 67.3179C223.578 65.2748 225.036 62.9462 226.156 60.3524L220.648 57.9738ZM217.306 63.315C216.083 64.6602 214.316 65.8862 211.871 66.9207L214.209 72.4465C217.248 71.1606 219.805 69.4863 221.746 67.351L217.306 63.315ZM211.852 66.929C209.601 67.8997 206.932 68.4238 203.785 68.4238V74.4238C207.598 74.4238 211.1 73.7878 214.228 72.4382L211.852 66.929ZM203.785 68.4238C200.68 68.4238 198.02 67.9228 195.751 66.9887L193.467 72.5367C196.577 73.8175 200.034 74.4238 203.785 74.4238V68.4238ZM195.751 66.9887C193.355 66.0019 191.566 64.8129 190.278 63.4829L185.968 67.6577C187.949 69.7027 190.484 71.3087 193.467 72.5367L195.751 66.9887ZM190.309 63.5163C188.904 62.0198 187.735 60.2851 186.809 58.2934L181.368 60.8238C182.551 63.3672 184.073 65.6404 185.936 67.6243L190.309 63.5163ZM186.843 58.3693C185.914 56.2182 185.273 54.1832 184.897 52.2604L179.008 53.4095C179.477 55.811 180.259 58.2584 181.334 60.7479L186.843 58.3693ZM184.91 52.3301C184.57 50.3403 184.399 48.2945 184.399 46.1904H178.399C178.399 48.6215 178.597 51.0054 178.996 53.3399L184.91 52.3301ZM230.11 70H227.11V73H230.11V70ZM230.11 3.23828V0.238281H227.11V3.23828H230.11ZM242.766 3.23828H245.766V0.238281H242.766V3.23828ZM242.766 70V73H245.766V70H242.766ZM233.11 70V3.23828H227.11V70H233.11ZM230.11 6.23828H242.766V0.238281H230.11V6.23828ZM239.766 3.23828V70H245.766V3.23828H239.766ZM242.766 67H230.11V73H242.766V67ZM249.711 17.3184H246.711V20.3184H249.711V17.3184ZM249.711 4.3457V1.3457H246.711V4.3457H249.711ZM262.447 4.3457H265.447V1.3457H262.447V4.3457ZM262.447 17.3184V20.3184H265.447V17.3184H262.447ZM249.87 70H246.87V73H249.87V70ZM249.87 22.3809V19.3809H246.87V22.3809H249.87ZM262.368 22.3809H265.368V19.3809H262.368V22.3809ZM262.368 70V73H265.368V70H262.368ZM252.711 17.3184V4.3457H246.711V17.3184H252.711ZM249.711 7.3457H262.447V1.3457H249.711V7.3457ZM259.447 4.3457V17.3184H265.447V4.3457H259.447ZM262.447 14.3184H249.711V20.3184H262.447V14.3184ZM252.87 70V22.3809H246.87V70H252.87ZM249.87 25.3809H262.368V19.3809H249.87V25.3809ZM259.368 22.3809V70H265.368V22.3809H259.368ZM262.368 67H249.87V73H262.368V67ZM291.54 60.0332L292.759 62.7746L292.792 62.7599L292.824 62.7444L291.54 60.0332ZM294.546 57.8975L296.609 60.0753L296.639 60.0474L296.667 60.0188L294.546 57.8975ZM296.998 53.3887L299.859 54.2921L299.862 54.2815L299.866 54.2709L296.998 53.3887ZM296.998 38.9922L294.117 39.8264L294.127 39.8611L294.137 39.8956L296.998 38.9922ZM294.546 34.4834L292.425 36.6047L292.452 36.6319L292.48 36.6584L294.546 34.4834ZM291.54 32.3477L290.322 35.0891L290.349 35.1011L290.376 35.1126L291.54 32.3477ZM282.127 35.0371L284.354 37.047L284.366 37.0337L284.378 37.0202L282.127 35.0371ZM267.493 36.9355L270.374 37.7735L270.376 37.7666L270.378 37.7597L267.493 36.9355ZM271.29 28.8672L268.853 27.1185L268.84 27.1361L268.828 27.154L271.29 28.8672ZM278.33 23.0928L277.046 20.3816L277.037 20.386L277.027 20.3905L278.33 23.0928ZM305.779 28.8672L303.316 30.5804L303.328 30.5982L303.341 30.6159L305.779 28.8672ZM309.654 36.9355L306.77 37.7597L306.772 37.7666L306.774 37.7735L309.654 36.9355ZM310.366 52.5186L313.319 53.0486L313.321 53.0357L310.366 52.5186ZM308.231 59.1631L305.489 57.9447L305.483 57.9592L305.476 57.9738L308.231 59.1631ZM304.355 65.333L306.574 67.351L306.589 67.3346L306.604 67.3179L304.355 65.333ZM297.868 69.6836L296.699 66.9207L296.69 66.9248L296.68 66.929L297.868 69.6836ZM272.951 65.5703L270.765 67.6243L270.781 67.6411L270.797 67.6577L272.951 65.5703ZM268.917 59.5586L266.163 60.7479L266.179 60.7861L266.197 60.8238L268.917 59.5586ZM266.781 52.835L263.824 53.3399L263.83 53.3747L263.837 53.4095L266.781 52.835ZM276.2 46.1904C276.2 51.6337 277.188 56.2759 279.876 59.3268L284.378 55.3607C283.164 53.9819 282.2 51.1886 282.2 46.1904H276.2ZM279.876 59.3268C282.247 62.0179 285.175 63.666 288.613 63.666V57.666C287.306 57.666 285.91 57.0993 284.378 55.3607L279.876 59.3268ZM288.613 63.666C290.051 63.666 291.44 63.3606 292.759 62.7746L290.322 57.2918C289.742 57.5496 289.18 57.666 288.613 57.666V63.666ZM292.824 62.7444C294.173 62.1058 295.431 61.1913 296.609 60.0753L292.483 55.7196C291.657 56.5021 290.912 57.0114 290.256 57.322L292.824 62.7444ZM296.667 60.0188C298.135 58.5513 299.146 56.5508 299.859 54.2921L294.137 52.4853C293.585 54.2344 292.961 55.2398 292.425 55.7761L296.667 60.0188ZM299.866 54.2709C300.607 51.8626 300.947 49.1539 300.947 46.1904H294.947C294.947 48.7113 294.655 50.8015 294.131 52.5064L299.866 54.2709ZM300.947 46.1904C300.947 43.1836 300.609 40.4632 299.859 38.0888L294.137 39.8956C294.653 41.529 294.947 43.6074 294.947 46.1904H300.947ZM299.88 38.158C299.212 35.852 298.185 33.8025 296.612 32.3084L292.48 36.6584C293.016 37.1682 293.624 38.1246 294.117 39.8264L299.88 38.158ZM296.667 32.3621C295.47 31.1649 294.155 30.1933 292.704 29.5827L290.376 35.1126C290.93 35.3457 291.618 35.798 292.425 36.6047L296.667 32.3621ZM292.759 29.6062C291.44 29.0203 290.051 28.7148 288.613 28.7148V34.7148C289.18 34.7148 289.742 34.8313 290.322 35.0891L292.759 29.6062ZM288.613 28.7148C285.175 28.7148 282.247 30.3629 279.876 33.054L284.378 37.0202C285.91 35.2816 287.306 34.7148 288.613 34.7148V28.7148ZM279.9 33.0272C277.18 36.0408 276.2 40.7148 276.2 46.1904H282.2C282.2 41.1192 283.172 38.3576 284.354 37.047L279.9 33.0272ZM269.228 46.1904C269.228 43.1812 269.616 40.3802 270.374 37.7735L264.613 36.0976C263.684 39.2917 263.228 42.6606 263.228 46.1904H269.228ZM270.378 37.7597C271.135 35.1115 272.261 32.7245 273.753 30.5804L268.828 27.154C266.944 29.8615 265.54 32.8533 264.609 36.1114L270.378 37.7597ZM273.728 30.6159C275.148 28.637 277.087 27.0228 279.633 25.7951L277.027 20.3905C273.668 22.0104 270.913 24.2459 268.853 27.1185L273.728 30.6159ZM279.615 25.804C282.16 24.5981 285.138 23.957 288.613 23.957V17.957C284.389 17.957 280.512 18.7398 277.046 20.3816L279.615 25.804ZM288.613 23.957C292.09 23.957 295.033 24.5985 297.515 25.7951L300.12 20.3905C296.696 18.7394 292.836 17.957 288.613 17.957V23.957ZM297.515 25.7951C300.055 27.0197 301.955 28.6237 303.316 30.5804L308.241 27.154C306.227 24.2591 303.487 22.0135 300.12 20.3905L297.515 25.7951ZM303.341 30.6159C304.874 32.7534 306.018 35.1285 306.77 37.7597L312.539 36.1114C311.603 32.8364 310.163 29.8325 308.216 27.1185L303.341 30.6159ZM306.774 37.7735C307.532 40.3802 307.92 43.1812 307.92 46.1904H313.92C313.92 42.6606 313.464 39.2917 312.535 36.0976L306.774 37.7735ZM307.92 46.1904C307.92 48.1238 307.751 50.0602 307.411 52.0014L313.321 53.0357C313.72 50.7582 313.92 48.4758 313.92 46.1904H307.92ZM307.414 51.9886C307.096 53.759 306.469 55.741 305.489 57.9447L310.972 60.3815C312.102 57.8391 312.899 55.3914 313.319 53.0485L307.414 51.9886ZM305.476 57.9738C304.593 60.0206 303.466 61.8053 302.105 63.3481L306.604 67.3179C308.407 65.2748 309.865 62.9462 310.985 60.3524L305.476 57.9738ZM302.135 63.315C300.912 64.6602 299.145 65.8862 296.699 66.9207L299.037 72.4465C302.077 71.1606 304.633 69.4863 306.574 67.351L302.135 63.315ZM296.68 66.929C294.43 67.8997 291.761 68.4238 288.613 68.4238V74.4238C292.427 74.4238 295.928 73.7878 299.057 72.4382L296.68 66.929ZM288.613 68.4238C285.509 68.4238 282.848 67.9228 280.58 66.9887L278.295 72.5367C281.406 73.8175 284.863 74.4238 288.613 74.4238V68.4238ZM280.58 66.9887C278.183 66.0019 276.395 64.8129 275.106 63.4829L270.797 67.6577C272.778 69.7027 275.313 71.3087 278.295 72.5367L280.58 66.9887ZM275.138 63.5163C273.732 62.0198 272.564 60.2851 271.637 58.2934L266.197 60.8238C267.38 63.3672 268.901 65.6404 270.765 67.6243L275.138 63.5163ZM271.671 58.3693C270.742 56.2182 270.101 54.1832 269.726 52.2604L263.837 53.4095C264.306 55.811 265.088 58.2584 266.163 60.7479L271.671 58.3693ZM269.739 52.3301C269.399 50.3403 269.228 48.2945 269.228 46.1904H263.228C263.228 48.6215 263.426 51.0054 263.824 53.3399L269.739 52.3301ZM326.313 33.0596H323.313V36.0596H326.313V33.0596ZM326.313 22.3809V19.3809H323.313V22.3809H326.313ZM333.116 22.3809V25.3809H336.116V22.3809H333.116ZM333.116 8.85449V5.85449H330.116V8.85449H333.116ZM345.614 8.85449H348.614V5.85449H345.614V8.85449ZM345.614 22.3809H342.614V25.3809H345.614V22.3809ZM355.502 22.3809H358.502V19.3809H355.502V22.3809ZM355.502 33.0596V36.0596H358.502V33.0596H355.502ZM345.614 33.0596V30.0596H342.614V33.0596H345.614ZM355.581 59.2422H358.581V56.2422H355.581V59.2422ZM355.581 70V73H358.581V70H355.581ZM333.116 33.0596H336.116V30.0596H333.116V33.0596ZM329.313 33.0596V22.3809H323.313V33.0596H329.313ZM326.313 25.3809H333.116V19.3809H326.313V25.3809ZM336.116 22.3809V8.85449H330.116V22.3809H336.116ZM333.116 11.8545H345.614V5.85449H333.116V11.8545ZM342.614 8.85449V22.3809H348.614V8.85449H342.614ZM345.614 25.3809H355.502V19.3809H345.614V25.3809ZM352.502 22.3809V33.0596H358.502V22.3809H352.502ZM355.502 30.0596H345.614V36.0596H355.502V30.0596ZM342.614 33.0596V54.0215H348.614V33.0596H342.614ZM342.614 54.0215C342.614 56.1357 343.07 58.2817 344.508 59.9174C346.01 61.627 348.102 62.2422 350.202 62.2422V56.2422C349.243 56.2422 349.041 55.9873 349.015 55.9567C348.923 55.8521 348.614 55.3877 348.614 54.0215H342.614ZM350.202 62.2422H355.581V56.2422H350.202V62.2422ZM352.581 59.2422V70H358.581V59.2422H352.581ZM355.581 67H348.62V73H355.581V67ZM348.62 67C343.903 67 340.918 65.8393 339.097 64.0457C337.284 62.2606 336.116 59.348 336.116 54.7334H330.116C330.116 60.2965 331.532 65.0173 334.887 68.321C338.234 71.6163 343.001 73 348.62 73V67ZM336.116 54.7334V33.0596H330.116V54.7334H336.116ZM333.116 30.0596H326.313V36.0596H333.116V30.0596ZM370.673 59.5586L368.661 61.7832L368.691 61.8102L368.721 61.8364L370.673 59.5586ZM384.991 47.377H387.991V43.5667L384.287 44.4607L384.991 47.377ZM377.713 48.8799L378.145 51.8486L378.15 51.848L377.713 48.8799ZM375.815 40.5742L376.253 43.5421L376.271 43.5394L376.289 43.5365L375.815 40.5742ZM384.991 38.9131L385.886 41.7765L387.991 41.1187V38.9131H384.991ZM382.934 32.1895L381.181 34.6241L381.236 34.6635L381.292 34.7004L382.934 32.1895ZM364.899 36.6191L362.941 38.8918L365.142 40.7886L367.108 38.649L364.899 36.6191ZM357.463 30.2119L355.164 28.2856L353.264 30.5534L355.505 32.4846L357.463 30.2119ZM397.647 70V73H400.647V70H397.647ZM385.386 70H382.386V73H385.386V70ZM385.386 65.0957H388.386L382.735 63.692L385.386 65.0957ZM360.707 67.4688L358.706 69.7045L358.727 69.7229L358.748 69.741L360.707 67.4688ZM366.012 55.9199C366.012 58.2372 366.959 60.244 368.661 61.7832L372.686 57.334C372.173 56.8693 372.012 56.4503 372.012 55.9199H366.012ZM368.721 61.8364C370.473 63.338 372.634 63.9824 374.945 63.9824V57.9824C373.776 57.9824 373.089 57.6776 372.626 57.2808L368.721 61.8364ZM374.945 63.9824C378.498 63.9824 381.628 62.7443 384.156 60.2849L379.972 55.9846C378.597 57.3221 376.982 57.9824 374.945 57.9824V63.9824ZM384.156 60.2849C386.783 57.7294 387.991 54.3723 387.991 50.541H381.991C381.991 53.0379 381.248 54.7432 379.972 55.9846L384.156 60.2849ZM387.991 50.541V47.377H381.991V50.541H387.991ZM384.287 44.4607C381.263 45.1907 378.938 45.6675 377.277 45.9118L378.15 51.848C380.075 51.5649 382.602 51.0398 385.695 50.2932L384.287 44.4607ZM377.282 45.9111C374.125 46.3702 371.344 47.2869 369.301 48.9405C367.121 50.7041 366.012 53.123 366.012 55.9199H372.012C372.012 54.8673 372.354 54.188 373.075 53.6049C373.931 52.9118 375.501 52.2333 378.145 51.8486L377.282 45.9111ZM359.198 57.0273C359.198 53.5908 360.467 50.8328 363.134 48.5473L359.229 43.9918C355.251 47.4015 353.198 51.8154 353.198 57.0273H359.198ZM363.134 48.5473C365.865 46.2057 370.124 44.4463 376.253 43.5421L375.377 37.6063C368.639 38.6006 363.142 40.638 359.229 43.9918L363.134 48.5473ZM376.289 43.5365C378.934 43.1134 381.04 42.7603 382.598 42.4781C384.076 42.2107 385.25 41.9751 385.886 41.7765L384.096 36.0496C383.888 36.1148 383.111 36.2878 381.53 36.5741C380.03 36.8456 377.97 37.1913 375.341 37.6119L376.289 43.5365ZM387.991 38.9131V36.4609H381.991V38.9131H387.991ZM387.991 36.4609C387.991 33.7208 386.966 31.2413 384.576 29.6785L381.292 34.7004C381.645 34.9306 381.991 35.2987 381.991 36.4609H387.991ZM384.687 29.7548C382.713 28.3337 380.299 27.7656 377.713 27.7656V33.7656C379.452 33.7656 380.518 34.1468 381.181 34.6241L384.687 29.7548ZM377.713 27.7656C371.854 27.7656 366.8 30.1167 362.69 34.5893L367.108 38.649C370.17 35.3169 373.659 33.7656 377.713 33.7656V27.7656ZM366.857 34.3465L359.422 27.9393L355.505 32.4846L362.941 38.8918L366.857 34.3465ZM359.763 32.1383C364.347 26.6661 370.194 23.957 377.555 23.957V17.957C368.464 17.957 360.916 21.4179 355.164 28.2856L359.763 32.1383ZM377.555 23.957C384.457 23.957 388.574 25.6188 390.806 28.1581L395.313 24.1974C391.427 19.7757 385.208 17.957 377.555 17.957V23.957ZM390.806 28.1581C393.228 30.9145 394.647 35.0423 394.647 40.9697H400.647C400.647 34.1354 399.008 28.4019 395.313 24.1974L390.806 28.1581ZM394.647 40.9697V70H400.647V40.9697H394.647ZM397.647 67H385.386V73H397.647V67ZM388.386 70V65.0957H382.386V70H388.386ZM382.735 63.692C382.121 64.8521 381.025 65.9731 379.199 66.9732L382.081 72.2358C384.685 70.8101 386.753 68.9252 388.038 66.4994L382.735 63.692ZM379.199 66.9732C377.48 67.9146 375.456 68.4238 373.046 68.4238V74.4238C376.332 74.4238 379.371 73.7201 382.081 72.2358L379.199 66.9732ZM373.046 68.4238C368.391 68.4238 365.041 67.2446 362.665 65.1965L358.748 69.741C362.489 72.9663 367.366 74.4238 373.046 74.4238V68.4238ZM362.707 65.233C360.378 63.1496 359.198 60.5023 359.198 57.0273H353.198C353.198 62.0954 355.023 66.409 358.706 69.7045L362.707 65.233ZM402.694 70H399.694V73H402.694V70ZM402.694 22.3809V19.3809H399.694V22.3809H402.694ZM414.796 22.3809H417.796V19.3809H414.796V22.3809ZM414.796 26.8896H411.796V29.8896H414.796V26.8896ZM414.875 26.8896V29.8896H416.419L417.317 28.6334L414.875 26.8896ZM416.853 24.6748L418.9 26.868L418.905 26.8634L416.853 24.6748ZM437.498 28.0762L434.839 29.4649L437.248 34.078L440.033 29.6813L437.498 28.0762ZM458.539 22.46L457.198 25.1432L457.212 25.1502L457.226 25.1569L458.539 22.46ZM463.286 26.7314L460.713 28.2749L460.723 28.2915L460.733 28.3079L463.286 26.7314ZM465.659 32.585L462.732 33.2435L462.734 33.2515L462.735 33.2595L465.659 32.585ZM466.371 70V73H469.371V70H466.371ZM453.714 70H450.714V73H453.714V70ZM442.798 34.7998L440.332 33.0922L440.327 33.0989L440.322 33.1058L442.798 34.7998ZM440.742 70V73H443.742V70H440.742ZM428.244 70H425.244V73H428.244V70ZM426.899 33.7715L424.344 35.3438L424.365 35.3788L424.388 35.4132L426.899 33.7715ZM417.248 34.5625L414.784 32.8513L414.779 32.8586L414.774 32.8659L417.248 34.5625ZM415.35 70V73H418.35V70H415.35ZM405.694 70V22.3809H399.694V70H405.694ZM402.694 25.3809H414.796V19.3809H402.694V25.3809ZM411.796 22.3809V26.8896H417.796V22.3809H411.796ZM414.796 29.8896H414.875V23.8896H414.796V29.8896ZM417.317 28.6334C417.708 28.0852 418.228 27.4951 418.9 26.868L414.806 22.4816C413.896 23.331 413.097 24.2176 412.434 25.1459L417.317 28.6334ZM418.905 26.8634C419.413 26.3869 420.405 25.7281 422.085 24.9371L419.531 19.5082C417.626 20.4047 415.98 21.3806 414.801 22.4862L418.905 26.8634ZM422.085 24.9371C423.497 24.273 424.908 23.957 426.345 23.957V17.957C423.986 17.957 421.705 18.4849 419.531 19.5082L422.085 24.9371ZM426.345 23.957C428.325 23.957 429.918 24.4239 431.237 25.2656C432.568 26.1153 433.791 27.4575 434.839 29.4649L440.158 26.6875C438.727 23.9487 436.852 21.7314 434.465 20.208C432.066 18.6767 429.323 17.957 426.345 17.957V23.957ZM440.033 29.6813C442.427 25.9008 446 23.957 451.262 23.957V17.957C444.185 17.957 438.581 20.7594 434.964 26.471L440.033 29.6813ZM451.262 23.957C453.767 23.957 455.708 24.3982 457.198 25.1432L459.881 19.7767C457.363 18.5178 454.453 17.957 451.262 17.957V23.957ZM457.226 25.1569C458.794 25.9212 459.924 26.9594 460.713 28.2749L465.858 25.188C464.433 22.8121 462.398 21.0027 459.853 19.763L457.226 25.1569ZM460.733 28.3079C461.661 29.8104 462.328 31.4502 462.732 33.2435L468.585 31.9264C468.04 29.501 467.125 27.2384 465.838 25.155L460.733 28.3079ZM462.735 33.2595C463.15 35.0563 463.371 37.1192 463.371 39.4668H469.371C469.371 36.7519 469.116 34.2269 468.582 31.9104L462.735 33.2595ZM463.371 39.4668V70H469.371V39.4668H463.371ZM466.371 67H453.714V73H466.371V67ZM456.714 70V39.7041H450.714V70H456.714ZM456.714 39.7041C456.714 36.8259 456.31 34.165 455.1 32.1489L449.955 35.2359C450.328 35.8565 450.714 37.2034 450.714 39.7041H456.714ZM455.1 32.1489C453.651 29.7331 451.225 28.7148 448.573 28.7148V34.7148C449.612 34.7148 449.823 35.0149 449.955 35.2359L455.1 32.1489ZM448.573 28.7148C445.126 28.7148 442.295 30.2562 440.332 33.0922L445.265 36.5074C446.149 35.2301 447.167 34.7148 448.573 34.7148V28.7148ZM440.322 33.1058C438.56 35.6811 437.742 38.6927 437.742 41.998H443.742C443.742 39.7136 444.294 37.9264 445.274 36.4939L440.322 33.1058ZM437.742 41.998V70H443.742V41.998H437.742ZM440.742 67H428.244V73H440.742V67ZM431.244 70V39.3877H425.244V70H431.244ZM431.244 39.3877C431.244 36.6798 430.738 34.1619 429.41 32.1297L424.388 35.4132C424.852 36.1233 425.244 37.3495 425.244 39.3877H431.244ZM429.454 32.1992C428.033 29.8902 425.77 28.7148 423.102 28.7148V34.7148C423.809 34.7148 424.077 34.9106 424.344 35.3438L429.454 32.1992ZM423.102 28.7148C419.67 28.7148 416.736 30.0406 414.784 32.8513L419.713 36.2737C420.397 35.2875 421.366 34.7148 423.102 34.7148V28.7148ZM414.774 32.8659C413.056 35.3714 412.35 38.51 412.35 41.998H418.35C418.35 39.2635 418.909 37.445 419.723 36.2591L414.774 32.8659ZM412.35 41.998V70H418.35V41.998H412.35ZM415.35 67H402.694V73H415.35V67ZM486.684 56.79L484.111 58.3335L484.13 58.364L484.149 58.394L486.684 56.79ZM500.131 56.9482L497.635 55.2841L497.631 55.2903L497.627 55.2965L500.131 56.9482ZM500.21 35.5117L497.666 37.1017L497.678 37.1206L497.69 37.1393L500.21 35.5117ZM486.605 35.6699L484.032 34.1264L484.021 34.1455L484.01 34.1648L486.605 35.6699ZM471.892 88.668H468.892V91.668H471.892V88.668ZM471.892 22.3809V19.3809H468.892V22.3809H471.892ZM483.994 22.3809H486.994V19.3809H483.994V22.3809ZM483.994 27.0479H480.994V36.4092L486.436 28.7916L483.994 27.0479ZM513.737 57.8975L516.545 58.9508L516.548 58.9437L516.551 58.9366L513.737 57.8975ZM502.267 70L501.164 67.2101L501.136 67.2211L501.108 67.2327L502.267 70ZM484.469 66.0449L487.024 64.4726L481.469 55.4458V66.0449H484.469ZM484.469 88.668V91.668H487.469V88.668H484.469ZM481.311 46.1113C481.311 50.9038 482.15 55.0643 484.111 58.3335L489.256 55.2466C488.054 53.2424 487.311 50.2837 487.311 46.1113H481.311ZM484.149 58.394C486.297 61.7903 489.492 63.666 493.487 63.666V57.666C491.68 57.666 490.34 56.9578 489.219 55.1861L484.149 58.394ZM493.487 63.666C497.362 63.666 500.487 61.8576 502.635 58.6L497.627 55.2965C496.506 56.9959 495.2 57.666 493.487 57.666V63.666ZM502.627 58.6123C504.777 55.3879 505.662 51.0987 505.662 46.1113H499.662C499.662 50.5107 498.86 53.4461 497.635 55.2841L502.627 58.6123ZM505.662 46.1113C505.662 41.2712 504.799 37.0874 502.73 33.8841L497.69 37.1393C498.891 38.9986 499.662 41.8812 499.662 46.1113H505.662ZM502.754 33.9217C500.643 30.5444 497.457 28.7148 493.487 28.7148V34.7148C495.316 34.7148 496.613 35.4165 497.666 37.1017L502.754 33.9217ZM493.487 28.7148C489.397 28.7148 486.141 30.6116 484.032 34.1264L489.177 37.2134C490.232 35.4548 491.564 34.7148 493.487 34.7148V28.7148ZM484.01 34.1648C482.127 37.411 481.311 41.4678 481.311 46.1113H487.311C487.311 42.1064 488.024 39.2023 489.2 37.1751L484.01 34.1648ZM474.892 88.668V22.3809H468.892V88.668H474.892ZM471.892 25.3809H483.994V19.3809H471.892V25.3809ZM480.994 22.3809V27.0479H486.994V22.3809H480.994ZM486.436 28.7916C488.822 25.4498 491.717 23.957 495.306 23.957V17.957C489.614 17.957 484.967 20.5248 481.553 25.3041L486.436 28.7916ZM495.306 23.957C500.275 23.957 504.299 25.8092 507.585 29.6352L512.136 25.7261C507.723 20.5872 502.044 17.957 495.306 17.957V23.957ZM507.585 29.6352C510.835 33.4195 512.635 38.7905 512.635 46.1113H518.635C518.635 37.8228 516.586 30.9067 512.136 25.7261L507.585 29.6352ZM512.635 46.1113C512.635 50.2594 512.042 53.8255 510.922 56.8583L516.551 58.9366C517.962 55.1139 518.635 50.8226 518.635 46.1113H512.635ZM510.928 56.8441C509.781 59.9025 508.346 62.1008 506.718 63.6032L510.788 68.012C513.274 65.7176 515.161 62.6424 516.545 58.9508L510.928 56.8441ZM506.718 63.6032C504.894 65.2874 503.04 66.4682 501.164 67.2101L503.37 72.7899C506.028 71.7388 508.499 70.1247 510.788 68.012L506.718 63.6032ZM501.108 67.2327C499.194 68.0339 497.267 68.4238 495.306 68.4238V74.4238C498.091 74.4238 500.804 73.8645 503.425 72.7673L501.108 67.2327ZM495.306 68.4238C492.891 68.4238 491.189 67.9443 490 67.2103L486.848 72.3151C489.245 73.796 492.131 74.4238 495.306 74.4238V68.4238ZM490 67.2103C488.487 66.2757 487.559 65.3415 487.024 64.4726L481.914 67.6172C483.067 69.4905 484.775 71.0349 486.848 72.3151L490 67.2103ZM481.469 66.0449V88.668H487.469V66.0449H481.469ZM484.469 85.668H471.892V91.668H484.469V85.668ZM519.653 70H516.653V73H519.653V70ZM519.653 3.23828V0.238281H516.653V3.23828H519.653ZM532.31 3.23828H535.31V0.238281H532.31V3.23828ZM532.31 70V73H535.31V70H532.31ZM522.653 70V3.23828H516.653V70H522.653ZM519.653 6.23828H532.31V0.238281H519.653V6.23828ZM529.31 3.23828V70H535.31V3.23828H529.31ZM532.31 67H519.653V73H532.31V67ZM550.724 59.5586L548.712 61.7832L548.742 61.8102L548.772 61.8364L550.724 59.5586ZM565.042 47.377H568.042V43.5667L564.338 44.4607L565.042 47.377ZM557.764 48.8799L558.196 51.8486L558.201 51.848L557.764 48.8799ZM555.866 40.5742L556.304 43.5421L556.322 43.5394L556.34 43.5365L555.866 40.5742ZM565.042 38.9131L565.937 41.7765L568.042 41.1187V38.9131H565.042ZM562.985 32.1895L561.232 34.6241L561.287 34.6635L561.343 34.7004L562.985 32.1895ZM544.95 36.6191L542.992 38.8918L545.193 40.7886L547.159 38.649L544.95 36.6191ZM537.514 30.2119L535.215 28.2856L533.315 30.5534L535.556 32.4846L537.514 30.2119ZM577.698 70V73H580.698V70H577.698ZM565.437 70H562.437V73H565.437V70ZM565.437 65.0957H568.437L562.786 63.692L565.437 65.0957ZM540.758 67.4688L538.757 69.7045L538.778 69.7229L538.799 69.741L540.758 67.4688ZM546.063 55.9199C546.063 58.2372 547.01 60.244 548.712 61.7832L552.737 57.334C552.224 56.8693 552.063 56.4503 552.063 55.9199H546.063ZM548.772 61.8364C550.524 63.338 552.685 63.9824 554.996 63.9824V57.9824C553.827 57.9824 553.14 57.6776 552.677 57.2808L548.772 61.8364ZM554.996 63.9824C558.549 63.9824 561.679 62.7443 564.207 60.2849L560.023 55.9846C558.648 57.3221 557.033 57.9824 554.996 57.9824V63.9824ZM564.207 60.2849C566.834 57.7294 568.042 54.3723 568.042 50.541H562.042C562.042 53.0379 561.299 54.7432 560.023 55.9846L564.207 60.2849ZM568.042 50.541V47.377H562.042V50.541H568.042ZM564.338 44.4607C561.314 45.1907 558.989 45.6675 557.328 45.9118L558.201 51.848C560.126 51.5649 562.653 51.0398 565.746 50.2932L564.338 44.4607ZM557.333 45.9111C554.176 46.3702 551.395 47.2869 549.352 48.9405C547.172 50.7041 546.063 53.123 546.063 55.9199H552.063C552.063 54.8673 552.405 54.188 553.126 53.6049C553.982 52.9118 555.552 52.2333 558.196 51.8486L557.333 45.9111ZM539.249 57.0273C539.249 53.5908 540.518 50.8328 543.185 48.5473L539.28 43.9918C535.302 47.4015 533.249 51.8154 533.249 57.0273H539.249ZM543.185 48.5473C545.916 46.2057 550.175 44.4463 556.304 43.5421L555.428 37.6063C548.69 38.6006 543.193 40.638 539.28 43.9918L543.185 48.5473ZM556.34 43.5365C558.985 43.1134 561.091 42.7603 562.649 42.4781C564.127 42.2107 565.301 41.9751 565.937 41.7765L564.147 36.0496C563.939 36.1148 563.162 36.2878 561.581 36.5741C560.081 36.8456 558.021 37.1913 555.392 37.6119L556.34 43.5365ZM568.042 38.9131V36.4609H562.042V38.9131H568.042ZM568.042 36.4609C568.042 33.7208 567.017 31.2413 564.627 29.6785L561.343 34.7004C561.695 34.9306 562.042 35.2987 562.042 36.4609H568.042ZM564.738 29.7548C562.764 28.3337 560.35 27.7656 557.764 27.7656V33.7656C559.503 33.7656 560.569 34.1468 561.232 34.6241L564.738 29.7548ZM557.764 27.7656C551.905 27.7656 546.851 30.1167 542.741 34.5893L547.159 38.649C550.221 35.3169 553.71 33.7656 557.764 33.7656V27.7656ZM546.908 34.3465L539.473 27.9393L535.556 32.4846L542.992 38.8918L546.908 34.3465ZM539.814 32.1383C544.398 26.6661 550.245 23.957 557.606 23.957V17.957C548.515 17.957 540.967 21.4179 535.215 28.2856L539.814 32.1383ZM557.606 23.957C564.508 23.957 568.625 25.6188 570.857 28.1581L575.364 24.1974C571.478 19.7757 565.259 17.957 557.606 17.957V23.957ZM570.857 28.1581C573.279 30.9145 574.698 35.0423 574.698 40.9697H580.698C580.698 34.1354 579.059 28.4019 575.364 24.1974L570.857 28.1581ZM574.698 40.9697V70H580.698V40.9697H574.698ZM577.698 67H565.437V73H577.698V67ZM568.437 70V65.0957H562.437V70H568.437ZM562.786 63.692C562.172 64.8521 561.076 65.9731 559.25 66.9732L562.132 72.2358C564.736 70.8101 566.804 68.9252 568.089 66.4994L562.786 63.692ZM559.25 66.9732C557.531 67.9146 555.507 68.4238 553.097 68.4238V74.4238C556.383 74.4238 559.422 73.7201 562.132 72.2358L559.25 66.9732ZM553.097 68.4238C548.442 68.4238 545.092 67.2446 542.716 65.1965L538.799 69.741C542.54 72.9663 547.417 74.4238 553.097 74.4238V68.4238ZM542.758 65.233C540.43 63.1496 539.249 60.5023 539.249 57.0273H533.249C533.249 62.0954 535.074 66.409 538.757 69.7045L542.758 65.233ZM579.185 33.0596H576.185V36.0596H579.185V33.0596ZM579.185 22.3809V19.3809H576.185V22.3809H579.185ZM585.988 22.3809V25.3809H588.988V22.3809H585.988ZM585.988 8.85449V5.85449H582.988V8.85449H585.988ZM598.486 8.85449H601.486V5.85449H598.486V8.85449ZM598.486 22.3809H595.486V25.3809H598.486V22.3809ZM608.374 22.3809H611.374V19.3809H608.374V22.3809ZM608.374 33.0596V36.0596H611.374V33.0596H608.374ZM598.486 33.0596V30.0596H595.486V33.0596H598.486ZM608.453 59.2422H611.453V56.2422H608.453V59.2422ZM608.453 70V73H611.453V70H608.453ZM585.988 33.0596H588.988V30.0596H585.988V33.0596ZM582.185 33.0596V22.3809H576.185V33.0596H582.185ZM579.185 25.3809H585.988V19.3809H579.185V25.3809ZM588.988 22.3809V8.85449H582.988V22.3809H588.988ZM585.988 11.8545H598.486V5.85449H585.988V11.8545ZM595.486 8.85449V22.3809H601.486V8.85449H595.486ZM598.486 25.3809H608.374V19.3809H598.486V25.3809ZM605.374 22.3809V33.0596H611.374V22.3809H605.374ZM608.374 30.0596H598.486V36.0596H608.374V30.0596ZM595.486 33.0596V54.0215H601.486V33.0596H595.486ZM595.486 54.0215C595.486 56.1357 595.942 58.2817 597.379 59.9174C598.882 61.627 600.974 62.2422 603.074 62.2422V56.2422C602.115 56.2422 601.913 55.9873 601.886 55.9567C601.794 55.8521 601.486 55.3877 601.486 54.0215H595.486ZM603.074 62.2422H608.453V56.2422H603.074V62.2422ZM605.453 59.2422V70H611.453V59.2422H605.453ZM608.453 67H601.492V73H608.453V67ZM601.492 67C596.775 67 593.79 65.8393 591.969 64.0457C590.156 62.2606 588.988 59.348 588.988 54.7334H582.988C582.988 60.2965 584.404 65.0173 587.759 68.321C591.106 71.6163 595.873 73 601.492 73V67ZM588.988 54.7334V33.0596H582.988V54.7334H588.988ZM585.988 30.0596H579.185V36.0596H585.988V30.0596ZM647.355 27.918L645.148 29.9497L645.16 29.9627L645.172 29.9756L647.355 27.918ZM653.604 50.6201V53.6201H656.31L656.588 50.9288L653.604 50.6201ZM621.963 50.6201V47.6201H618.963V50.6201H621.963ZM624.811 58.293L622.581 60.2999L622.594 60.3139L622.607 60.3278L624.811 58.293ZM638.654 59.6377L640.318 62.1338L640.326 62.1282L640.335 62.1225L638.654 59.6377ZM642.688 55.0498L643.687 52.2212L641.16 51.3282L639.989 53.7391L642.688 55.0498ZM653.208 58.7676L655.946 59.9936L657.276 57.0233L654.208 55.939L653.208 58.7676ZM645.456 67.7852L647.137 70.27L647.15 70.2616L647.162 70.253L645.456 67.7852ZM615.556 64.542L613.36 66.5863L613.367 66.593L613.373 66.5996L615.556 64.542ZM622.042 41.998H619.042V44.998H622.042V41.998ZM640.948 41.998V44.998H643.948V41.998H640.948ZM638.495 34.167L636.054 35.9107L636.078 35.9438L636.102 35.9763L638.495 34.167ZM624.574 34.167L622.215 32.3135L622.201 32.3311L622.187 32.3489L624.574 34.167ZM612.149 46.0322C612.149 38.8573 614.134 33.5577 617.794 29.7635L613.476 25.5978C608.488 30.7684 606.149 37.7032 606.149 46.0322H612.149ZM617.794 29.7635C621.538 25.8832 626.104 23.957 631.693 23.957V17.957C624.52 17.957 618.381 20.5133 613.476 25.5978L617.794 29.7635ZM631.693 23.957C637.003 23.957 641.43 25.9106 645.148 29.9497L649.562 25.8863C644.737 20.6441 638.722 17.957 631.693 17.957V23.957ZM645.172 29.9756C648.875 33.9048 650.841 39.1561 650.841 46.0322H656.841C656.841 37.9318 654.483 31.1069 649.538 25.8603L645.172 29.9756ZM650.841 46.0322C650.841 47.4579 650.767 48.8841 650.62 50.3114L656.588 50.9288C656.757 49.2975 656.841 47.6652 656.841 46.0322H650.841ZM653.604 47.6201H621.963V53.6201H653.604V47.6201ZM618.963 50.6201C618.963 54.3192 620.156 57.605 622.581 60.2999L627.041 56.2861C625.669 54.7622 624.963 52.9328 624.963 50.6201H618.963ZM622.607 60.3278C625.16 63.0939 628.567 64.3779 632.484 64.3779V58.3779C629.967 58.3779 628.259 57.6054 627.015 56.2581L622.607 60.3278ZM632.484 64.3779C635.367 64.3779 638.02 63.6654 640.318 62.1338L636.99 57.1415C635.806 57.9303 634.347 58.3779 632.484 58.3779V64.3779ZM640.335 62.1225C642.539 60.6313 644.247 58.7065 645.386 56.3605L639.989 53.7391C639.336 55.0845 638.354 56.2183 636.973 57.1528L640.335 62.1225ZM641.688 57.8784L652.209 61.5962L654.208 55.939L643.687 52.2212L641.688 57.8784ZM650.47 57.5416C649.14 60.5133 646.944 63.1103 643.751 65.3173L647.162 70.253C651.141 67.503 654.113 64.0882 655.946 59.9936L650.47 57.5416ZM643.776 65.3003C640.79 67.3201 636.954 68.4238 632.088 68.4238V74.4238C637.875 74.4238 642.951 73.1018 647.137 70.27L643.776 65.3003ZM632.088 68.4238C626.16 68.4238 621.458 66.4301 617.739 62.4843L613.373 66.5996C618.302 71.8297 624.622 74.4238 632.088 74.4238V68.4238ZM617.752 62.4977C614.113 58.589 612.149 53.2138 612.149 46.0322H606.149C606.149 54.3545 608.457 61.3192 613.36 66.5863L617.752 62.4977ZM622.042 44.998H640.948V38.998H622.042V44.998ZM643.948 41.998C643.948 38.3743 642.967 35.1068 640.888 32.3577L636.102 35.9763C637.293 37.5514 637.948 39.5046 637.948 41.998H643.948ZM640.937 32.4233C638.738 29.3448 635.518 27.8447 631.693 27.8447V33.8447C633.773 33.8447 635.089 34.5595 636.054 35.9107L640.937 32.4233ZM631.693 27.8447C627.838 27.8447 624.566 29.3205 622.215 32.3135L626.933 36.0205C628.061 34.5838 629.536 33.8447 631.693 33.8447V27.8447ZM622.187 32.3489C620.069 35.1287 619.042 38.3908 619.042 41.998H625.042C625.042 39.5935 625.703 37.6349 626.96 35.9851L622.187 32.3489Z" fill="white" mask="url(#path-1-outside-1_248_1217)"/>
</svg>
