<svg width="502" height="74" viewBox="0 0 502 74" fill="none" xmlns="http://www.w3.org/2000/svg">
<mask id="path-1-outside-1_236_2821" maskUnits="userSpaceOnUse" x="0" y="0" width="502" height="74" fill="black">
<rect fill="white" width="502" height="74"/>
<path d="M3.79102 15.5273V4.21582H52.9922V15.5273H34.957V69H21.9053V15.5273H3.79102ZM48.3094 45.0322C48.3094 37.2803 50.4715 31.1631 54.7957 26.6807C59.1199 22.1982 64.4725 19.957 70.8533 19.957C77.0232 19.957 82.2439 22.2773 86.5154 26.918C90.8396 31.5059 93.0018 37.5439 93.0018 45.0322C93.0018 46.5615 92.9227 48.0908 92.7645 49.6201H61.1238C61.1238 52.626 62.073 55.1836 63.9715 57.293C65.8699 59.3496 68.4275 60.3779 71.6443 60.3779C74.0174 60.3779 76.074 59.7979 77.8143 58.6377C79.6072 57.4248 80.952 55.8955 81.8484 54.0498L92.3689 57.7676C90.7869 61.3008 88.2029 64.3066 84.617 66.7852C81.0311 69.2109 76.575 70.4238 71.2488 70.4238C64.5516 70.4238 59.0408 68.1299 54.7166 63.542C50.4451 58.9541 48.3094 52.7842 48.3094 45.0322ZM61.2029 40.998H80.1082C80.1082 37.9395 79.2908 35.3291 77.6561 33.167C76.074 30.9521 73.8064 29.8447 70.8533 29.8447C67.8475 29.8447 65.4744 30.9521 63.7342 33.167C62.0467 35.3818 61.2029 37.9922 61.2029 40.998ZM106.354 54.9199C106.354 56.3438 106.908 57.5566 108.015 58.5586C109.123 59.5078 110.546 59.9824 112.287 59.9824C115.082 59.9824 117.455 59.0332 119.406 57.1348C121.357 55.2363 122.333 52.7051 122.333 49.541V46.377C119.274 47.1152 116.848 47.6162 115.055 47.8799C109.254 48.7236 106.354 51.0703 106.354 54.9199ZM93.5396 56.0273C93.5396 51.7031 95.2008 48.1172 98.523 45.2695C101.845 42.4219 106.723 40.5234 113.157 39.5742C118.43 38.7305 121.489 38.1768 122.333 37.9131V35.4609C122.333 33.5098 121.647 32.0859 120.276 31.1895C118.958 30.2402 117.217 29.7656 115.055 29.7656C110.098 29.7656 105.827 31.7168 102.241 35.6191L94.8053 29.2119C99.9732 23.042 106.671 19.957 114.897 19.957C122.174 19.957 127.342 21.6973 130.401 25.1777C133.46 28.6582 134.989 33.5889 134.989 39.9697V69H122.728V64.0957C121.779 65.8887 120.197 67.3916 117.982 68.6045C115.767 69.8174 113.236 70.4238 110.388 70.4238C105.22 70.4238 101.107 69.1055 98.0484 66.4688C95.0426 63.7793 93.5396 60.2988 93.5396 56.0273ZM140.036 69V21.3809H152.138V25.8896H152.217C152.745 25.1514 153.404 24.4131 154.195 23.6748C155.038 22.8838 156.357 22.0664 158.15 21.2227C159.943 20.3789 161.788 19.957 163.687 19.957C168.644 19.957 172.362 22.3301 174.84 27.0762C177.846 22.3301 182.434 19.957 188.604 19.957C191.452 19.957 193.877 20.458 195.881 21.46C197.938 22.4619 199.52 23.8857 200.627 25.7314C201.735 27.5244 202.526 29.4756 203 31.585C203.475 33.6416 203.712 35.9355 203.712 38.4668V69H191.056V38.7041C191.056 36.0146 190.661 34.0107 189.87 32.6924C189.079 31.374 187.76 30.7148 185.914 30.7148C183.489 30.7148 181.564 31.7432 180.14 33.7998C178.769 35.8037 178.083 38.2031 178.083 40.998V69H165.585V38.3877C165.585 36.0146 165.137 34.1426 164.241 32.7715C163.397 31.4004 162.131 30.7148 160.444 30.7148C157.86 30.7148 155.909 31.6641 154.59 33.5625C153.325 35.4082 152.692 37.8867 152.692 40.998V69H140.036ZM225.829 69V4.21582H241.649L251.221 31.5059C251.959 33.668 252.908 36.6738 254.068 40.5234C255.229 44.3203 256.02 46.8779 256.441 48.1963H256.758C259.605 39.4951 261.451 33.9316 262.295 31.5059L271.629 4.21582H287.528V69H274.477V44.0039C274.477 39.8906 274.951 33.1406 275.9 23.7539H275.505L269.968 40.6816L261.267 65.9941H252.091L243.469 40.6816L237.853 23.5957H237.378C238.327 31.3477 238.802 38.1504 238.802 44.0039V69H225.829ZM295.027 16.3184V3.3457H307.763V16.3184H295.027ZM295.185 69V21.3809H307.683V69H295.185ZM310.673 58.7168L319.533 53.4961C322.75 58.0312 326.784 60.2988 331.635 60.2988C333.639 60.2988 335.195 59.877 336.302 59.0332C337.462 58.1367 338.043 57.0557 338.043 55.79C338.043 55.3682 337.963 54.9463 337.805 54.5244C337.7 54.1025 337.489 53.7334 337.172 53.417C336.909 53.0479 336.619 52.7314 336.302 52.4678C335.986 52.2041 335.538 51.9404 334.958 51.6768C334.43 51.3604 333.956 51.123 333.534 50.9648C333.112 50.7539 332.532 50.5166 331.794 50.2529C331.108 49.9893 330.528 49.8047 330.053 49.6992C329.579 49.541 328.92 49.3301 328.076 49.0664C327.232 48.8027 326.599 48.5918 326.177 48.4336C322.17 47.1152 318.953 45.4014 316.527 43.292C314.154 41.1826 312.967 38.0977 312.967 34.0371C312.967 29.7129 314.813 26.2852 318.504 23.7539C322.249 21.2227 326.652 19.957 331.714 19.957C335.67 19.957 339.44 21.0117 343.026 23.1211C346.665 25.1777 349.38 27.8936 351.173 31.2686L342.868 36.1729C339.493 32.1123 335.828 30.082 331.873 30.082C329.974 30.082 328.471 30.4775 327.364 31.2686C326.309 32.0596 325.782 33.0615 325.782 34.2744C325.782 34.8545 325.887 35.4082 326.098 35.9355C326.309 36.4102 326.652 36.8584 327.127 37.2803C327.654 37.7021 328.129 38.0713 328.55 38.3877C329.025 38.7041 329.684 39.0205 330.528 39.3369C331.424 39.6533 332.11 39.917 332.585 40.1279C333.112 40.2861 333.929 40.5498 335.037 40.9189C336.144 41.2354 336.935 41.4727 337.41 41.6309C346.48 44.6895 351.015 49.4619 351.015 55.9482C351.015 59.9561 349.38 63.3838 346.111 66.2314C342.841 69.0264 338.148 70.4238 332.031 70.4238C327.232 70.4238 322.934 69.3691 319.137 67.2598C315.393 65.0977 312.572 62.25 310.673 58.7168ZM350.683 58.7168L359.542 53.4961C362.759 58.0312 366.793 60.2988 371.645 60.2988C373.649 60.2988 375.204 59.877 376.312 59.0332C377.472 58.1367 378.052 57.0557 378.052 55.79C378.052 55.3682 377.973 54.9463 377.815 54.5244C377.709 54.1025 377.498 53.7334 377.182 53.417C376.918 53.0479 376.628 52.7314 376.312 52.4678C375.996 52.2041 375.547 51.9404 374.967 51.6768C374.44 51.3604 373.965 51.123 373.543 50.9648C373.121 50.7539 372.541 50.5166 371.803 50.2529C371.118 49.9893 370.538 49.8047 370.063 49.6992C369.588 49.541 368.929 49.3301 368.085 49.0664C367.242 48.8027 366.609 48.5918 366.187 48.4336C362.179 47.1152 358.962 45.4014 356.537 43.292C354.163 41.1826 352.977 38.0977 352.977 34.0371C352.977 29.7129 354.823 26.2852 358.514 23.7539C362.258 21.2227 366.662 19.957 371.724 19.957C375.679 19.957 379.45 21.0117 383.036 23.1211C386.674 25.1777 389.39 27.8936 391.183 31.2686L382.877 36.1729C379.502 32.1123 375.837 30.082 371.882 30.082C369.984 30.082 368.481 30.4775 367.373 31.2686C366.319 32.0596 365.791 33.0615 365.791 34.2744C365.791 34.8545 365.897 35.4082 366.108 35.9355C366.319 36.4102 366.662 36.8584 367.136 37.2803C367.663 37.7021 368.138 38.0713 368.56 38.3877C369.035 38.7041 369.694 39.0205 370.538 39.3369C371.434 39.6533 372.12 39.917 372.594 40.1279C373.121 40.2861 373.939 40.5498 375.046 40.9189C376.154 41.2354 376.945 41.4727 377.419 41.6309C386.49 44.6895 391.025 49.4619 391.025 55.9482C391.025 59.9561 389.39 63.3838 386.121 66.2314C382.851 69.0264 378.158 70.4238 372.04 70.4238C367.242 70.4238 362.944 69.3691 359.147 67.2598C355.403 65.0977 352.581 62.25 350.683 58.7168ZM394.489 16.3184V3.3457H407.225V16.3184H394.489ZM394.648 69V21.3809H407.146V69H394.648ZM423.979 45.1904C423.979 50.4111 424.954 54.1289 426.905 56.3438C428.856 58.5586 431.019 59.666 433.392 59.666C434.394 59.666 435.369 59.4551 436.318 59.0332C437.32 58.5586 438.322 57.8467 439.324 56.8975C440.326 55.8955 441.144 54.3926 441.776 52.3887C442.409 50.332 442.726 47.9326 442.726 45.1904C442.726 42.3955 442.409 39.9961 441.776 37.9922C441.196 35.9883 440.379 34.4854 439.324 33.4834C438.322 32.4814 437.32 31.7695 436.318 31.3477C435.369 30.9258 434.394 30.7148 433.392 30.7148C431.019 30.7148 428.856 31.8223 426.905 34.0371C424.954 36.1992 423.979 39.917 423.979 45.1904ZM411.006 45.1904C411.006 41.9209 411.428 38.8359 412.271 35.9355C413.115 32.9824 414.381 30.293 416.068 27.8672C417.809 25.4414 420.155 23.5166 423.108 22.0928C426.114 20.6689 429.542 19.957 433.392 19.957C437.241 19.957 440.643 20.6689 443.596 22.0928C446.549 23.5166 448.869 25.4414 450.557 27.8672C452.297 30.293 453.589 32.9824 454.433 35.9355C455.276 38.8359 455.698 41.9209 455.698 45.1904C455.698 47.2998 455.514 49.4092 455.145 51.5186C454.775 53.5752 454.063 55.79 453.009 58.1631C452.007 60.4834 450.715 62.54 449.133 64.333C447.551 66.0732 445.389 67.5234 442.646 68.6836C439.957 69.8438 436.872 70.4238 433.392 70.4238C429.964 70.4238 426.905 69.8701 424.216 68.7627C421.526 67.6553 419.364 66.2578 417.729 64.5703C416.095 62.8301 414.75 60.8262 413.695 58.5586C412.693 56.2383 411.981 53.9971 411.56 51.835C411.19 49.6729 411.006 47.458 411.006 45.1904ZM458.926 69V21.3809H471.028V26.0479H471.107C473.691 21.9873 477.725 19.957 483.21 19.957C493.704 19.957 498.951 26.127 498.951 38.4668V69H486.374V39.9697C486.374 36.5947 485.899 34.2217 484.95 32.8506C484.001 31.4268 482.498 30.7148 480.441 30.7148C477.805 30.7148 475.669 31.7959 474.034 33.958C472.399 36.0674 471.582 38.7305 471.582 41.9473V69H458.926Z"/>
</mask>
<path d="M3.79102 15.5273H0.791016V18.5273H3.79102V15.5273ZM3.79102 4.21582V1.21582H0.791016V4.21582H3.79102ZM52.9922 4.21582H55.9922V1.21582H52.9922V4.21582ZM52.9922 15.5273V18.5273H55.9922V15.5273H52.9922ZM34.957 15.5273V12.5273H31.957V15.5273H34.957ZM34.957 69V72H37.957V69H34.957ZM21.9053 69H18.9053V72H21.9053V69ZM21.9053 15.5273H24.9053V12.5273H21.9053V15.5273ZM6.79102 15.5273V4.21582H0.791016V15.5273H6.79102ZM3.79102 7.21582H52.9922V1.21582H3.79102V7.21582ZM49.9922 4.21582V15.5273H55.9922V4.21582H49.9922ZM52.9922 12.5273H34.957V18.5273H52.9922V12.5273ZM31.957 15.5273V69H37.957V15.5273H31.957ZM34.957 66H21.9053V72H34.957V66ZM24.9053 69V15.5273H18.9053V69H24.9053ZM21.9053 12.5273H3.79102V18.5273H21.9053V12.5273ZM86.5154 26.918L84.3081 28.9497L84.3201 28.9627L84.3323 28.9756L86.5154 26.918ZM92.7645 49.6201V52.6201H95.4701L95.7485 49.9288L92.7645 49.6201ZM61.1238 49.6201V46.6201H58.1238V49.6201H61.1238ZM63.9715 57.293L61.7416 59.2999L61.7542 59.3139L61.7671 59.3278L63.9715 57.293ZM77.8143 58.6377L79.4784 61.1338L79.4868 61.1282L79.4952 61.1225L77.8143 58.6377ZM81.8484 54.0498L82.848 51.2212L80.3209 50.3282L79.1499 52.7391L81.8484 54.0498ZM92.3689 57.7676L95.107 58.9936L96.437 56.0233L93.3685 54.939L92.3689 57.7676ZM84.617 66.7852L86.2979 69.27L86.3104 69.2616L86.3227 69.253L84.617 66.7852ZM54.7166 63.542L52.5209 65.5863L52.5272 65.593L52.5335 65.5996L54.7166 63.542ZM61.2029 40.998H58.2029V43.998H61.2029V40.998ZM80.1082 40.998V43.998H83.1082V40.998H80.1082ZM77.6561 33.167L75.2149 34.9107L75.2385 34.9438L75.2631 34.9763L77.6561 33.167ZM63.7342 33.167L61.3752 31.3135L61.3614 31.3311L61.3479 31.3489L63.7342 33.167ZM51.3094 45.0322C51.3094 37.8573 53.2945 32.5577 56.9548 28.7635L52.6366 24.5978C47.6485 29.7684 45.3094 36.7032 45.3094 45.0322H51.3094ZM56.9548 28.7635C60.6982 24.8832 65.2643 22.957 70.8533 22.957V16.957C63.6806 16.957 57.5417 19.5133 52.6366 24.5978L56.9548 28.7635ZM70.8533 22.957C76.1635 22.957 80.5903 24.9106 84.3081 28.9497L88.7227 24.8863C83.8975 19.6441 77.883 16.957 70.8533 16.957V22.957ZM84.3323 28.9756C88.0357 32.9048 90.0018 38.1561 90.0018 45.0322H96.0018C96.0018 36.9318 93.6436 30.1069 88.6986 24.8603L84.3323 28.9756ZM90.0018 45.0322C90.0018 46.4579 89.928 47.8841 89.7804 49.3114L95.7485 49.9288C95.9173 48.2975 96.0018 46.6652 96.0018 45.0322H90.0018ZM92.7645 46.6201H61.1238V52.6201H92.7645V46.6201ZM58.1238 49.6201C58.1238 53.3192 59.3162 56.605 61.7416 59.2999L66.2014 55.2861C64.8299 53.7622 64.1238 51.9328 64.1238 49.6201H58.1238ZM61.7671 59.3278C64.3203 62.0939 67.7276 63.3779 71.6443 63.3779V57.3779C69.1275 57.3779 67.4195 56.6054 66.1759 55.2581L61.7671 59.3278ZM71.6443 63.3779C74.5274 63.3779 77.181 62.6654 79.4784 61.1338L76.1502 56.1415C74.967 56.9303 73.5074 57.3779 71.6443 57.3779V63.3779ZM79.4952 61.1225C81.6997 59.6313 83.4075 57.7065 84.547 55.3605L79.1499 52.7391C78.4964 54.0845 77.5148 55.2183 76.1333 56.1528L79.4952 61.1225ZM80.8489 56.8784L91.3694 60.5962L93.3685 54.939L82.848 51.2212L80.8489 56.8784ZM89.6309 56.5416C88.3003 59.5133 86.1043 62.1103 82.9112 64.3173L86.3227 69.253C90.3016 66.503 93.2736 63.0882 95.107 58.9936L89.6309 56.5416ZM82.9361 64.3003C79.9503 66.3201 76.1149 67.4238 71.2488 67.4238V73.4238C77.0351 73.4238 82.1118 72.1018 86.2979 69.27L82.9361 64.3003ZM71.2488 67.4238C65.3204 67.4238 60.6187 65.4301 56.8997 61.4843L52.5335 65.5996C57.4629 70.8297 63.7828 73.4238 71.2488 73.4238V67.4238ZM56.9123 61.4977C53.2731 57.589 51.3094 52.2138 51.3094 45.0322H45.3094C45.3094 53.3545 47.6171 60.3192 52.5209 65.5863L56.9123 61.4977ZM61.2029 43.998H80.1082V37.998H61.2029V43.998ZM83.1082 40.998C83.1082 37.3743 82.1276 34.1068 80.049 31.3577L75.2631 34.9763C76.454 36.5514 77.1082 38.5046 77.1082 40.998H83.1082ZM80.0973 31.4233C77.8984 28.3448 74.679 26.8447 70.8533 26.8447V32.8447C72.9339 32.8447 74.2497 33.5595 75.2149 34.9107L80.0973 31.4233ZM70.8533 26.8447C66.9982 26.8447 63.7269 28.3205 61.3752 31.3135L66.0931 35.0205C67.2219 33.5838 68.6967 32.8447 70.8533 32.8447V26.8447ZM61.3479 31.3489C59.2299 34.1287 58.2029 37.3908 58.2029 40.998H64.2029C64.2029 38.5935 64.8635 36.6349 66.1205 34.9851L61.3479 31.3489ZM108.015 58.5586L106.002 60.7832L106.032 60.8102L106.063 60.8364L108.015 58.5586ZM122.333 46.377H125.333V42.5667L121.629 43.4607L122.333 46.377ZM115.055 47.8799L115.487 50.8486L115.492 50.848L115.055 47.8799ZM113.157 39.5742L113.595 42.5421L113.613 42.5394L113.631 42.5365L113.157 39.5742ZM122.333 37.9131L123.227 40.7765L125.333 40.1187V37.9131H122.333ZM120.276 31.1895L118.523 33.6241L118.578 33.6635L118.634 33.7004L120.276 31.1895ZM102.241 35.6191L100.282 37.8918L102.484 39.7886L104.45 37.649L102.241 35.6191ZM94.8053 29.2119L92.5055 27.2856L90.6059 29.5534L92.8469 31.4846L94.8053 29.2119ZM134.989 69V72H137.989V69H134.989ZM122.728 69H119.728V72H122.728V69ZM122.728 64.0957H125.728L120.077 62.692L122.728 64.0957ZM98.0484 66.4688L96.0481 68.7045L96.0687 68.7229L96.0896 68.741L98.0484 66.4688ZM103.354 54.9199C103.354 57.2372 104.301 59.244 106.002 60.7832L110.028 56.334C109.514 55.8693 109.354 55.4503 109.354 54.9199H103.354ZM106.063 60.8364C107.815 62.338 109.975 62.9824 112.287 62.9824V56.9824C111.118 56.9824 110.431 56.6776 109.968 56.2808L106.063 60.8364ZM112.287 62.9824C115.84 62.9824 118.97 61.7443 121.498 59.2849L117.314 54.9846C115.939 56.3221 114.323 56.9824 112.287 56.9824V62.9824ZM121.498 59.2849C124.124 56.7294 125.333 53.3723 125.333 49.541H119.333C119.333 52.0379 118.59 53.7432 117.314 54.9846L121.498 59.2849ZM125.333 49.541V46.377H119.333V49.541H125.333ZM121.629 43.4607C118.604 44.1907 116.28 44.6675 114.619 44.9118L115.492 50.848C117.417 50.5649 119.944 50.0398 123.037 49.2932L121.629 43.4607ZM114.623 44.9111C111.467 45.3702 108.686 46.2869 106.642 47.9405C104.463 49.7041 103.354 52.123 103.354 54.9199H109.354C109.354 53.8673 109.696 53.188 110.416 52.6049C111.273 51.9118 112.843 51.2333 115.487 50.8486L114.623 44.9111ZM96.5396 56.0273C96.5396 52.5908 97.809 49.8328 100.475 47.5473L96.5707 42.9918C92.5926 46.4015 90.5396 50.8154 90.5396 56.0273H96.5396ZM100.475 47.5473C103.207 45.2057 107.466 43.4463 113.595 42.5421L112.719 36.6063C105.98 37.6006 100.483 39.638 96.5707 42.9918L100.475 47.5473ZM113.631 42.5365C116.276 42.1134 118.382 41.7603 119.94 41.4781C121.417 41.2107 122.592 40.9751 123.227 40.7765L121.438 35.0496C121.229 35.1148 120.453 35.2878 118.871 35.5741C117.371 35.8456 115.311 36.1913 112.683 36.6119L113.631 42.5365ZM125.333 37.9131V35.4609H119.333V37.9131H125.333ZM125.333 35.4609C125.333 32.7208 124.308 30.2413 121.918 28.6785L118.634 33.7004C118.986 33.9306 119.333 34.2987 119.333 35.4609H125.333ZM122.029 28.7548C120.055 27.3337 117.641 26.7656 115.055 26.7656V32.7656C116.794 32.7656 117.86 33.1468 118.523 33.6241L122.029 28.7548ZM115.055 26.7656C109.196 26.7656 104.142 29.1167 100.032 33.5893L104.45 37.649C107.512 34.3169 111.001 32.7656 115.055 32.7656V26.7656ZM104.199 33.3465L96.7636 26.9393L92.8469 31.4846L100.282 37.8918L104.199 33.3465ZM97.1051 31.1383C101.689 25.6661 107.536 22.957 114.897 22.957V16.957C105.806 16.957 98.2578 20.4179 92.5055 27.2856L97.1051 31.1383ZM114.897 22.957C121.799 22.957 125.916 24.6188 128.147 27.1581L132.654 23.1974C128.769 18.7757 122.55 16.957 114.897 16.957V22.957ZM128.147 27.1581C130.57 29.9145 131.989 34.0423 131.989 39.9697H137.989C137.989 33.1354 136.349 27.4019 132.654 23.1974L128.147 27.1581ZM131.989 39.9697V69H137.989V39.9697H131.989ZM134.989 66H122.728V72H134.989V66ZM125.728 69V64.0957H119.728V69H125.728ZM120.077 62.692C119.463 63.8521 118.367 64.9731 116.541 65.9732L119.423 71.2358C122.026 69.8101 124.095 67.9252 125.379 65.4994L120.077 62.692ZM116.541 65.9732C114.822 66.9146 112.798 67.4238 110.388 67.4238V73.4238C113.674 73.4238 116.712 72.7201 119.423 71.2358L116.541 65.9732ZM110.388 67.4238C105.733 67.4238 102.383 66.2446 100.007 64.1965L96.0896 68.741C99.831 71.9663 104.708 73.4238 110.388 73.4238V67.4238ZM100.049 64.233C97.7203 62.1496 96.5396 59.5023 96.5396 56.0273H90.5396C90.5396 61.0954 92.3649 65.409 96.0481 68.7045L100.049 64.233ZM140.036 69H137.036V72H140.036V69ZM140.036 21.3809V18.3809H137.036V21.3809H140.036ZM152.138 21.3809H155.138V18.3809H152.138V21.3809ZM152.138 25.8896H149.138V28.8896H152.138V25.8896ZM152.217 25.8896V28.8896H153.761L154.658 27.6334L152.217 25.8896ZM154.195 23.6748L156.242 25.868L156.247 25.8634L154.195 23.6748ZM174.84 27.0762L172.181 28.4649L174.59 33.078L177.375 28.6813L174.84 27.0762ZM195.881 21.46L194.54 24.1432L194.553 24.1502L194.567 24.1569L195.881 21.46ZM200.627 25.7314L198.055 27.2749L198.065 27.2915L198.075 27.3079L200.627 25.7314ZM203 31.585L200.074 32.2435L200.075 32.2515L200.077 32.2595L203 31.585ZM203.712 69V72H206.712V69H203.712ZM191.056 69H188.056V72H191.056V69ZM180.14 33.7998L177.673 32.0922L177.669 32.0989L177.664 32.1058L180.14 33.7998ZM178.083 69V72H181.083V69H178.083ZM165.585 69H162.585V72H165.585V69ZM164.241 32.7715L161.686 34.3438L161.707 34.3788L161.73 34.4132L164.241 32.7715ZM154.59 33.5625L152.126 31.8513L152.121 31.8586L152.116 31.8659L154.59 33.5625ZM152.692 69V72H155.692V69H152.692ZM143.036 69V21.3809H137.036V69H143.036ZM140.036 24.3809H152.138V18.3809H140.036V24.3809ZM149.138 21.3809V25.8896H155.138V21.3809H149.138ZM152.138 28.8896H152.217V22.8896H152.138V28.8896ZM154.658 27.6334C155.05 27.0852 155.57 26.4951 156.242 25.868L152.148 21.4816C151.238 22.331 150.439 23.2176 149.776 24.1459L154.658 27.6334ZM156.247 25.8634C156.755 25.3869 157.746 24.7281 159.427 23.9371L156.872 18.5082C154.967 19.4047 153.322 20.3806 152.143 21.4862L156.247 25.8634ZM159.427 23.9371C160.839 23.273 162.25 22.957 163.687 22.957V16.957C161.327 16.957 159.047 17.4849 156.872 18.5082L159.427 23.9371ZM163.687 22.957C165.667 22.957 167.26 23.4239 168.579 24.2656C169.91 25.1153 171.133 26.4575 172.181 28.4649L177.499 25.6875C176.069 22.9487 174.194 20.7314 171.807 19.208C169.408 17.6767 166.664 16.957 163.687 16.957V22.957ZM177.375 28.6813C179.769 24.9008 183.342 22.957 188.604 22.957V16.957C181.526 16.957 175.923 19.7594 172.306 25.471L177.375 28.6813ZM188.604 22.957C191.108 22.957 193.05 23.3982 194.54 24.1432L197.223 18.7767C194.705 17.5178 191.795 16.957 188.604 16.957V22.957ZM194.567 24.1569C196.136 24.9212 197.266 25.9594 198.055 27.2749L203.2 24.188C201.774 21.8121 199.74 20.0027 197.195 18.763L194.567 24.1569ZM198.075 27.3079C199.003 28.8104 199.67 30.4502 200.074 32.2435L205.927 30.9264C205.382 28.501 204.467 26.2384 203.18 24.155L198.075 27.3079ZM200.077 32.2595C200.492 34.0563 200.712 36.1192 200.712 38.4668H206.712C206.712 35.7519 206.458 33.2269 205.924 30.9104L200.077 32.2595ZM200.712 38.4668V69H206.712V38.4668H200.712ZM203.712 66H191.056V72H203.712V66ZM194.056 69V38.7041H188.056V69H194.056ZM194.056 38.7041C194.056 35.8259 193.652 33.165 192.442 31.1489L187.297 34.2359C187.669 34.8565 188.056 36.2034 188.056 38.7041H194.056ZM192.442 31.1489C190.993 28.7331 188.566 27.7148 185.914 27.7148V33.7148C186.954 33.7148 187.165 34.0149 187.297 34.2359L192.442 31.1489ZM185.914 27.7148C182.468 27.7148 179.637 29.2562 177.673 32.0922L182.607 35.5074C183.491 34.2301 184.509 33.7148 185.914 33.7148V27.7148ZM177.664 32.1058C175.902 34.6811 175.083 37.6927 175.083 40.998H181.083C181.083 38.7136 181.636 36.9264 182.616 35.4939L177.664 32.1058ZM175.083 40.998V69H181.083V40.998H175.083ZM178.083 66H165.585V72H178.083V66ZM168.585 69V38.3877H162.585V69H168.585ZM168.585 38.3877C168.585 35.6798 168.08 33.1619 166.752 31.1297L161.73 34.4132C162.194 35.1233 162.585 36.3495 162.585 38.3877H168.585ZM166.796 31.1992C165.375 28.8902 163.112 27.7148 160.444 27.7148V33.7148C161.15 33.7148 161.419 33.9106 161.686 34.3438L166.796 31.1992ZM160.444 27.7148C157.012 27.7148 154.078 29.0406 152.126 31.8513L157.054 35.2737C157.739 34.2875 158.708 33.7148 160.444 33.7148V27.7148ZM152.116 31.8659C150.398 34.3714 149.692 37.51 149.692 40.998H155.692C155.692 38.2635 156.251 36.445 157.064 35.2591L152.116 31.8659ZM149.692 40.998V69H155.692V40.998H149.692ZM152.692 66H140.036V72H152.692V66ZM225.829 69H222.829V72H225.829V69ZM225.829 4.21582V1.21582H222.829V4.21582H225.829ZM241.649 4.21582L244.48 3.22294L243.776 1.21582H241.649V4.21582ZM251.221 31.5059L254.06 30.5364L254.056 30.5247L254.052 30.513L251.221 31.5059ZM254.068 40.5234L251.196 41.3891L251.199 41.4001L254.068 40.5234ZM256.441 48.1963L253.584 49.1106L254.252 51.1963H256.441V48.1963ZM256.758 48.1963V51.1963H258.933L259.609 49.1294L256.758 48.1963ZM262.295 31.5059L265.128 32.4914L265.131 32.4841L265.133 32.4767L262.295 31.5059ZM271.629 4.21582V1.21582H269.484L268.79 3.24495L271.629 4.21582ZM287.528 4.21582H290.528V1.21582H287.528V4.21582ZM287.528 69V72H290.528V69H287.528ZM274.477 69H271.477V72H274.477V69ZM275.9 23.7539L278.885 24.0557L279.219 20.7539H275.9V23.7539ZM275.505 23.7539V20.7539H273.33L272.654 22.8212L275.505 23.7539ZM269.968 40.6816L272.805 41.6569L272.812 41.6357L272.819 41.6143L269.968 40.6816ZM261.267 65.9941V68.9941H263.408L264.104 66.9694L261.267 65.9941ZM252.091 65.9941L249.251 66.9614L249.943 68.9941H252.091V65.9941ZM243.469 40.6816L240.619 41.6184L240.624 41.6337L240.629 41.6489L243.469 40.6816ZM237.853 23.5957L240.703 22.6589L240.024 20.5957H237.853V23.5957ZM237.378 23.5957V20.5957H233.988L234.4 23.9603L237.378 23.5957ZM238.802 69V72H241.802V69H238.802ZM228.829 69V4.21582H222.829V69H228.829ZM225.829 7.21582H241.649V1.21582H225.829V7.21582ZM238.818 5.2087L248.39 32.4987L254.052 30.513L244.48 3.22294L238.818 5.2087ZM248.382 32.4753C249.103 34.5867 250.04 37.5525 251.196 41.3891L256.941 39.6578C255.777 35.7952 254.815 32.7493 254.06 30.5364L248.382 32.4753ZM251.199 41.4001C252.359 45.1945 253.155 47.7705 253.584 49.1106L259.299 47.282C258.884 45.9853 258.098 43.4462 256.937 39.6468L251.199 41.4001ZM256.441 51.1963H256.758V45.1963H256.441V51.1963ZM259.609 49.1294C262.459 40.4205 264.296 34.8857 265.128 32.4914L259.461 30.5203C258.607 32.9776 256.752 38.5697 253.907 47.2632L259.609 49.1294ZM265.133 32.4767L274.467 5.18669L268.79 3.24495L259.456 30.535L265.133 32.4767ZM271.629 7.21582H287.528V1.21582H271.629V7.21582ZM284.528 4.21582V69H290.528V4.21582H284.528ZM287.528 66H274.477V72H287.528V66ZM277.477 69V44.0039H271.477V69H277.477ZM277.477 44.0039C277.477 40.0552 277.937 33.4366 278.885 24.0557L272.916 23.4521C271.966 32.8447 271.477 39.7261 271.477 44.0039H277.477ZM275.9 20.7539H275.505V26.7539H275.9V20.7539ZM272.654 22.8212L267.116 39.749L272.819 41.6143L278.356 24.6866L272.654 22.8212ZM267.131 39.7064L258.43 65.0189L264.104 66.9694L272.805 41.6569L267.131 39.7064ZM261.267 62.9941H252.091V68.9941H261.267V62.9941ZM254.931 65.0268L246.309 39.7143L240.629 41.6489L249.251 66.9614L254.931 65.0268ZM246.319 39.7448L240.703 22.6589L235.003 24.5325L240.619 41.6184L246.319 39.7448ZM237.853 20.5957H237.378V26.5957H237.853V20.5957ZM234.4 23.9603C235.339 31.6285 235.802 38.3048 235.802 44.0039H241.802C241.802 37.996 241.315 31.0668 240.356 23.2311L234.4 23.9603ZM235.802 44.0039V69H241.802V44.0039H235.802ZM238.802 66H225.829V72H238.802V66ZM295.027 16.3184H292.027V19.3184H295.027V16.3184ZM295.027 3.3457V0.345703H292.027V3.3457H295.027ZM307.763 3.3457H310.763V0.345703H307.763V3.3457ZM307.763 16.3184V19.3184H310.763V16.3184H307.763ZM295.185 69H292.185V72H295.185V69ZM295.185 21.3809V18.3809H292.185V21.3809H295.185ZM307.683 21.3809H310.683V18.3809H307.683V21.3809ZM307.683 69V72H310.683V69H307.683ZM298.027 16.3184V3.3457H292.027V16.3184H298.027ZM295.027 6.3457H307.763V0.345703H295.027V6.3457ZM304.763 3.3457V16.3184H310.763V3.3457H304.763ZM307.763 13.3184H295.027V19.3184H307.763V13.3184ZM298.185 69V21.3809H292.185V69H298.185ZM295.185 24.3809H307.683V18.3809H295.185V24.3809ZM304.683 21.3809V69H310.683V21.3809H304.683ZM307.683 66H295.185V72H307.683V66ZM310.673 58.7168L309.15 56.1322L306.666 57.5963L308.031 60.1367L310.673 58.7168ZM319.533 53.4961L321.98 51.7605L320.385 49.5119L318.01 50.9115L319.533 53.4961ZM336.302 59.0332L338.12 61.4195L338.129 61.4133L338.137 61.4071L336.302 59.0332ZM337.805 54.5244L334.895 55.252L334.936 55.4178L334.996 55.5778L337.805 54.5244ZM337.172 53.417L334.731 55.1607L334.876 55.3627L335.051 55.5383L337.172 53.417ZM334.958 51.6768L333.414 54.2492L333.561 54.3372L333.716 54.4079L334.958 51.6768ZM333.534 50.9648L332.192 53.6481L332.333 53.7185L332.48 53.7738L333.534 50.9648ZM331.794 50.2529L330.717 53.053L330.75 53.066L330.785 53.0782L331.794 50.2529ZM330.053 49.6992L329.105 52.5453L329.251 52.5942L329.403 52.6278L330.053 49.6992ZM326.177 48.4336L327.231 45.6246L327.173 45.603L327.115 45.5838L326.177 48.4336ZM316.527 43.292L314.534 45.5342L314.546 45.5451L314.558 45.5558L316.527 43.292ZM318.504 23.7539L316.824 21.2686L316.816 21.2741L316.808 21.2797L318.504 23.7539ZM343.026 23.1211L341.505 25.7069L341.527 25.72L341.55 25.7328L343.026 23.1211ZM351.173 31.2686L352.699 33.8518L355.168 32.3937L353.823 29.8611L351.173 31.2686ZM342.868 36.1729L340.561 38.0905L342.193 40.055L344.393 38.7561L342.868 36.1729ZM327.364 31.2686L325.62 28.8274L325.592 28.8476L325.564 28.8686L327.364 31.2686ZM326.098 35.9355L323.313 37.0497L323.334 37.1023L323.357 37.154L326.098 35.9355ZM327.127 37.2803L325.133 39.5225L325.192 39.5742L325.252 39.6229L327.127 37.2803ZM328.55 38.3877L326.75 40.7877L326.817 40.8377L326.886 40.8838L328.55 38.3877ZM330.528 39.3369L329.475 42.1459L329.502 42.1562L329.529 42.1659L330.528 39.3369ZM332.585 40.1279L331.366 42.8694L331.54 42.9467L331.723 43.0014L332.585 40.1279ZM335.037 40.9189L334.088 43.765L334.15 43.7856L334.213 43.8035L335.037 40.9189ZM337.41 41.6309L338.368 38.7881L338.358 38.7848L337.41 41.6309ZM346.111 66.2314L348.06 68.5118L348.071 68.5028L348.081 68.4937L346.111 66.2314ZM319.137 67.2598L317.637 69.8577L317.659 69.8702L317.68 69.8822L319.137 67.2598ZM312.197 61.3014L321.056 56.0807L318.01 50.9115L309.15 56.1322L312.197 61.3014ZM317.086 55.2317C320.771 60.4265 325.659 63.2988 331.635 63.2988V57.2988C327.909 57.2988 324.729 55.636 321.98 51.7605L317.086 55.2317ZM331.635 63.2988C334.017 63.2988 336.305 62.8026 338.12 61.4195L334.484 56.6469C334.085 56.9513 333.262 57.2988 331.635 57.2988V63.2988ZM338.137 61.4071C339.9 60.0442 341.043 58.1394 341.043 55.79H335.043C335.043 55.9719 335.025 56.2292 334.468 56.6593L338.137 61.4071ZM341.043 55.79C341.043 54.9846 340.89 54.2067 340.614 53.471L334.996 55.5778C335.037 55.6859 335.043 55.7517 335.043 55.79H341.043ZM340.716 53.7968C340.474 52.8316 339.983 51.9849 339.294 51.2957L335.051 55.5383C335.031 55.5179 334.997 55.4784 334.963 55.4196C334.929 55.3603 334.907 55.3014 334.895 55.252L340.716 53.7968ZM339.614 51.6733C339.216 51.1166 338.755 50.6064 338.223 50.1631L334.382 54.7724C334.483 54.8565 334.602 54.9792 334.731 55.1607L339.614 51.6733ZM338.223 50.1631C337.62 49.6608 336.906 49.2669 336.199 48.9457L333.716 54.4079C334.17 54.614 334.352 54.7474 334.382 54.7724L338.223 50.1631ZM336.501 49.1043C335.87 48.7256 335.228 48.3962 334.587 48.1559L332.48 53.7738C332.683 53.8499 332.991 53.9951 333.414 54.2492L336.501 49.1043ZM334.875 48.2816C334.298 47.9931 333.591 47.7092 332.803 47.4277L330.785 53.0782C331.473 53.324 331.925 53.5147 332.192 53.6481L334.875 48.2816ZM332.87 47.4529C332.109 47.1599 331.377 46.9202 330.704 46.7707L329.403 52.6278C329.679 52.6892 330.107 52.8186 330.717 53.053L332.87 47.4529ZM331.002 46.8532C330.501 46.6861 329.821 46.4687 328.971 46.203L327.181 51.9298C328.018 52.1914 328.656 52.3959 329.105 52.5453L331.002 46.8532ZM328.971 46.203C328.14 45.9434 327.572 45.7525 327.231 45.6246L325.124 51.2426C325.627 51.4311 326.324 51.6621 327.181 51.9298L328.971 46.203ZM327.115 45.5838C323.374 44.3531 320.542 42.8076 318.495 41.0282L314.558 45.5558C317.364 47.9952 320.966 49.8773 325.24 51.2834L327.115 45.5838ZM318.52 41.0498C316.956 39.6598 315.967 37.4961 315.967 34.0371H309.967C309.967 38.6992 311.352 42.7055 314.534 45.5342L318.52 41.0498ZM315.967 34.0371C315.967 30.7428 317.291 28.2234 320.201 26.2281L316.808 21.2797C312.335 24.347 309.967 28.683 309.967 34.0371H315.967ZM320.185 26.2392C323.374 24.0829 327.176 22.957 331.714 22.957V16.957C326.128 16.957 321.123 18.3624 316.824 21.2686L320.185 26.2392ZM331.714 22.957C335.106 22.957 338.355 23.8541 341.505 25.7069L344.547 20.5353C340.525 18.1694 336.233 16.957 331.714 16.957V22.957ZM341.55 25.7328C344.739 27.5354 347.024 29.853 348.524 32.676L353.823 29.8611C351.737 25.9341 348.59 22.8201 344.502 20.5094L341.55 25.7328ZM349.648 28.6853L341.342 33.5896L344.393 38.7561L352.699 33.8518L349.648 28.6853ZM345.175 34.2552C341.433 29.7535 336.995 27.082 331.873 27.082V33.082C334.661 33.082 337.552 34.4711 340.561 38.0905L345.175 34.2552ZM331.873 27.082C329.589 27.082 327.402 27.5547 325.62 28.8274L329.108 33.7098C329.541 33.4004 330.36 33.082 331.873 33.082V27.082ZM325.564 28.8686C323.83 30.1691 322.782 32.026 322.782 34.2744H328.782C328.782 34.1192 328.811 34.0502 328.832 34.0105C328.857 33.9627 328.934 33.8409 329.164 33.6686L325.564 28.8686ZM322.782 34.2744C322.782 35.2278 322.957 36.1604 323.313 37.0497L328.884 34.8214C328.818 34.656 328.782 34.4812 328.782 34.2744H322.782ZM323.357 37.154C323.776 38.0962 324.409 38.8784 325.133 39.5225L329.12 35.038C328.895 34.8384 328.843 34.7241 328.84 34.7171L323.357 37.154ZM325.252 39.6229C325.798 40.0592 326.298 40.4482 326.75 40.7877L330.35 35.9877C329.959 35.6944 329.51 35.3451 329.001 34.9377L325.252 39.6229ZM326.886 40.8838C327.629 41.3788 328.524 41.7896 329.475 42.1459L331.581 36.5279C330.844 36.2514 330.421 36.0294 330.214 35.8915L326.886 40.8838ZM329.529 42.1659C330.402 42.4737 331 42.7066 331.366 42.8694L333.803 37.3865C333.22 37.1274 332.447 36.8329 331.526 36.5079L329.529 42.1659ZM331.723 43.0014C332.204 43.1458 332.985 43.3973 334.088 43.765L335.985 38.0729C334.874 37.7023 334.02 37.4265 333.447 37.2545L331.723 43.0014ZM334.213 43.8035C335.318 44.1193 336.054 44.3411 336.461 44.4769L338.358 38.7848C337.816 38.6042 336.971 38.3514 335.861 38.0344L334.213 43.8035ZM336.451 44.4736C340.719 45.9128 343.626 47.6624 345.439 49.5707C347.186 51.4087 348.015 53.487 348.015 55.9482H354.015C354.015 51.9231 352.577 48.3721 349.789 45.4376C347.067 42.5735 343.171 40.4075 338.368 38.7881L336.451 44.4736ZM348.015 55.9482C348.015 59.0115 346.816 61.6386 344.141 63.9692L348.081 68.4937C351.945 65.1289 354.015 60.9006 354.015 55.9482H348.015ZM344.162 63.9511C341.625 66.1192 337.731 67.4238 332.031 67.4238V73.4238C338.565 73.4238 344.057 71.9336 348.06 68.5118L344.162 63.9511ZM332.031 67.4238C327.687 67.4238 323.9 66.4738 320.594 64.6373L317.68 69.8822C321.968 72.2645 326.777 73.4238 332.031 73.4238V67.4238ZM320.638 64.6618C317.337 62.756 314.93 60.3005 313.316 57.2968L308.031 60.1367C310.214 64.1995 313.449 67.4393 317.637 69.8577L320.638 64.6618ZM350.683 58.7168L349.16 56.1322L346.675 57.5963L348.04 60.1367L350.683 58.7168ZM359.542 53.4961L361.989 51.7605L360.394 49.5119L358.019 50.9115L359.542 53.4961ZM376.312 59.0332L378.13 61.4195L378.138 61.4133L378.146 61.4071L376.312 59.0332ZM377.815 54.5244L374.904 55.252L374.946 55.4178L375.006 55.5778L377.815 54.5244ZM377.182 53.417L374.741 55.1607L374.885 55.3627L375.061 55.5383L377.182 53.417ZM374.967 51.6768L373.424 54.2492L373.57 54.3372L373.726 54.4079L374.967 51.6768ZM373.543 50.9648L372.202 53.6481L372.343 53.7185L372.49 53.7738L373.543 50.9648ZM371.803 50.2529L370.726 53.053L370.76 53.066L370.794 53.0782L371.803 50.2529ZM370.063 49.6992L369.114 52.5453L369.261 52.5942L369.412 52.6278L370.063 49.6992ZM366.187 48.4336L367.24 45.6246L367.183 45.603L367.124 45.5838L366.187 48.4336ZM356.537 43.292L354.543 45.5342L354.556 45.5451L354.568 45.5558L356.537 43.292ZM358.514 23.7539L356.834 21.2686L356.826 21.2741L356.817 21.2797L358.514 23.7539ZM383.036 23.1211L381.514 25.7069L381.537 25.72L381.559 25.7328L383.036 23.1211ZM391.183 31.2686L392.708 33.8518L395.178 32.3937L393.832 29.8611L391.183 31.2686ZM382.877 36.1729L380.57 38.0905L382.203 40.055L384.403 38.7561L382.877 36.1729ZM367.373 31.2686L365.63 28.8274L365.601 28.8476L365.573 28.8686L367.373 31.2686ZM366.108 35.9355L363.322 37.0497L363.343 37.1023L363.366 37.154L366.108 35.9355ZM367.136 37.2803L365.143 39.5225L365.201 39.5742L365.262 39.6229L367.136 37.2803ZM368.56 38.3877L366.76 40.7877L366.827 40.8377L366.896 40.8838L368.56 38.3877ZM370.538 39.3369L369.484 42.1459L369.512 42.1562L369.539 42.1659L370.538 39.3369ZM372.594 40.1279L371.376 42.8694L371.55 42.9467L371.732 43.0014L372.594 40.1279ZM375.046 40.9189L374.098 43.765L374.159 43.7856L374.222 43.8035L375.046 40.9189ZM377.419 41.6309L378.378 38.7881L378.368 38.7848L377.419 41.6309ZM386.121 66.2314L388.07 68.5118L388.08 68.5028L388.091 68.4937L386.121 66.2314ZM359.147 67.2598L357.647 69.8577L357.668 69.8702L357.69 69.8822L359.147 67.2598ZM352.206 61.3014L361.065 56.0807L358.019 50.9115L349.16 56.1322L352.206 61.3014ZM357.095 55.2317C360.78 60.4265 365.668 63.2988 371.645 63.2988V57.2988C367.919 57.2988 364.738 55.636 361.989 51.7605L357.095 55.2317ZM371.645 63.2988C374.026 63.2988 376.315 62.8026 378.13 61.4195L374.494 56.6469C374.094 56.9513 373.271 57.2988 371.645 57.2988V63.2988ZM378.146 61.4071C379.91 60.0442 381.052 58.1394 381.052 55.79H375.052C375.052 55.9719 375.034 56.2292 374.478 56.6593L378.146 61.4071ZM381.052 55.79C381.052 54.9846 380.9 54.2067 380.624 53.471L375.006 55.5778C375.046 55.6859 375.052 55.7517 375.052 55.79H381.052ZM380.725 53.7968C380.484 52.8316 379.993 51.9849 379.303 51.2957L375.061 55.5383C375.04 55.5179 375.006 55.4784 374.973 55.4196C374.939 55.3603 374.917 55.3014 374.904 55.252L380.725 53.7968ZM379.623 51.6733C379.226 51.1166 378.764 50.6064 378.232 50.1631L374.391 54.7724C374.492 54.8565 374.611 54.9792 374.741 55.1607L379.623 51.6733ZM378.232 50.1631C377.63 49.6608 376.915 49.2669 376.209 48.9457L373.726 54.4079C374.179 54.614 374.361 54.7474 374.391 54.7724L378.232 50.1631ZM376.511 49.1043C375.88 48.7256 375.238 48.3962 374.597 48.1559L372.49 53.7738C372.693 53.8499 373 53.9951 373.424 54.2492L376.511 49.1043ZM374.885 48.2816C374.308 47.9931 373.6 47.7092 372.812 47.4277L370.794 53.0782C371.482 53.324 371.935 53.5147 372.202 53.6481L374.885 48.2816ZM372.88 47.4529C372.118 47.1599 371.387 46.9202 370.714 46.7707L369.412 52.6278C369.688 52.6892 370.117 52.8186 370.726 53.053L372.88 47.4529ZM371.012 46.8532C370.511 46.6861 369.831 46.4687 368.98 46.203L367.191 51.9298C368.028 52.1914 368.666 52.3959 369.114 52.5453L371.012 46.8532ZM368.98 46.203C368.149 45.9434 367.581 45.7525 367.24 45.6246L365.134 51.2426C365.636 51.4311 366.334 51.6621 367.191 51.9298L368.98 46.203ZM367.124 45.5838C363.383 44.3531 360.551 42.8076 358.505 41.0282L354.568 45.5558C357.373 47.9952 360.975 49.8773 365.249 51.2834L367.124 45.5838ZM358.53 41.0498C356.966 39.6598 355.977 37.4961 355.977 34.0371H349.977C349.977 38.6992 351.361 42.7055 354.543 45.5342L358.53 41.0498ZM355.977 34.0371C355.977 30.7428 357.301 28.2234 360.211 26.2281L356.817 21.2797C352.344 24.347 349.977 28.683 349.977 34.0371H355.977ZM360.194 26.2392C363.384 24.0829 367.186 22.957 371.724 22.957V16.957C366.137 16.957 361.133 18.3624 356.834 21.2686L360.194 26.2392ZM371.724 22.957C375.116 22.957 378.365 23.8541 381.514 25.7069L384.557 20.5353C380.535 18.1694 376.242 16.957 371.724 16.957V22.957ZM381.559 25.7328C384.749 27.5354 387.034 29.853 388.534 32.676L393.832 29.8611C391.746 25.9341 388.6 22.8201 384.512 20.5094L381.559 25.7328ZM389.658 28.6853L381.352 33.5896L384.403 38.7561L392.708 33.8518L389.658 28.6853ZM385.184 34.2552C381.443 29.7535 377.004 27.082 371.882 27.082V33.082C374.67 33.082 377.562 34.4711 380.57 38.0905L385.184 34.2552ZM371.882 27.082C369.598 27.082 367.411 27.5547 365.63 28.8274L369.117 33.7098C369.55 33.4004 370.369 33.082 371.882 33.082V27.082ZM365.573 28.8686C363.839 30.1691 362.791 32.026 362.791 34.2744H368.791C368.791 34.1192 368.821 34.0502 368.842 34.0105C368.867 33.9627 368.944 33.8409 369.173 33.6686L365.573 28.8686ZM362.791 34.2744C362.791 35.2278 362.967 36.1604 363.322 37.0497L368.893 34.8214C368.827 34.656 368.791 34.4812 368.791 34.2744H362.791ZM363.366 37.154C363.785 38.0962 364.418 38.8784 365.143 39.5225L369.129 35.038C368.905 34.8384 368.852 34.7241 368.849 34.7171L363.366 37.154ZM365.262 39.6229C365.807 40.0592 366.307 40.4482 366.76 40.7877L370.36 35.9877C369.969 35.6944 369.52 35.3451 369.01 34.9377L365.262 39.6229ZM366.896 40.8838C367.638 41.3788 368.534 41.7896 369.484 42.1459L371.591 36.5279C370.854 36.2514 370.431 36.0294 370.224 35.8915L366.896 40.8838ZM369.539 42.1659C370.411 42.4737 371.009 42.7066 371.376 42.8694L373.813 37.3865C373.23 37.1274 372.457 36.8329 371.536 36.5079L369.539 42.1659ZM371.732 43.0014C372.213 43.1458 372.995 43.3973 374.098 43.765L375.995 38.0729C374.883 37.7023 374.03 37.4265 373.456 37.2545L371.732 43.0014ZM374.222 43.8035C375.327 44.1193 376.063 44.3411 376.471 44.4769L378.368 38.7848C377.826 38.6042 376.98 38.3514 375.87 38.0344L374.222 43.8035ZM376.461 44.4736C380.729 45.9128 383.635 47.6624 385.449 49.5707C387.195 51.4087 388.025 53.487 388.025 55.9482H394.025C394.025 51.9231 392.587 48.3721 389.798 45.4376C387.076 42.5735 383.18 40.4075 378.378 38.7881L376.461 44.4736ZM388.025 55.9482C388.025 59.0115 386.826 61.6386 384.15 63.9692L388.091 68.4937C391.954 65.1289 394.025 60.9006 394.025 55.9482H388.025ZM384.171 63.9511C381.635 66.1192 377.74 67.4238 372.04 67.4238V73.4238C378.575 73.4238 384.067 71.9336 388.07 68.5118L384.171 63.9511ZM372.04 67.4238C367.697 67.4238 363.91 66.4738 360.604 64.6373L357.69 69.8822C361.978 72.2645 366.786 73.4238 372.04 73.4238V67.4238ZM360.647 64.6618C357.347 62.756 354.94 60.3005 353.326 57.2968L348.04 60.1367C350.223 64.1995 353.459 67.4393 357.647 69.8577L360.647 64.6618ZM394.489 16.3184H391.489V19.3184H394.489V16.3184ZM394.489 3.3457V0.345703H391.489V3.3457H394.489ZM407.225 3.3457H410.225V0.345703H407.225V3.3457ZM407.225 16.3184V19.3184H410.225V16.3184H407.225ZM394.648 69H391.648V72H394.648V69ZM394.648 21.3809V18.3809H391.648V21.3809H394.648ZM407.146 21.3809H410.146V18.3809H407.146V21.3809ZM407.146 69V72H410.146V69H407.146ZM397.489 16.3184V3.3457H391.489V16.3184H397.489ZM394.489 6.3457H407.225V0.345703H394.489V6.3457ZM404.225 3.3457V16.3184H410.225V3.3457H404.225ZM407.225 13.3184H394.489V19.3184H407.225V13.3184ZM397.648 69V21.3809H391.648V69H397.648ZM394.648 24.3809H407.146V18.3809H394.648V24.3809ZM404.146 21.3809V69H410.146V21.3809H404.146ZM407.146 66H394.648V72H407.146V66ZM436.318 59.0332L437.537 61.7746L437.57 61.7599L437.603 61.7444L436.318 59.0332ZM439.324 56.8975L441.387 59.0753L441.417 59.0474L441.446 59.0188L439.324 56.8975ZM441.776 52.3887L444.637 53.2921L444.64 53.2815L444.644 53.2709L441.776 52.3887ZM441.776 37.9922L438.895 38.8264L438.905 38.8611L438.916 38.8956L441.776 37.9922ZM439.324 33.4834L437.203 35.6047L437.23 35.6319L437.258 35.6584L439.324 33.4834ZM436.318 31.3477L435.1 34.0891L435.127 34.1011L435.154 34.1126L436.318 31.3477ZM426.905 34.0371L429.132 36.047L429.144 36.0337L429.156 36.0202L426.905 34.0371ZM412.271 35.9355L415.152 36.7735L415.154 36.7666L415.156 36.7597L412.271 35.9355ZM416.068 27.8672L413.631 26.1185L413.618 26.1361L413.606 26.154L416.068 27.8672ZM423.108 22.0928L421.824 19.3816L421.815 19.386L421.806 19.3905L423.108 22.0928ZM450.557 27.8672L448.094 29.5804L448.106 29.5982L448.119 29.6159L450.557 27.8672ZM454.433 35.9355L451.548 36.7597L451.55 36.7666L451.552 36.7735L454.433 35.9355ZM455.145 51.5186L458.097 52.0486L458.1 52.0357L455.145 51.5186ZM453.009 58.1631L450.267 56.9447L450.261 56.9592L450.255 56.9738L453.009 58.1631ZM449.133 64.333L451.353 66.351L451.368 66.3346L451.382 66.3179L449.133 64.333ZM442.646 68.6836L441.478 65.9207L441.468 65.9248L441.458 65.929L442.646 68.6836ZM417.729 64.5703L415.543 66.6243L415.559 66.6411L415.575 66.6577L417.729 64.5703ZM413.695 58.5586L410.941 59.7479L410.958 59.7861L410.975 59.8238L413.695 58.5586ZM411.56 51.835L408.602 52.3399L408.608 52.3747L408.615 52.4095L411.56 51.835ZM420.979 45.1904C420.979 50.6337 421.966 55.2759 424.654 58.3268L429.156 54.3607C427.942 52.9819 426.979 50.1886 426.979 45.1904H420.979ZM424.654 58.3268C427.025 61.0179 429.953 62.666 433.392 62.666V56.666C432.084 56.666 430.688 56.0993 429.156 54.3607L424.654 58.3268ZM433.392 62.666C434.829 62.666 436.218 62.3606 437.537 61.7746L435.1 56.2918C434.52 56.5496 433.958 56.666 433.392 56.666V62.666ZM437.603 61.7444C438.951 61.1058 440.21 60.1913 441.387 59.0753L437.261 54.7196C436.435 55.5021 435.69 56.0114 435.034 56.322L437.603 61.7444ZM441.446 59.0188C442.913 57.5513 443.924 55.5508 444.637 53.2921L438.916 51.4853C438.363 53.2344 437.739 54.2398 437.203 54.7761L441.446 59.0188ZM444.644 53.2709C445.385 50.8626 445.726 48.1539 445.726 45.1904H439.726C439.726 47.7113 439.434 49.8015 438.909 51.5064L444.644 53.2709ZM445.726 45.1904C445.726 42.1836 445.387 39.4632 444.637 37.0888L438.916 38.8956C439.431 40.529 439.726 42.6074 439.726 45.1904H445.726ZM444.658 37.158C443.991 34.852 442.963 32.8025 441.39 31.3084L437.258 35.6584C437.795 36.1682 438.402 37.1246 438.895 38.8264L444.658 37.158ZM441.446 31.3621C440.248 30.1649 438.933 29.1933 437.483 28.5827L435.154 34.1126C435.708 34.3457 436.396 34.798 437.203 35.6047L441.446 31.3621ZM437.537 28.6062C436.218 28.0203 434.829 27.7148 433.392 27.7148V33.7148C433.958 33.7148 434.52 33.8313 435.1 34.0891L437.537 28.6062ZM433.392 27.7148C429.953 27.7148 427.025 29.3629 424.654 32.054L429.156 36.0202C430.688 34.2816 432.084 33.7148 433.392 33.7148V27.7148ZM424.678 32.0272C421.958 35.0408 420.979 39.7148 420.979 45.1904H426.979C426.979 40.1192 427.95 37.3576 429.132 36.047L424.678 32.0272ZM414.006 45.1904C414.006 42.1812 414.394 39.3802 415.152 36.7735L409.391 35.0976C408.462 38.2917 408.006 41.6606 408.006 45.1904H414.006ZM415.156 36.7597C415.913 34.1115 417.04 31.7245 418.531 29.5804L413.606 26.154C411.722 28.8615 410.318 31.8533 409.387 35.1114L415.156 36.7597ZM418.506 29.6159C419.926 27.637 421.865 26.0228 424.411 24.7951L421.806 19.3905C418.446 21.0104 415.692 23.2459 413.631 26.1185L418.506 29.6159ZM424.393 24.804C426.939 23.5981 429.916 22.957 433.392 22.957V16.957C429.168 16.957 425.29 17.7398 421.824 19.3816L424.393 24.804ZM433.392 22.957C436.868 22.957 439.811 23.5985 442.293 24.7951L444.899 19.3905C441.474 17.7394 437.614 16.957 433.392 16.957V22.957ZM442.293 24.7951C444.833 26.0197 446.733 27.6237 448.094 29.5804L453.019 26.154C451.005 23.2591 448.265 21.0135 444.899 19.3905L442.293 24.7951ZM448.119 29.6159C449.652 31.7534 450.796 34.1285 451.548 36.7597L457.317 35.1114C456.381 31.8364 454.941 28.8325 452.994 26.1185L448.119 29.6159ZM451.552 36.7735C452.31 39.3802 452.698 42.1812 452.698 45.1904H458.698C458.698 41.6606 458.242 38.2917 457.313 35.0976L451.552 36.7735ZM452.698 45.1904C452.698 47.1238 452.529 49.0602 452.189 51.0014L458.1 52.0357C458.498 49.7582 458.698 47.4758 458.698 45.1904H452.698ZM452.192 50.9886C451.874 52.759 451.247 54.741 450.267 56.9447L455.75 59.3815C456.88 56.8391 457.677 54.3914 458.097 52.0485L452.192 50.9886ZM450.255 56.9738C449.371 59.0206 448.245 60.8053 446.883 62.3481L451.382 66.3179C453.185 64.2748 454.643 61.9462 455.763 59.3524L450.255 56.9738ZM446.913 62.315C445.69 63.6602 443.923 64.8862 441.478 65.9207L443.815 71.4465C446.855 70.1606 449.411 68.4863 451.353 66.351L446.913 62.315ZM441.458 65.929C439.208 66.8997 436.539 67.4238 433.392 67.4238V73.4238C437.205 73.4238 440.706 72.7878 443.835 71.4382L441.458 65.929ZM433.392 67.4238C430.287 67.4238 427.627 66.9228 425.358 65.9887L423.074 71.5367C426.184 72.8175 429.641 73.4238 433.392 73.4238V67.4238ZM425.358 65.9887C422.962 65.0019 421.173 63.8129 419.884 62.4829L415.575 66.6577C417.556 68.7027 420.091 70.3087 423.074 71.5367L425.358 65.9887ZM419.916 62.5163C418.51 61.0198 417.342 59.2851 416.415 57.2934L410.975 59.8238C412.158 62.3672 413.679 64.6404 415.543 66.6243L419.916 62.5163ZM416.449 57.3693C415.521 55.2182 414.879 53.1832 414.504 51.2604L408.615 52.4095C409.084 54.811 409.866 57.2584 410.941 59.7479L416.449 57.3693ZM414.517 51.3301C414.177 49.3403 414.006 47.2945 414.006 45.1904H408.006C408.006 47.6215 408.204 50.0054 408.602 52.3399L414.517 51.3301ZM458.926 69H455.926V72H458.926V69ZM458.926 21.3809V18.3809H455.926V21.3809H458.926ZM471.028 21.3809H474.028V18.3809H471.028V21.3809ZM471.028 26.0479H468.028V29.0479H471.028V26.0479ZM471.107 26.0479V29.0479H472.754L473.638 27.6585L471.107 26.0479ZM498.951 69V72H501.951V69H498.951ZM486.374 69H483.374V72H486.374V69ZM484.95 32.8506L482.454 34.5147L482.468 34.5366L482.483 34.5582L484.95 32.8506ZM474.034 33.958L476.405 35.7957L476.416 35.7816L476.427 35.7673L474.034 33.958ZM471.582 69V72H474.582V69H471.582ZM461.926 69V21.3809H455.926V69H461.926ZM458.926 24.3809H471.028V18.3809H458.926V24.3809ZM468.028 21.3809V26.0479H474.028V21.3809H468.028ZM471.028 29.0479H471.107V23.0479H471.028V29.0479ZM473.638 27.6585C475.587 24.5965 478.583 22.957 483.21 22.957V16.957C476.868 16.957 471.796 19.3781 468.576 24.4372L473.638 27.6585ZM483.21 22.957C487.856 22.957 490.836 24.3 492.73 26.528C494.704 28.8491 495.951 32.6512 495.951 38.4668H501.951C501.951 31.9425 500.574 26.4898 497.301 22.641C493.949 18.6991 489.058 16.957 483.21 16.957V22.957ZM495.951 38.4668V69H501.951V38.4668H495.951ZM498.951 66H486.374V72H498.951V66ZM489.374 69V39.9697H483.374V69H489.374ZM489.374 39.9697C489.374 36.4997 488.922 33.317 487.417 31.143L482.483 34.5582C482.877 35.1264 483.374 36.6897 483.374 39.9697H489.374ZM487.446 31.1865C485.823 28.7516 483.268 27.7148 480.441 27.7148V33.7148C481.727 33.7148 482.179 34.102 482.454 34.5147L487.446 31.1865ZM480.441 27.7148C476.834 27.7148 473.824 29.2613 471.641 32.1487L476.427 35.7673C477.513 34.3305 478.775 33.7148 480.441 33.7148V27.7148ZM471.663 32.1203C469.542 34.857 468.582 38.206 468.582 41.9473H474.582C474.582 39.2549 475.257 37.2777 476.405 35.7957L471.663 32.1203ZM468.582 41.9473V69H474.582V41.9473H468.582ZM471.582 66H458.926V72H471.582V66Z" fill="white" mask="url(#path-1-outside-1_236_2821)"/>
</svg>
