<svg width="97" height="105" viewBox="0 0 97 105" fill="none" xmlns="http://www.w3.org/2000/svg">
<path d="M36.0947 45.5697C34.7468 37.8189 32.8256 31.1224 27.9711 24.9132C23.7948 19.5713 19.636 13.5175 14.5276 9.00137C12.8095 7.48249 10.928 6.14045 9.18369 4.78379C6.35417 2.58306 10.0482 3.31063 12.0593 3.53769C15.2787 3.90117 24.8381 5.08942 21.7645 4.06489C18.1261 2.85206 14.1391 2.19447 10.31 2.02799C8.9451 1.96865 8.1068 1.86289 8.05741 3.39391C7.98326 5.69265 7.91306 7.76689 7.29058 10.0078C6.52078 12.7791 6.02896 15.597 5.46935 18.3951" stroke="white" stroke-width="2.82678" stroke-linecap="round"/>
<path d="M2 63.8104C2.0149 63.9147 7.58195 61.3248 8.18036 61.071C9.85378 60.3615 11.5501 59.8551 13.1915 59.0499C14.0133 58.6467 14.6305 58.3984 15.53 58.3984" stroke="white" stroke-width="2.82678" stroke-linecap="round"/>
<path d="M10.7193 50.8828C8.53079 59.3866 6.64205 67.4344 6.27607 76.1722C6.18005 78.4648 6.20926 80.7601 6.20926 83.0541" stroke="white" stroke-width="2.82678" stroke-linecap="round"/>
<path d="M19.4389 50.2812C17.8192 59.4523 15.5015 68.6153 16.1482 77.9927C16.4419 82.2509 17.3394 68.9174 20.3576 65.8992C21.0457 65.2111 21.7542 64.1543 22.813 64.1119C24.5047 64.0442 27.1024 63.9178 28.392 65.2478C29.8231 66.7236 30.1503 70.5198 30.4299 72.4303C30.5755 73.4256 30.0782 75.5372 31.1649 75.5372" stroke="white" stroke-width="2.82678" stroke-linecap="round"/>
<path d="M39.5831 60.5043C37.8189 61.014 36.1778 61.3135 35.0397 62.8428C33.9172 64.3513 32.9396 66.0623 32.2669 67.8205C32.0284 68.4439 31.0866 71.6736 32.0665 72.1635C33.4486 72.8545 35.0569 71.4501 36.0754 70.7938C37.5752 69.8272 38.898 68.8484 39.5831 67.1357C40.2144 65.5574 40.6989 63.8436 41.0698 62.1747C41.1761 61.696 41.3871 58.987 41.3871 59.7526C41.3871 63.1962 42.1318 66.8325 46.014 67.7871C48.1397 68.3098 48.962 68.2343 50.1065 66.5176" stroke="white" stroke-width="2.82678" stroke-linecap="round"/>
<path d="M49.8057 51.1826C53.4055 50.1375 57.329 49.8551 61.0305 49.3953C64.1776 49.0043 67.3722 48.4766 70.5516 48.4766" stroke="white" stroke-width="2.82678" stroke-linecap="round"/>
<path d="M60.3293 42.1641C57.5929 52.521 54.6966 62.8491 52.1278 73.2496C51.5193 75.7134 51.0036 78.1368 50.708 80.6494" stroke="white" stroke-width="2.82678" stroke-linecap="round"/>
<path d="M76.8657 39.457C74.1008 40.7782 70.9451 42.9229 67.8457 43.3657" stroke="white" stroke-width="2.82678" stroke-linecap="round"/>
<path d="M86.4876 47.8771C83.7168 47.2174 77.8395 48.4072 75.6803 50.5664C74.4943 51.7524 73.0136 52.7868 72.54 54.4918C72.2401 55.5715 73.915 56.3555 74.7282 56.5965C77.0539 57.2856 79.6824 56.8454 81.9776 56.2958C82.3672 56.2025 84.5035 55.5568 84.8172 56.229C85.9377 58.63 85.627 61.0476 84.0656 63.0775C80.7096 67.4402 74.6679 68.6231 69.3496 68.6231" stroke="white" stroke-width="2.82678" stroke-linecap="round"/>
<path d="M51.3096 103.497C53.3674 98.2616 55.0448 92.3797 57.8908 87.4782C58.0725 87.1654 58.4253 86.2588 58.8262 86.1252C59.509 85.8976 59.4171 89.2578 59.4276 89.8C59.444 90.6569 59.3635 92.6044 60.4966 92.673C61.2667 92.7197 61.2316 92.8218 61.2316 93.575C61.2316 93.8962 61.1692 94.1671 61.4821 93.7254C62.9513 91.6513 64.6685 89.8125 66.5433 88.0962C69.091 85.7641 71.879 83.7701 74.5945 81.6486C75.192 81.1818 75.8914 80.1681 76.5655 79.8112C77.0785 79.5397 76.7597 80.9732 76.6825 81.5484C76.2502 84.7665 75.1807 87.7396 73.7927 90.6686C72.2435 93.9379 69.7696 97.1876 69.0489 100.791" stroke="white" stroke-width="2.82678" stroke-linecap="round"/>
<path d="M83.1797 80.9478C87.2132 79.6033 91.5245 78.9328 95.507 77.3398" stroke="white" stroke-width="2.82678" stroke-linecap="round"/>
<path d="M84.3828 81.8516C81.5558 87.7806 78.3522 93.5902 76.5655 99.925C76.3617 100.647 75.2582 102.628 76.7158 101.746C81.4672 98.8698 87.3352 96.1741 92.8015 95.0809" stroke="white" stroke-width="2.82678" stroke-linecap="round"/>
<path d="M79.4199 90.1585C81.3517 90.1585 84.0935 89.5451 85.8716 88.7964C87.1246 88.2689 88.4886 88.0091 89.5635 87.1297C90.1193 86.675 91.2892 86.202 92.0008 85.9648" stroke="white" stroke-width="2.82678" stroke-linecap="round"/>
</svg>
